<svg xmlns="http://www.w3.org/2000/svg" viewBox="0 0 880 400" font-family="'Red Hat Text', system-ui, sans-serif" role="img">
<defs><marker id="a" viewBox="0 0 10 10" refX="8.5" refY="5" markerWidth="9" markerHeight="9" orient="auto-start-reverse"><path d="M0,0 L10,5 L0,10 z" fill="#555"/></marker><marker id="am" viewBox="0 0 10 10" refX="8.5" refY="5" markerWidth="9" markerHeight="9" orient="auto-start-reverse"><path d="M0,0 L10,5 L0,10 z" fill="#b8650a"/></marker></defs>
<rect x="380" y="28" width="300" height="176" rx="12" fill="#fafafa" stroke="#ddd"/>
<text x="392" y="48" font-size="12" font-weight="700" fill="#1d1d1d">internal services · gRPC</text>
<rect x="30" y="50" width="104" height="50" rx="9" fill="#ffffff" stroke="#999999" stroke-width="1.5" stroke-dasharray="6 4"/>
<text x="82.0" y="80.5" font-size="13.5" font-weight="700" fill="#111111" text-anchor="middle">Client</text>
<rect x="170" y="46" width="150" height="58" rx="9" fill="#fff8ef" stroke="#e8870c" stroke-width="2"/>
<text x="245.0" y="73.0" font-size="13.5" font-weight="700" fill="#111111" text-anchor="middle">order-service</text>
<text x="245.0" y="90.0" font-size="11.5" fill="#555555" text-anchor="middle">REST at the edge</text>
<rect x="404" y="48" width="120" height="42" rx="9" fill="#ffffff" stroke="#111111" stroke-width="2"/>
<text x="464.0" y="74.5" font-size="13.5" font-weight="700" fill="#111111" text-anchor="middle">inventory</text>
<rect x="404" y="98" width="120" height="42" rx="9" fill="#ffffff" stroke="#111111" stroke-width="2"/>
<text x="464.0" y="124.5" font-size="13.5" font-weight="700" fill="#111111" text-anchor="middle">payment</text>
<rect x="404" y="148" width="120" height="42" rx="9" fill="#ffffff" stroke="#111111" stroke-width="2"/>
<text x="464.0" y="174.5" font-size="13.5" font-weight="700" fill="#111111" text-anchor="middle">shipping</text>
<rect x="170" y="214" width="150" height="54" rx="9" fill="#ffffff" stroke="#111111" stroke-width="2"/>
<text x="245.0" y="239.0" font-size="13.5" font-weight="700" fill="#111111" text-anchor="middle">graphql-gateway</text>
<text x="245.0" y="256.0" font-size="11.5" fill="#555555" text-anchor="middle">composes reads</text>
<rect x="170" y="322" width="150" height="48" rx="9" fill="#eef4fb" stroke="#2f6db5" stroke-width="2"/>
<text x="245.0" y="344.0" font-size="13.5" font-weight="700" fill="#111111" text-anchor="middle">Kafka</text>
<text x="245.0" y="361.0" font-size="11.5" fill="#555555" text-anchor="middle">order.placed</text>
<rect x="404" y="318" width="170" height="52" rx="9" fill="#ffffff" stroke="#111111" stroke-width="2"/>
<text x="489.0" y="342.0" font-size="13.5" font-weight="700" fill="#111111" text-anchor="middle">notification</text>
<text x="489.0" y="359.0" font-size="11.5" fill="#555555" text-anchor="middle">Kafka consumer</text>
<path d="M134,75 L170,75" fill="none" stroke="#b8650a" stroke-width="2" marker-end="url(#am)"/>
<text x="158.0" y="69.0" font-size="11" fill="#ffffff" stroke="#ffffff" stroke-width="3" paint-order="stroke" text-anchor="middle">REST</text>
<text x="158.0" y="69.0" font-size="11" fill="#b8650a" text-anchor="middle">REST</text>
<path d="M320,75 L380,80" fill="none" stroke="#b8650a" stroke-width="2" marker-end="url(#am)"/>
<text x="356.0" y="71.5" font-size="11" fill="#ffffff" stroke="#ffffff" stroke-width="3" paint-order="stroke" text-anchor="middle">gRPC</text>
<text x="356.0" y="71.5" font-size="11" fill="#b8650a" text-anchor="middle">gRPC</text>
<path d="M245,104 L245,322" fill="none" stroke="#b8650a" stroke-width="2" marker-end="url(#am)"/>
<text x="251.0" y="207.0" font-size="11" fill="#ffffff" stroke="#ffffff" stroke-width="3" paint-order="stroke" text-anchor="middle">order.placed</text>
<text x="251.0" y="207.0" font-size="11" fill="#b8650a" text-anchor="middle">order.placed</text>
<path d="M320,346 L404,344" fill="none" stroke="#b8650a" stroke-width="2" marker-end="url(#am)"/>
<text x="368.0" y="339.0" font-size="11" fill="#ffffff" stroke="#ffffff" stroke-width="3" paint-order="stroke" text-anchor="middle">consume</text>
<text x="368.0" y="339.0" font-size="11" fill="#b8650a" text-anchor="middle">consume</text>
<path d="M320,228 L380,192" fill="none" stroke="#555" stroke-width="2" marker-end="url(#a)"/>
<text x="356.0" y="204.0" font-size="11" fill="#ffffff" stroke="#ffffff" stroke-width="3" paint-order="stroke" text-anchor="middle">GraphQL reads</text>
<text x="356.0" y="204.0" font-size="11" fill="#555" text-anchor="middle">GraphQL reads</text>
</svg>