<svg xmlns="http://www.w3.org/2000/svg" viewBox="0 0 920 470" font-family="'Red Hat Text', system-ui, sans-serif" role="img">
<defs><marker id="a" viewBox="0 0 10 10" refX="8.5" refY="5" markerWidth="9" markerHeight="9" orient="auto-start-reverse"><path d="M0,0 L10,5 L0,10 z" fill="#555"/></marker><marker id="am" viewBox="0 0 10 10" refX="8.5" refY="5" markerWidth="9" markerHeight="9" orient="auto-start-reverse"><path d="M0,0 L10,5 L0,10 z" fill="#b8650a"/></marker></defs>
<rect x="30" y="58" width="300" height="62" rx="9" fill="#ffffff" stroke="#999999" stroke-width="1.5" stroke-dasharray="6 4"/>
<text x="180.0" y="87.0" font-size="13.5" font-weight="700" fill="#111111" text-anchor="middle">Build &amp; ship</text>
<text x="180.0" y="104.0" font-size="11.5" fill="#555555" text-anchor="middle">codebase · dependencies · build/release/run · parity</text>
<rect x="410" y="58" width="390" height="62" rx="9" fill="#ffffff" stroke="#111111" stroke-width="2"/>
<text x="605.0" y="87.0" font-size="13.5" font-weight="700" fill="#111111" text-anchor="middle">Built once, run anywhere</text>
<text x="605.0" y="104.0" font-size="11.5" fill="#555555" text-anchor="middle">one repo · Poetry · one image per release</text>
<rect x="830" y="70" width="64" height="38" rx="9" fill="#ffffff" stroke="#111111" stroke-width="2"/>
<text x="862.0" y="94.5" font-size="13.5" font-weight="700" fill="#111111" text-anchor="middle">§1</text>
<rect x="30" y="134" width="300" height="62" rx="9" fill="#ffffff" stroke="#999999" stroke-width="1.5" stroke-dasharray="6 4"/>
<text x="180.0" y="163.0" font-size="13.5" font-weight="700" fill="#111111" text-anchor="middle">Configure</text>
<text x="180.0" y="180.0" font-size="11.5" fill="#555555" text-anchor="middle">config</text>
<rect x="410" y="134" width="390" height="62" rx="9" fill="#ffffff" stroke="#999999" stroke-width="1.5"/>
<text x="605.0" y="163.0" font-size="13.5" font-weight="700" fill="#111111" text-anchor="middle">Config from the environment</text>
<text x="605.0" y="180.0" font-size="11.5" fill="#555555" text-anchor="middle">pydantic-settings · per-profile · secrets injected</text>
<rect x="830" y="146" width="64" height="38" rx="9" fill="#ffffff" stroke="#111111" stroke-width="2"/>
<text x="862.0" y="170.5" font-size="13.5" font-weight="700" fill="#111111" text-anchor="middle">§1</text>
<rect x="30" y="210" width="300" height="62" rx="9" fill="#ffffff" stroke="#999999" stroke-width="1.5" stroke-dasharray="6 4"/>
<text x="180.0" y="239.0" font-size="13.5" font-weight="700" fill="#111111" text-anchor="middle">Run on the platform</text>
<text x="180.0" y="256.0" font-size="11.5" fill="#555555" text-anchor="middle">stateless · concurrency · disposability · port binding</text>
<rect x="410" y="210" width="390" height="62" rx="9" fill="#eef4fb" stroke="#2f6db5" stroke-width="2"/>
<text x="605.0" y="239.0" font-size="13.5" font-weight="700" fill="#111111" text-anchor="middle">Disposable, stateless, scaled</text>
<text x="605.0" y="256.0" font-size="11.5" fill="#555555" text-anchor="middle">KEDA scale-out &amp; to-zero · fast start/stop · behind Istio</text>
<rect x="830" y="222" width="64" height="38" rx="9" fill="#ffffff" stroke="#111111" stroke-width="2"/>
<text x="862.0" y="246.5" font-size="13.5" font-weight="700" fill="#111111" text-anchor="middle">§1·2·6</text>
<rect x="30" y="286" width="300" height="62" rx="9" fill="#ffffff" stroke="#999999" stroke-width="1.5" stroke-dasharray="6 4"/>
<text x="180.0" y="315.0" font-size="13.5" font-weight="700" fill="#111111" text-anchor="middle">Attach resources</text>
<text x="180.0" y="332.0" font-size="11.5" fill="#555555" text-anchor="middle">backing services</text>
<rect x="410" y="286" width="390" height="62" rx="9" fill="#fff8ef" stroke="#e8870c" stroke-width="2"/>
<text x="605.0" y="315.0" font-size="13.5" font-weight="700" fill="#111111" text-anchor="middle">Backing services as URLs</text>
<text x="605.0" y="332.0" font-size="11.5" fill="#555555" text-anchor="middle">Postgres · Kafka (Strimzi) · Apicurio — swappable</text>
<rect x="830" y="298" width="64" height="38" rx="9" fill="#ffffff" stroke="#111111" stroke-width="2"/>
<text x="862.0" y="322.5" font-size="13.5" font-weight="700" fill="#111111" text-anchor="middle">§4·5</text>
<rect x="30" y="362" width="300" height="62" rx="9" fill="#ffffff" stroke="#999999" stroke-width="1.5" stroke-dasharray="6 4"/>
<text x="180.0" y="391.0" font-size="13.5" font-weight="700" fill="#111111" text-anchor="middle">Operate</text>
<text x="180.0" y="408.0" font-size="11.5" fill="#555555" text-anchor="middle">logs · admin processes</text>
<rect x="410" y="362" width="390" height="62" rx="9" fill="#ffffff" stroke="#999999" stroke-width="1.5"/>
<text x="605.0" y="391.0" font-size="13.5" font-weight="700" fill="#111111" text-anchor="middle">Signals &amp; admin off the hot path</text>
<text x="605.0" y="408.0" font-size="11.5" fill="#555555" text-anchor="middle">OpenTelemetry → LGTM · admin as Jobs/CronJobs</text>
<rect x="830" y="374" width="64" height="38" rx="9" fill="#ffffff" stroke="#111111" stroke-width="2"/>
<text x="862.0" y="398.5" font-size="13.5" font-weight="700" fill="#111111" text-anchor="middle">§7·11</text>
<path d="M330,89 L410,89" fill="none" stroke="#555" stroke-width="2" marker-end="url(#a)"/>
<path d="M330,165 L410,165" fill="none" stroke="#555" stroke-width="2" marker-end="url(#a)"/>
<path d="M330,241 L410,241" fill="none" stroke="#555" stroke-width="2" marker-end="url(#a)"/>
<path d="M330,317 L410,317" fill="none" stroke="#555" stroke-width="2" marker-end="url(#a)"/>
<path d="M330,393 L410,393" fill="none" stroke="#555" stroke-width="2" marker-end="url(#a)"/>
<text x="460" y="452" font-size="12" fill="#2f6db5" text-anchor="middle">most factors are now platform defaults you adopt; a few are discipline you still write</text>
</svg>