<svg xmlns="http://www.w3.org/2000/svg" viewBox="0 0 1180 400" font-family="'Red Hat Text', system-ui, sans-serif" role="img">
<defs><marker id="a" viewBox="0 0 10 10" refX="8.5" refY="5" markerWidth="9" markerHeight="9" orient="auto-start-reverse"><path d="M0,0 L10,5 L0,10 z" fill="#555"/></marker><marker id="am" viewBox="0 0 10 10" refX="8.5" refY="5" markerWidth="9" markerHeight="9" orient="auto-start-reverse"><path d="M0,0 L10,5 L0,10 z" fill="#b8650a"/></marker></defs>
<rect x="40" y="60" width="480" height="190" rx="12" fill="#fbfaf7" stroke="#ddd"/>
<text x="52" y="80" font-size="12" font-weight="700" fill="#1d1d1d">Pod</text>
<rect x="660" y="60" width="480" height="190" rx="12" fill="#fbfaf7" stroke="#ddd"/>
<text x="672" y="80" font-size="12" font-weight="700" fill="#1d1d1d">Pod</text>
<rect x="70" y="105" width="185" height="120" rx="9" fill="#ffffff" stroke="#111111" stroke-width="2"/>
<text x="162.5" y="155.5" font-size="13.5" font-weight="700" fill="#111111" text-anchor="middle">app</text>
<text x="162.5" y="172.5" font-size="11.5" fill="#555555" text-anchor="middle">FastAPI / grpc server</text>
<text x="162.5" y="187.5" font-size="11.5" fill="#555555" text-anchor="middle">plain localhost</text>
<rect x="280" y="105" width="215" height="120" rx="9" fill="#ffffff" stroke="#999999" stroke-width="1.5"/>
<text x="387.5" y="148.0" font-size="13.5" font-weight="700" fill="#111111" text-anchor="middle">istio-proxy</text>
<text x="387.5" y="165.0" font-size="11.5" fill="#555555" text-anchor="middle">Envoy sidecar</text>
<text x="387.5" y="180.0" font-size="11.5" fill="#555555" text-anchor="middle">mTLS · retries</text>
<text x="387.5" y="195.0" font-size="11.5" fill="#555555" text-anchor="middle">timeouts · traces</text>
<rect x="690" y="105" width="185" height="120" rx="9" fill="#f4f4f4" stroke="#888888" stroke-width="1.5"/>
<text x="782.5" y="155.5" font-size="13.5" font-weight="700" fill="#111111" text-anchor="middle">app</text>
<text x="782.5" y="172.5" font-size="11.5" fill="#555555" text-anchor="middle">FastAPI / grpc server</text>
<text x="782.5" y="187.5" font-size="11.5" fill="#555555" text-anchor="middle">plain localhost</text>
<rect x="900" y="105" width="215" height="120" rx="9" fill="#ffffff" stroke="#999999" stroke-width="1.5"/>
<text x="1007.5" y="148.0" font-size="13.5" font-weight="700" fill="#111111" text-anchor="middle">istio-proxy</text>
<text x="1007.5" y="165.0" font-size="11.5" fill="#555555" text-anchor="middle">Envoy sidecar</text>
<text x="1007.5" y="180.0" font-size="11.5" fill="#555555" text-anchor="middle">mTLS · retries</text>
<text x="1007.5" y="195.0" font-size="11.5" fill="#555555" text-anchor="middle">timeouts · traces</text>
<rect x="150" y="300" width="880" height="58" rx="9" fill="#fff8ef" stroke="#e8870c" stroke-width="2"/>
<text x="590.0" y="334.5" font-size="13.5" font-weight="700" fill="#111111" text-anchor="middle">istiod control plane · policy, identity (SPIFFE), telemetry config</text>
<path d="M255,165 L280,165" fill="none" stroke="#555" stroke-width="2" marker-start="url(#a)" marker-end="url(#a)"/>
<path d="M875,165 L900,165" fill="none" stroke="#555" stroke-width="2" marker-start="url(#a)" marker-end="url(#a)"/>
<path d="M495,165 L690,165" fill="none" stroke="#b8650a" stroke-width="2" marker-start="url(#am)" marker-end="url(#am)"/>
<text x="598.5" y="155.0" font-size="11" fill="#ffffff" stroke="#ffffff" stroke-width="3" paint-order="stroke" text-anchor="middle">mTLS</text>
<text x="598.5" y="155.0" font-size="11" fill="#b8650a" text-anchor="middle">mTLS</text>
<path d="M300,250 L300,300" fill="none" stroke="#555" stroke-width="2" stroke-dasharray="5 4" marker-end="url(#a)"/>
<path d="M920,250 L920,300" fill="none" stroke="#555" stroke-width="2" stroke-dasharray="5 4" marker-end="url(#a)"/>
<text x="592" y="225" font-size="11" fill="#8a4b06" text-anchor="middle">encrypted, authenticated</text>
<text x="590" y="384" font-size="12" fill="#2f6db5" text-anchor="middle">your service speaks plain HTTP/gRPC to localhost; the sidecar secures and observes the wire</text>
</svg>