<svg xmlns="http://www.w3.org/2000/svg" viewBox="0 0 820 320" font-family="'Red Hat Text', system-ui, sans-serif" role="img">
<defs><marker id="a" viewBox="0 0 10 10" refX="8.5" refY="5" markerWidth="9" markerHeight="9" orient="auto-start-reverse"><path d="M0,0 L10,5 L0,10 z" fill="#555"/></marker><marker id="am" viewBox="0 0 10 10" refX="8.5" refY="5" markerWidth="9" markerHeight="9" orient="auto-start-reverse"><path d="M0,0 L10,5 L0,10 z" fill="#b8650a"/></marker></defs>
<rect x="20" y="34" width="780" height="112" rx="12" fill="#fff0f0" stroke="#ddd"/>
<text x="32" y="54" font-size="12" font-weight="700" fill="#1d1d1d">synchronous — coupled in time &amp; availability</text>
<rect x="20" y="174" width="780" height="120" rx="12" fill="#f0f7f0" stroke="#ddd"/>
<text x="32" y="194" font-size="12" font-weight="700" fill="#1d1d1d">asynchronous — emit a fact, consumers catch up</text>
<rect x="50" y="76" width="120" height="50" rx="9" fill="#fff8ef" stroke="#e8870c" stroke-width="2"/>
<text x="110.0" y="106.5" font-size="13.5" font-weight="700" fill="#111111" text-anchor="middle">order</text>
<rect x="250" y="76" width="130" height="50" rx="9" fill="#ffffff" stroke="#111111" stroke-width="2"/>
<text x="315.0" y="106.5" font-size="13.5" font-weight="700" fill="#111111" text-anchor="middle">payment</text>
<rect x="50" y="212" width="120" height="50" rx="9" fill="#fff8ef" stroke="#e8870c" stroke-width="2"/>
<text x="110.0" y="242.5" font-size="13.5" font-weight="700" fill="#111111" text-anchor="middle">order</text>
<rect x="250" y="212" width="150" height="50" rx="9" fill="#eef4fb" stroke="#2f6db5" stroke-width="2"/>
<text x="325.0" y="235.0" font-size="13.5" font-weight="700" fill="#111111" text-anchor="middle">Kafka</text>
<text x="325.0" y="252.0" font-size="11.5" fill="#555555" text-anchor="middle">order.placed</text>
<rect x="470" y="212" width="150" height="50" rx="9" fill="#ffffff" stroke="#111111" stroke-width="2"/>
<text x="545.0" y="242.5" font-size="13.5" font-weight="700" fill="#111111" text-anchor="middle">consumers</text>
<path d="M170,101 L250,101" fill="none" stroke="#b8650a" stroke-width="2" marker-end="url(#am)"/>
<text x="216.0" y="95.0" font-size="11" fill="#ffffff" stroke="#ffffff" stroke-width="3" paint-order="stroke" text-anchor="middle">blocks on</text>
<text x="216.0" y="95.0" font-size="11" fill="#b8650a" text-anchor="middle">blocks on</text>
<path d="M170,237 L250,237" fill="none" stroke="#b8650a" stroke-width="2" marker-end="url(#am)"/>
<text x="216.0" y="231.0" font-size="11" fill="#ffffff" stroke="#ffffff" stroke-width="3" paint-order="stroke" text-anchor="middle">emit</text>
<text x="216.0" y="231.0" font-size="11" fill="#b8650a" text-anchor="middle">emit</text>
<path d="M400,237 L470,237" fill="none" stroke="#b8650a" stroke-width="2" marker-end="url(#am)"/>
<text x="441.0" y="231.0" font-size="11" fill="#ffffff" stroke="#ffffff" stroke-width="3" paint-order="stroke" text-anchor="middle">catch up</text>
<text x="441.0" y="231.0" font-size="11" fill="#b8650a" text-anchor="middle">catch up</text>
<text x="600" y="101" font-size="11" fill="#1d1d1d" text-anchor="middle">payment down → the order fails too</text>
</svg>