<svg xmlns="http://www.w3.org/2000/svg" viewBox="0 0 780 300" font-family="'Red Hat Text', system-ui, sans-serif" role="img">
<defs><marker id="a" viewBox="0 0 10 10" refX="8.5" refY="5" markerWidth="9" markerHeight="9" orient="auto-start-reverse"><path d="M0,0 L10,5 L0,10 z" fill="#555"/></marker><marker id="am" viewBox="0 0 10 10" refX="8.5" refY="5" markerWidth="9" markerHeight="9" orient="auto-start-reverse"><path d="M0,0 L10,5 L0,10 z" fill="#b8650a"/></marker></defs>
<rect x="40" y="118" width="110" height="54" rx="9" fill="#ffffff" stroke="#999999" stroke-width="1.5" stroke-dasharray="6 4"/>
<text x="95.0" y="150.5" font-size="13.5" font-weight="700" fill="#111111" text-anchor="middle">Client</text>
<rect x="220" y="112" width="170" height="66" rx="9" fill="#fff8ef" stroke="#e8870c" stroke-width="2"/>
<text x="305.0" y="143.0" font-size="13.5" font-weight="700" fill="#111111" text-anchor="middle">graphql-gateway</text>
<text x="305.0" y="160.0" font-size="11.5" fill="#555555" text-anchor="middle">one schema, fans out</text>
<rect x="470" y="56" width="160" height="54" rx="9" fill="#ffffff" stroke="#111111" stroke-width="2"/>
<text x="550.0" y="81.0" font-size="13.5" font-weight="700" fill="#111111" text-anchor="middle">order-service</text>
<text x="550.0" y="98.0" font-size="11.5" fill="#555555" text-anchor="middle">REST</text>
<rect x="470" y="180" width="160" height="54" rx="9" fill="#ffffff" stroke="#111111" stroke-width="2"/>
<text x="550.0" y="205.0" font-size="13.5" font-weight="700" fill="#111111" text-anchor="middle">inventory</text>
<text x="550.0" y="222.0" font-size="11.5" fill="#555555" text-anchor="middle">gRPC</text>
<path d="M150,145 L220,145" fill="none" stroke="#b8650a" stroke-width="2" marker-end="url(#am)"/>
<text x="191.0" y="139.0" font-size="11" fill="#ffffff" stroke="#ffffff" stroke-width="3" paint-order="stroke" text-anchor="middle">one query</text>
<text x="191.0" y="139.0" font-size="11" fill="#b8650a" text-anchor="middle">one query</text>
<path d="M390,132 L470,86" fill="none" stroke="#b8650a" stroke-width="2" marker-end="url(#am)"/>
<text x="436.0" y="103.0" font-size="11" fill="#ffffff" stroke="#ffffff" stroke-width="3" paint-order="stroke" text-anchor="middle">order{ } · REST</text>
<text x="436.0" y="103.0" font-size="11" fill="#b8650a" text-anchor="middle">order{ } · REST</text>
<path d="M390,158 L470,204" fill="none" stroke="#b8650a" stroke-width="2" marker-end="url(#am)"/>
<text x="436.0" y="175.0" font-size="11" fill="#ffffff" stroke="#ffffff" stroke-width="3" paint-order="stroke" text-anchor="middle">stock · gRPC</text>
<text x="436.0" y="175.0" font-size="11" fill="#b8650a" text-anchor="middle">stock · gRPC</text>
<text x="400" y="268" font-size="11" fill="#1d1d1d" text-anchor="middle">services stay unaware of each other — the gateway owns composition</text>
</svg>