<svg xmlns="http://www.w3.org/2000/svg" viewBox="0 0 860 300" font-family="'Red Hat Text', system-ui, sans-serif" role="img">
<defs><marker id="a" viewBox="0 0 10 10" refX="8.5" refY="5" markerWidth="9" markerHeight="9" orient="auto-start-reverse"><path d="M0,0 L10,5 L0,10 z" fill="#555"/></marker><marker id="am" viewBox="0 0 10 10" refX="8.5" refY="5" markerWidth="9" markerHeight="9" orient="auto-start-reverse"><path d="M0,0 L10,5 L0,10 z" fill="#b8650a"/></marker></defs>
<rect x="20" y="74" width="390" height="116" rx="12" fill="#fff8ef" stroke="#ddd"/>
<text x="32" y="94" font-size="12" font-weight="700" fill="#1d1d1d">one local transaction</text>
<rect x="40" y="104" width="150" height="58" rx="9" fill="#fff8ef" stroke="#e8870c" stroke-width="2"/>
<text x="115.0" y="131.0" font-size="13.5" font-weight="700" fill="#111111" text-anchor="middle">REST handler</text>
<text x="115.0" y="148.0" font-size="11.5" fill="#555555" text-anchor="middle">create(order)</text>
<rect x="236" y="104" width="160" height="58" rx="9" fill="#ffffff" stroke="#111111" stroke-width="2"/>
<text x="316.0" y="131.0" font-size="13.5" font-weight="700" fill="#111111" text-anchor="middle">Postgres</text>
<text x="316.0" y="148.0" font-size="11.5" fill="#555555" text-anchor="middle">orders + outbox</text>
<rect x="452" y="104" width="162" height="58" rx="9" fill="#eef4fb" stroke="#2f6db5" stroke-width="2"/>
<text x="533.0" y="131.0" font-size="13.5" font-weight="700" fill="#111111" text-anchor="middle">Debezium (CDC)</text>
<text x="533.0" y="148.0" font-size="11.5" fill="#555555" text-anchor="middle">tails the WAL</text>
<rect x="668" y="104" width="162" height="58" rx="9" fill="#ffffff" stroke="#111111" stroke-width="2"/>
<text x="749.0" y="131.0" font-size="13.5" font-weight="700" fill="#111111" text-anchor="middle">Kafka topic</text>
<text x="749.0" y="148.0" font-size="11.5" fill="#555555" text-anchor="middle">order.placed</text>
<rect x="668" y="214" width="162" height="52" rx="9" fill="#f4f4f4" stroke="#888888" stroke-width="1.5"/>
<text x="749.0" y="238.0" font-size="13.5" font-weight="700" fill="#111111" text-anchor="middle">consumers</text>
<text x="749.0" y="255.0" font-size="11.5" fill="#555555" text-anchor="middle">(at-least-once)</text>
<path d="M190,133 L236,133" fill="none" stroke="#b8650a" stroke-width="2" marker-end="url(#am)"/>
<text x="219.0" y="127.0" font-size="11" fill="#ffffff" stroke="#ffffff" stroke-width="3" paint-order="stroke" text-anchor="middle">INSERT x2</text>
<text x="219.0" y="127.0" font-size="11" fill="#b8650a" text-anchor="middle">INSERT x2</text>
<path d="M396,133 L452,133" fill="none" stroke="#b8650a" stroke-width="2" marker-end="url(#am)"/>
<text x="430.0" y="127.0" font-size="11" fill="#ffffff" stroke="#ffffff" stroke-width="3" paint-order="stroke" text-anchor="middle">WAL</text>
<text x="430.0" y="127.0" font-size="11" fill="#b8650a" text-anchor="middle">WAL</text>
<path d="M614,133 L668,133" fill="none" stroke="#b8650a" stroke-width="2" marker-end="url(#am)"/>
<text x="647.0" y="127.0" font-size="11" fill="#ffffff" stroke="#ffffff" stroke-width="3" paint-order="stroke" text-anchor="middle">publish</text>
<text x="647.0" y="127.0" font-size="11" fill="#b8650a" text-anchor="middle">publish</text>
<path d="M749,162 L749,214" fill="none" stroke="#555" stroke-width="2" marker-end="url(#a)"/>
<text x="215" y="212" font-size="11" fill="#1d1d1d" text-anchor="middle">broker down? the order still commits - the event ships when CDC catches up</text>
</svg>