<svg xmlns="http://www.w3.org/2000/svg" viewBox="0 0 980 400" font-family="'Red Hat Text', system-ui, sans-serif" role="img">
<defs><marker id="a" viewBox="0 0 10 10" refX="8.5" refY="5" markerWidth="9" markerHeight="9" orient="auto-start-reverse"><path d="M0,0 L10,5 L0,10 z" fill="#555"/></marker><marker id="am" viewBox="0 0 10 10" refX="8.5" refY="5" markerWidth="9" markerHeight="9" orient="auto-start-reverse"><path d="M0,0 L10,5 L0,10 z" fill="#b8650a"/></marker></defs>
<rect x="20" y="50" width="215" height="62" rx="9" fill="#ffffff" stroke="#111111" stroke-width="2"/>
<text x="127.5" y="79.0" font-size="13.5" font-weight="700" fill="#111111" text-anchor="middle">order-service</text>
<text x="127.5" y="96.0" font-size="11.5" fill="#555555" text-anchor="middle">owns its data</text>
<rect x="20" y="175" width="215" height="72" rx="9" fill="#ffffff" stroke="#999999" stroke-width="1.5"/>
<text x="127.5" y="201.5" font-size="13.5" font-weight="700" fill="#111111" text-anchor="middle">PostgreSQL</text>
<text x="127.5" y="218.5" font-size="11.5" fill="#555555" text-anchor="middle">private schema</text>
<text x="127.5" y="233.5" font-size="11.5" fill="#555555" text-anchor="middle">CloudNativePG</text>
<rect x="260" y="50" width="215" height="62" rx="9" fill="#f4f4f4" stroke="#888888" stroke-width="1.5"/>
<text x="367.5" y="79.0" font-size="13.5" font-weight="700" fill="#111111" text-anchor="middle">inventory-service</text>
<text x="367.5" y="96.0" font-size="11.5" fill="#555555" text-anchor="middle">owns its data</text>
<rect x="260" y="175" width="215" height="72" rx="9" fill="#ffffff" stroke="#999999" stroke-width="1.5"/>
<text x="367.5" y="201.5" font-size="13.5" font-weight="700" fill="#111111" text-anchor="middle">PostgreSQL</text>
<text x="367.5" y="218.5" font-size="11.5" fill="#555555" text-anchor="middle">private schema</text>
<text x="367.5" y="233.5" font-size="11.5" fill="#555555" text-anchor="middle">CloudNativePG</text>
<rect x="500" y="50" width="215" height="62" rx="9" fill="#f4f4f4" stroke="#888888" stroke-width="1.5"/>
<text x="607.5" y="79.0" font-size="13.5" font-weight="700" fill="#111111" text-anchor="middle">payment-service</text>
<text x="607.5" y="96.0" font-size="11.5" fill="#555555" text-anchor="middle">owns its data</text>
<rect x="500" y="175" width="215" height="72" rx="9" fill="#ffffff" stroke="#999999" stroke-width="1.5"/>
<text x="607.5" y="201.5" font-size="13.5" font-weight="700" fill="#111111" text-anchor="middle">PostgreSQL</text>
<text x="607.5" y="218.5" font-size="11.5" fill="#555555" text-anchor="middle">private schema</text>
<text x="607.5" y="233.5" font-size="11.5" fill="#555555" text-anchor="middle">CloudNativePG</text>
<rect x="740" y="50" width="215" height="62" rx="9" fill="#fff8ef" stroke="#e8870c" stroke-width="2"/>
<text x="847.5" y="79.0" font-size="13.5" font-weight="700" fill="#111111" text-anchor="middle">shipping-service</text>
<text x="847.5" y="96.0" font-size="11.5" fill="#555555" text-anchor="middle">owns its data</text>
<rect x="740" y="175" width="215" height="72" rx="9" fill="#ffffff" stroke="#999999" stroke-width="1.5"/>
<text x="847.5" y="201.5" font-size="13.5" font-weight="700" fill="#111111" text-anchor="middle">PostgreSQL</text>
<text x="847.5" y="218.5" font-size="11.5" fill="#555555" text-anchor="middle">private schema</text>
<text x="847.5" y="233.5" font-size="11.5" fill="#555555" text-anchor="middle">CloudNativePG</text>
<rect x="20" y="280" width="935" height="52" rx="9" fill="#fff8ef" stroke="#e8870c" stroke-width="2"/>
<text x="487.5" y="311.5" font-size="13.5" font-weight="700" fill="#111111" text-anchor="middle">polyglot persistence — pick the store per workload (relational · KV · search · object)</text>
<path d="M127,112 L127,175" fill="none" stroke="#555" stroke-width="2" marker-end="url(#a)"/>
<path d="M367,112 L367,175" fill="none" stroke="#555" stroke-width="2" marker-end="url(#a)"/>
<path d="M607,112 L607,175" fill="none" stroke="#555" stroke-width="2" marker-end="url(#a)"/>
<path d="M847,112 L847,175" fill="none" stroke="#555" stroke-width="2" marker-end="url(#a)"/>
<text x="490" y="362" font-size="12" fill="#2f6db5" text-anchor="middle">sharing a database couples deploys and schemas — the most common way a &#x27;microservice&#x27; system quietly fails</text>
</svg>