<svg xmlns="http://www.w3.org/2000/svg" viewBox="0 0 1160 380" font-family="'Red Hat Text', system-ui, sans-serif" role="img">
<defs><marker id="a" viewBox="0 0 10 10" refX="8.5" refY="5" markerWidth="9" markerHeight="9" orient="auto-start-reverse"><path d="M0,0 L10,5 L0,10 z" fill="#555"/></marker><marker id="am" viewBox="0 0 10 10" refX="8.5" refY="5" markerWidth="9" markerHeight="9" orient="auto-start-reverse"><path d="M0,0 L10,5 L0,10 z" fill="#b8650a"/></marker></defs>
<rect x="250" y="70" width="300" height="210" rx="12" fill="#f3f3f3" stroke="#ddd"/>
<text x="262" y="90" font-size="12" font-weight="700" fill="#1d1d1d">Database (Postgres / MySQL / SQL Server)</text>
<rect x="20" y="120" width="175" height="95" rx="9" fill="#ffffff" stroke="#111111" stroke-width="2"/>
<text x="107.5" y="158.0" font-size="13.5" font-weight="700" fill="#111111" text-anchor="middle">Application</text>
<text x="107.5" y="175.0" font-size="11.5" fill="#555555" text-anchor="middle">INSERT / UPDATE</text>
<text x="107.5" y="190.0" font-size="11.5" fill="#555555" text-anchor="middle">ordinary SQL</text>
<rect x="280" y="110" width="240" height="60" rx="9" fill="#ffffff" stroke="#999999" stroke-width="1.5"/>
<text x="400.0" y="145.5" font-size="13.5" font-weight="700" fill="#111111" text-anchor="middle">Tables / rows</text>
<rect x="280" y="195" width="240" height="68" rx="9" fill="#fff8ef" stroke="#e8870c" stroke-width="2"/>
<text x="400.0" y="227.0" font-size="13.5" font-weight="700" fill="#111111" text-anchor="middle">Write-ahead log (WAL)</text>
<text x="400.0" y="244.0" font-size="11.5" fill="#555555" text-anchor="middle">commit-ordered, durable</text>
<rect x="620" y="130" width="215" height="120" rx="9" fill="#f4f4f4" stroke="#888888" stroke-width="1.5"/>
<text x="727.5" y="173.0" font-size="13.5" font-weight="700" fill="#111111" text-anchor="middle">Debezium connector</text>
<text x="727.5" y="190.0" font-size="11.5" fill="#555555" text-anchor="middle">tails the WAL</text>
<text x="727.5" y="205.0" font-size="11.5" fill="#555555" text-anchor="middle">(logical replication slot)</text>
<text x="727.5" y="220.0" font-size="11.5" fill="#555555" text-anchor="middle">row deltas → events</text>
<rect x="905" y="80" width="230" height="54" rx="9" fill="#fff8ef" stroke="#e8870c" stroke-width="2"/>
<text x="1020.0" y="112.5" font-size="13.5" font-weight="700" fill="#111111" text-anchor="middle">Kafka · orders.public</text>
<rect x="905" y="160" width="230" height="54" rx="9" fill="#fff8ef" stroke="#e8870c" stroke-width="2"/>
<text x="1020.0" y="192.5" font-size="13.5" font-weight="700" fill="#111111" text-anchor="middle">Kafka · orders.outbox</text>
<rect x="905" y="240" width="230" height="54" rx="9" fill="#fff8ef" stroke="#e8870c" stroke-width="2"/>
<text x="1020.0" y="272.5" font-size="13.5" font-weight="700" fill="#111111" text-anchor="middle">Kafka · …</text>
<path d="M195,165 L280,140" fill="none" stroke="#555" stroke-width="2" marker-end="url(#a)"/>
<path d="M400,170 L400,195" fill="none" stroke="#555" stroke-width="2" marker-end="url(#a)"/>
<text x="406.0" y="178.5" font-size="11" fill="#ffffff" stroke="#ffffff" stroke-width="3" paint-order="stroke" text-anchor="middle">commit</text>
<text x="406.0" y="178.5" font-size="11" fill="#555" text-anchor="middle">commit</text>
<path d="M520,228 L620,190" fill="none" stroke="#555" stroke-width="2" marker-end="url(#a)"/>
<text x="576.0" y="201.0" font-size="11" fill="#ffffff" stroke="#ffffff" stroke-width="3" paint-order="stroke" text-anchor="middle">tail</text>
<text x="576.0" y="201.0" font-size="11" fill="#555" text-anchor="middle">tail</text>
<path d="M835,175 L905,107" fill="none" stroke="#555" stroke-width="2" marker-end="url(#a)"/>
<path d="M835,190 L905,187" fill="none" stroke="#555" stroke-width="2" marker-end="url(#a)"/>
<path d="M835,205 L905,267" fill="none" stroke="#555" stroke-width="2" marker-end="url(#a)"/>
<text x="580" y="320" font-size="12" fill="#2f6db5" text-anchor="middle">app writes ordinary SQL; the commit is the only truth and every downstream event is a consequence of it</text>
<text x="580" y="344" font-size="11" fill="#8a4b06" text-anchor="middle">no dual-write, no app-side broker call · Debezium runs as a Kafka Connect connector (Apache 2.0)</text>
</svg>