<svg xmlns="http://www.w3.org/2000/svg" viewBox="0 0 1140 430" font-family="'Red Hat Text', system-ui, sans-serif" role="img">
<defs><marker id="a" viewBox="0 0 10 10" refX="8.5" refY="5" markerWidth="9" markerHeight="9" orient="auto-start-reverse"><path d="M0,0 L10,5 L0,10 z" fill="#555"/></marker><marker id="am" viewBox="0 0 10 10" refX="8.5" refY="5" markerWidth="9" markerHeight="9" orient="auto-start-reverse"><path d="M0,0 L10,5 L0,10 z" fill="#b8650a"/></marker></defs>
<rect x="40" y="70" width="230" height="88" rx="9" fill="#ffffff" stroke="#111111" stroke-width="2"/>
<text x="155.0" y="112.0" font-size="13.5" font-weight="700" fill="#111111" text-anchor="middle">order-service</text>
<text x="155.0" y="129.0" font-size="11.5" fill="#555555" text-anchor="middle">order created</text>
<rect x="310" y="70" width="230" height="88" rx="9" fill="#f4f4f4" stroke="#888888" stroke-width="1.5"/>
<text x="425.0" y="112.0" font-size="13.5" font-weight="700" fill="#111111" text-anchor="middle">payment-service</text>
<text x="425.0" y="129.0" font-size="11.5" fill="#555555" text-anchor="middle">payment taken</text>
<rect x="580" y="70" width="230" height="88" rx="9" fill="#f4f4f4" stroke="#888888" stroke-width="1.5"/>
<text x="695.0" y="112.0" font-size="13.5" font-weight="700" fill="#111111" text-anchor="middle">inventory-service</text>
<text x="695.0" y="129.0" font-size="11.5" fill="#555555" text-anchor="middle">stock reserved</text>
<rect x="850" y="70" width="230" height="88" rx="9" fill="#fff8ef" stroke="#e8870c" stroke-width="2"/>
<text x="965.0" y="112.0" font-size="13.5" font-weight="700" fill="#111111" text-anchor="middle">shipping-service</text>
<text x="965.0" y="129.0" font-size="11.5" fill="#555555" text-anchor="middle">shipment booked</text>
<rect x="310" y="290" width="230" height="80" rx="9" fill="#ffffff" stroke="#111111" stroke-width="2"/>
<text x="425.0" y="328.0" font-size="13.5" font-weight="700" fill="#111111" text-anchor="middle">payment fails</text>
<text x="425.0" y="345.0" font-size="11.5" fill="#555555" text-anchor="middle">emit order.cancelled</text>
<rect x="40" y="290" width="230" height="80" rx="9" fill="#ffffff" stroke="#999999" stroke-width="1.5"/>
<text x="155.0" y="328.0" font-size="13.5" font-weight="700" fill="#111111" text-anchor="middle">order-service</text>
<text x="155.0" y="345.0" font-size="11.5" fill="#555555" text-anchor="middle">compensate: cancel</text>
<path d="M270,114 L310,114" fill="none" stroke="#b8650a" stroke-width="2" marker-end="url(#am)"/>
<path d="M540,114 L580,114" fill="none" stroke="#b8650a" stroke-width="2" marker-end="url(#am)"/>
<path d="M810,114 L850,114" fill="none" stroke="#b8650a" stroke-width="2" marker-end="url(#am)"/>
<path d="M425,158 L425,290" fill="none" stroke="#555" stroke-width="2" stroke-dasharray="5 4" marker-end="url(#a)"/>
<path d="M310,330 L270,330" fill="none" stroke="#555" stroke-width="2" marker-end="url(#a)"/>
<text x="620" y="210" font-size="12" fill="#8a4b06" text-anchor="middle">happy path — each local commit emits the event that triggers the next step</text>
<text x="570" y="405" font-size="12" fill="#2f6db5" text-anchor="middle">no two-phase commit across services; a failure triggers compensating actions, not rollbacks — sagas go deep in Appendix D</text>
</svg>