<svg xmlns="http://www.w3.org/2000/svg" viewBox="0 0 760 320" font-family="'Red Hat Text', system-ui, sans-serif" role="img">
<defs><marker id="a" viewBox="0 0 10 10" refX="8.5" refY="5" markerWidth="9" markerHeight="9" orient="auto-start-reverse"><path d="M0,0 L10,5 L0,10 z" fill="#555"/></marker><marker id="am" viewBox="0 0 10 10" refX="8.5" refY="5" markerWidth="9" markerHeight="9" orient="auto-start-reverse"><path d="M0,0 L10,5 L0,10 z" fill="#b8650a"/></marker></defs>
<rect x="20" y="132" width="120" height="56" rx="9" fill="#eef4fb" stroke="#2f6db5" stroke-width="2"/>
<text x="80.0" y="158.0" font-size="13.5" font-weight="700" fill="#111111" text-anchor="middle">Producer</text>
<text x="80.0" y="175.0" font-size="11.5" fill="#555555" text-anchor="middle">routing key</text>
<rect x="180" y="120" width="150" height="78" rx="9" fill="#fff8ef" stroke="#e8870c" stroke-width="2"/>
<text x="255.0" y="157.0" font-size="13.5" font-weight="700" fill="#111111" text-anchor="middle">Exchange</text>
<text x="255.0" y="174.0" font-size="11.5" fill="#555555" text-anchor="middle">direct / topic / fanout</text>
<rect x="380" y="70" width="150" height="50" rx="9" fill="#ffffff" stroke="#111111" stroke-width="2"/>
<text x="455.0" y="93.0" font-size="13.5" font-weight="700" fill="#111111" text-anchor="middle">queue: orders</text>
<text x="455.0" y="110.0" font-size="11.5" fill="#555555" text-anchor="middle">bound by key</text>
<rect x="380" y="146" width="150" height="50" rx="9" fill="#ffffff" stroke="#111111" stroke-width="2"/>
<text x="455.0" y="169.0" font-size="13.5" font-weight="700" fill="#111111" text-anchor="middle">queue: audit</text>
<text x="455.0" y="186.0" font-size="11.5" fill="#555555" text-anchor="middle">bound by pattern</text>
<rect x="380" y="228" width="150" height="50" rx="9" fill="#ffffff" stroke="#999999" stroke-width="1.5" stroke-dasharray="6 4"/>
<text x="455.0" y="251.0" font-size="13.5" font-weight="700" fill="#111111" text-anchor="middle">dead-letter queue</text>
<text x="455.0" y="268.0" font-size="11.5" fill="#555555" text-anchor="middle">nack · TTL · overflow</text>
<rect x="580" y="70" width="150" height="50" rx="9" fill="#ffffff" stroke="#111111" stroke-width="2"/>
<text x="655.0" y="93.0" font-size="13.5" font-weight="700" fill="#111111" text-anchor="middle">consumer(s)</text>
<text x="655.0" y="110.0" font-size="11.5" fill="#555555" text-anchor="middle">ack → removed</text>
<rect x="580" y="146" width="150" height="50" rx="9" fill="#ffffff" stroke="#111111" stroke-width="2"/>
<text x="655.0" y="169.0" font-size="13.5" font-weight="700" fill="#111111" text-anchor="middle">consumer(s)</text>
<text x="655.0" y="186.0" font-size="11.5" fill="#555555" text-anchor="middle">ack → removed</text>
<path d="M140,160 L180,160" fill="none" stroke="#555" stroke-width="2" marker-end="url(#a)"/>
<text x="166.0" y="153.0" font-size="11" fill="#ffffff" stroke="#ffffff" stroke-width="3" paint-order="stroke" text-anchor="middle">publish</text>
<text x="166.0" y="153.0" font-size="11" fill="#555" text-anchor="middle">publish</text>
<path d="M330,150 L380,98" fill="none" stroke="#555" stroke-width="2" marker-end="url(#a)"/>
<text x="361.0" y="118.0" font-size="11" fill="#ffffff" stroke="#ffffff" stroke-width="3" paint-order="stroke" text-anchor="middle">binding</text>
<text x="361.0" y="118.0" font-size="11" fill="#555" text-anchor="middle">binding</text>
<path d="M330,168 L380,171" fill="none" stroke="#555" stroke-width="2" marker-end="url(#a)"/>
<text x="361.0" y="181.5" font-size="11" fill="#ffffff" stroke="#ffffff" stroke-width="3" paint-order="stroke" text-anchor="middle">binding</text>
<text x="361.0" y="181.5" font-size="11" fill="#555" text-anchor="middle">binding</text>
<path d="M530,95 L580,95" fill="none" stroke="#555" stroke-width="2" marker-end="url(#a)"/>
<text x="561.0" y="89.0" font-size="11" fill="#ffffff" stroke="#ffffff" stroke-width="3" paint-order="stroke" text-anchor="middle">deliver</text>
<text x="561.0" y="89.0" font-size="11" fill="#555" text-anchor="middle">deliver</text>
<path d="M530,171 L580,171" fill="none" stroke="#555" stroke-width="2" marker-end="url(#a)"/>
<text x="561.0" y="165.0" font-size="11" fill="#ffffff" stroke="#ffffff" stroke-width="3" paint-order="stroke" text-anchor="middle">deliver</text>
<text x="561.0" y="165.0" font-size="11" fill="#555" text-anchor="middle">deliver</text>
<path d="M455,196 L455,228" fill="none" stroke="#555" stroke-width="2" stroke-dasharray="5 4" marker-end="url(#a)"/>
<text x="489.0" y="214.0" font-size="11" fill="#ffffff" stroke="#ffffff" stroke-width="3" paint-order="stroke" text-anchor="middle">nack / expire</text>
<text x="489.0" y="214.0" font-size="11" fill="#555" text-anchor="middle">nack / expire</text>
<text x="380" y="304" font-size="10.5" fill="#777" text-anchor="middle">routing lives in the exchange; an acked message is removed (no replay) — excels at work distribution, RPC, and rich routing</text>
</svg>