<svg xmlns="http://www.w3.org/2000/svg" viewBox="0 0 760 250" font-family="'Red Hat Text', system-ui, sans-serif" role="img">
<defs><marker id="a" viewBox="0 0 10 10" refX="8.5" refY="5" markerWidth="9" markerHeight="9" orient="auto-start-reverse"><path d="M0,0 L10,5 L0,10 z" fill="#555"/></marker><marker id="am" viewBox="0 0 10 10" refX="8.5" refY="5" markerWidth="9" markerHeight="9" orient="auto-start-reverse"><path d="M0,0 L10,5 L0,10 z" fill="#b8650a"/></marker></defs>
<rect x="20" y="66" width="120" height="54" rx="9" fill="#eef4fb" stroke="#2f6db5" stroke-width="2"/>
<text x="80.0" y="98.5" font-size="13.5" font-weight="700" fill="#111111" text-anchor="middle">client / writer</text>
<rect x="182" y="66" width="150" height="54" rx="9" fill="#ffffff" stroke="#111111" stroke-width="2"/>
<text x="257.0" y="91.0" font-size="13.5" font-weight="700" fill="#111111" text-anchor="middle">source of truth</text>
<text x="257.0" y="108.0" font-size="11.5" fill="#555555" text-anchor="middle">write commits</text>
<rect x="374" y="66" width="104" height="54" rx="9" fill="#ffffff" stroke="#111111" stroke-width="2"/>
<text x="426.0" y="98.5" font-size="13.5" font-weight="700" fill="#111111" text-anchor="middle">event</text>
<rect x="520" y="66" width="196" height="54" rx="9" fill="#fff8ef" stroke="#e8870c" stroke-width="2"/>
<text x="618.0" y="91.0" font-size="13.5" font-weight="700" fill="#111111" text-anchor="middle">read model / view</text>
<text x="618.0" y="108.0" font-size="11.5" fill="#555555" text-anchor="middle">applies after Δt</text>
<rect x="520" y="162" width="196" height="48" rx="9" fill="#ffffff" stroke="#999999" stroke-width="1.5" stroke-dasharray="6 4"/>
<text x="618.0" y="184.0" font-size="13.5" font-weight="700" fill="#111111" text-anchor="middle">a read during Δt</text>
<text x="618.0" y="201.0" font-size="11.5" fill="#555555" text-anchor="middle">may be stale</text>
<path d="M140,93 L182,93" fill="none" stroke="#555" stroke-width="2" marker-end="url(#a)"/>
<text x="167.0" y="86.0" font-size="11" fill="#ffffff" stroke="#ffffff" stroke-width="3" paint-order="stroke" text-anchor="middle">write</text>
<text x="167.0" y="86.0" font-size="11" fill="#555" text-anchor="middle">write</text>
<path d="M332,93 L374,93" fill="none" stroke="#555" stroke-width="2" marker-end="url(#a)"/>
<text x="359.0" y="86.0" font-size="11" fill="#ffffff" stroke="#ffffff" stroke-width="3" paint-order="stroke" text-anchor="middle">emit</text>
<text x="359.0" y="86.0" font-size="11" fill="#555" text-anchor="middle">emit</text>
<path d="M478,93 L520,93" fill="none" stroke="#b8650a" stroke-width="2" marker-end="url(#am)"/>
<text x="505.0" y="86.0" font-size="11" fill="#ffffff" stroke="#ffffff" stroke-width="3" paint-order="stroke" text-anchor="middle">apply (Δt)</text>
<text x="505.0" y="86.0" font-size="11" fill="#b8650a" text-anchor="middle">apply (Δt)</text>
<path d="M618,120 L618,162" fill="none" stroke="#555" stroke-width="2" stroke-dasharray="5 4" marker-end="url(#a)"/>
<text x="640.0" y="143.0" font-size="11" fill="#ffffff" stroke="#ffffff" stroke-width="3" paint-order="stroke" text-anchor="middle">read</text>
<text x="640.0" y="143.0" font-size="11" fill="#555" text-anchor="middle">read</text>
<text x="380" y="236" font-size="10" fill="#1d1d1d" text-anchor="middle" font-weight="700">read-your-writes: route a writer&#x27;s own reads to the source, or wait until the read model reaches the write&#x27;s version</text>
</svg>