<svg xmlns="http://www.w3.org/2000/svg" viewBox="0 0 760 360" font-family="'Red Hat Text', system-ui, sans-serif" role="img">
<defs><marker id="a" viewBox="0 0 10 10" refX="8.5" refY="5" markerWidth="9" markerHeight="9" orient="auto-start-reverse"><path d="M0,0 L10,5 L0,10 z" fill="#555"/></marker><marker id="am" viewBox="0 0 10 10" refX="8.5" refY="5" markerWidth="9" markerHeight="9" orient="auto-start-reverse"><path d="M0,0 L10,5 L0,10 z" fill="#b8650a"/></marker></defs>
<rect x="20" y="44" width="720" height="120" rx="12" fill="#eef4fb" stroke="#ddd"/>
<text x="32" y="64" font-size="12" font-weight="700" fill="#1d1d1d">Choreography — each service reacts to the last event, no coordinator</text>
<rect x="20" y="184" width="720" height="152" rx="12" fill="#fff8ef" stroke="#ddd"/>
<text x="32" y="204" font-size="12" font-weight="700" fill="#1d1d1d">Orchestration — a central coordinator issues commands and tracks replies</text>
<rect x="36" y="92" width="132" height="48" rx="9" fill="#ffffff" stroke="#111111" stroke-width="2"/>
<text x="102.0" y="121.5" font-size="13.5" font-weight="700" fill="#111111" text-anchor="middle">order-service</text>
<rect x="224" y="92" width="132" height="48" rx="9" fill="#ffffff" stroke="#111111" stroke-width="2"/>
<text x="290.0" y="121.5" font-size="13.5" font-weight="700" fill="#111111" text-anchor="middle">payment-service</text>
<rect x="412" y="92" width="132" height="48" rx="9" fill="#ffffff" stroke="#111111" stroke-width="2"/>
<text x="478.0" y="121.5" font-size="13.5" font-weight="700" fill="#111111" text-anchor="middle">inventory-service</text>
<rect x="600" y="92" width="132" height="48" rx="9" fill="#ffffff" stroke="#111111" stroke-width="2"/>
<text x="666.0" y="121.5" font-size="13.5" font-weight="700" fill="#111111" text-anchor="middle">shipping-service</text>
<rect x="52" y="232" width="160" height="72" rx="9" fill="#fff8ef" stroke="#e8870c" stroke-width="2"/>
<text x="132.0" y="266.0" font-size="13.5" font-weight="700" fill="#111111" text-anchor="middle">orchestrator</text>
<text x="132.0" y="283.0" font-size="11.5" fill="#555555" text-anchor="middle">drives the workflow</text>
<rect x="348" y="200" width="150" height="38" rx="9" fill="#ffffff" stroke="#111111" stroke-width="2"/>
<text x="423.0" y="224.5" font-size="13.5" font-weight="700" fill="#111111" text-anchor="middle">payment</text>
<rect x="348" y="250" width="150" height="38" rx="9" fill="#ffffff" stroke="#111111" stroke-width="2"/>
<text x="423.0" y="274.5" font-size="13.5" font-weight="700" fill="#111111" text-anchor="middle">inventory</text>
<rect x="348" y="300" width="150" height="38" rx="9" fill="#ffffff" stroke="#111111" stroke-width="2"/>
<text x="423.0" y="324.5" font-size="13.5" font-weight="700" fill="#111111" text-anchor="middle">shipping</text>
<path d="M168,116 L224,116" fill="none" stroke="#b8650a" stroke-width="2" marker-end="url(#am)"/>
<text x="202.0" y="109.0" font-size="11" fill="#ffffff" stroke="#ffffff" stroke-width="3" paint-order="stroke" text-anchor="middle">OrderPlaced</text>
<text x="202.0" y="109.0" font-size="11" fill="#b8650a" text-anchor="middle">OrderPlaced</text>
<path d="M356,116 L412,116" fill="none" stroke="#b8650a" stroke-width="2" marker-end="url(#am)"/>
<text x="390.0" y="109.0" font-size="11" fill="#ffffff" stroke="#ffffff" stroke-width="3" paint-order="stroke" text-anchor="middle">PaymentTaken</text>
<text x="390.0" y="109.0" font-size="11" fill="#b8650a" text-anchor="middle">PaymentTaken</text>
<path d="M544,116 L600,116" fill="none" stroke="#b8650a" stroke-width="2" marker-end="url(#am)"/>
<text x="578.0" y="109.0" font-size="11" fill="#ffffff" stroke="#ffffff" stroke-width="3" paint-order="stroke" text-anchor="middle">StockReserved</text>
<text x="578.0" y="109.0" font-size="11" fill="#b8650a" text-anchor="middle">StockReserved</text>
<path d="M212,250 L348,219" fill="none" stroke="#555" stroke-width="2" marker-start="url(#a)" marker-end="url(#a)"/>
<text x="286.0" y="227.5" font-size="11" fill="#ffffff" stroke="#ffffff" stroke-width="3" paint-order="stroke" text-anchor="middle">command / reply</text>
<text x="286.0" y="227.5" font-size="11" fill="#555" text-anchor="middle">command / reply</text>
<path d="M212,268 L348,269" fill="none" stroke="#555" stroke-width="2" marker-start="url(#a)" marker-end="url(#a)"/>
<path d="M212,286 L348,319" fill="none" stroke="#555" stroke-width="2" marker-start="url(#a)" marker-end="url(#a)"/>
<text x="380" y="352" font-size="10" fill="#777" text-anchor="middle">choreography: flow is emergent and decoupled · orchestration: flow is explicit but the coordinator is a coupling point</text>
</svg>