<svg xmlns="http://www.w3.org/2000/svg" viewBox="0 0 840 320" font-family="'Red Hat Text', system-ui, sans-serif" role="img">
<defs><marker id="a" viewBox="0 0 10 10" refX="8.5" refY="5" markerWidth="9" markerHeight="9" orient="auto-start-reverse"><path d="M0,0 L10,5 L0,10 z" fill="#555"/></marker><marker id="am" viewBox="0 0 10 10" refX="8.5" refY="5" markerWidth="9" markerHeight="9" orient="auto-start-reverse"><path d="M0,0 L10,5 L0,10 z" fill="#b8650a"/></marker></defs>
<rect x="40" y="128" width="160" height="60" rx="9" fill="#fff8ef" stroke="#e8870c" stroke-width="2"/>
<text x="120.0" y="156.0" font-size="13.5" font-weight="700" fill="#111111" text-anchor="middle">order-service</text>
<text x="120.0" y="173.0" font-size="11.5" fill="#555555" text-anchor="middle">emits order.placed</text>
<rect x="260" y="126" width="160" height="64" rx="9" fill="#eef4fb" stroke="#2f6db5" stroke-width="2"/>
<text x="340.0" y="156.0" font-size="13.5" font-weight="700" fill="#111111" text-anchor="middle">Kafka topic</text>
<text x="340.0" y="173.0" font-size="11.5" fill="#555555" text-anchor="middle">order.placed</text>
<rect x="500" y="36" width="150" height="46" rx="9" fill="#ffffff" stroke="#111111" stroke-width="2"/>
<text x="575.0" y="64.5" font-size="13.5" font-weight="700" fill="#111111" text-anchor="middle">payment</text>
<rect x="500" y="96" width="150" height="46" rx="9" fill="#ffffff" stroke="#111111" stroke-width="2"/>
<text x="575.0" y="124.5" font-size="13.5" font-weight="700" fill="#111111" text-anchor="middle">shipping</text>
<rect x="500" y="156" width="150" height="46" rx="9" fill="#ffffff" stroke="#111111" stroke-width="2"/>
<text x="575.0" y="184.5" font-size="13.5" font-weight="700" fill="#111111" text-anchor="middle">notification</text>
<rect x="500" y="222" width="190" height="46" rx="9" fill="#ffffff" stroke="#999999" stroke-width="1.5" stroke-dasharray="6 4"/>
<text x="595.0" y="250.5" font-size="13.5" font-weight="700" fill="#111111" text-anchor="middle">fraud-check (added later)</text>
<path d="M200,158 L260,158" fill="none" stroke="#b8650a" stroke-width="2" marker-end="url(#am)"/>
<text x="236.0" y="152.0" font-size="11" fill="#ffffff" stroke="#ffffff" stroke-width="3" paint-order="stroke" text-anchor="middle">emit</text>
<text x="236.0" y="152.0" font-size="11" fill="#b8650a" text-anchor="middle">emit</text>
<path d="M420,150 L500,59" fill="none" stroke="#b8650a" stroke-width="2" marker-end="url(#am)"/>
<path d="M420,156 L500,119" fill="none" stroke="#b8650a" stroke-width="2" marker-end="url(#am)"/>
<path d="M420,162 L500,179" fill="none" stroke="#b8650a" stroke-width="2" marker-end="url(#am)"/>
<path d="M420,170 L500,245" fill="none" stroke="#555" stroke-width="2" marker-end="url(#a)"/>
<text x="350" y="292" font-size="11" fill="#1d1d1d" text-anchor="middle">the producer names none of them — add a consumer without redeploying it</text>
</svg>