<svg xmlns="http://www.w3.org/2000/svg" viewBox="0 0 760 340" font-family="'Red Hat Text', system-ui, sans-serif" role="img">
<defs><marker id="a" viewBox="0 0 10 10" refX="8.5" refY="5" markerWidth="9" markerHeight="9" orient="auto-start-reverse"><path d="M0,0 L10,5 L0,10 z" fill="#555"/></marker><marker id="am" viewBox="0 0 10 10" refX="8.5" refY="5" markerWidth="9" markerHeight="9" orient="auto-start-reverse"><path d="M0,0 L10,5 L0,10 z" fill="#b8650a"/></marker></defs>
<rect x="20" y="46" width="720" height="118" rx="12" fill="#fafafa" stroke="#ddd"/>
<text x="32" y="66" font-size="12" font-weight="700" fill="#1d1d1d">Event notification — thin event, the consumer must call back</text>
<rect x="20" y="186" width="720" height="118" rx="12" fill="#fff8ef" stroke="#ddd"/>
<text x="32" y="206" font-size="12" font-weight="700" fill="#1d1d1d">Event-carried state transfer — fat event, a local view</text>
<rect x="44" y="90" width="120" height="52" rx="9" fill="#ffffff" stroke="#111111" stroke-width="2"/>
<text x="104.0" y="121.5" font-size="13.5" font-weight="700" fill="#111111" text-anchor="middle">source service</text>
<rect x="322" y="90" width="130" height="52" rx="9" fill="#eef4fb" stroke="#2f6db5" stroke-width="2"/>
<text x="387.0" y="121.5" font-size="13.5" font-weight="700" fill="#111111" text-anchor="middle">consumer</text>
<rect x="578" y="90" width="138" height="52" rx="9" fill="#ffffff" stroke="#999999" stroke-width="1.5" stroke-dasharray="6 4"/>
<text x="647.0" y="114.0" font-size="13.5" font-weight="700" fill="#111111" text-anchor="middle">source API</text>
<text x="647.0" y="131.0" font-size="11.5" fill="#555555" text-anchor="middle">synchronous</text>
<rect x="44" y="230" width="120" height="52" rx="9" fill="#ffffff" stroke="#111111" stroke-width="2"/>
<text x="104.0" y="261.5" font-size="13.5" font-weight="700" fill="#111111" text-anchor="middle">source service</text>
<rect x="322" y="230" width="130" height="52" rx="9" fill="#eef4fb" stroke="#2f6db5" stroke-width="2"/>
<text x="387.0" y="261.5" font-size="13.5" font-weight="700" fill="#111111" text-anchor="middle">consumer</text>
<rect x="578" y="230" width="138" height="52" rx="9" fill="#fff8ef" stroke="#e8870c" stroke-width="2"/>
<text x="647.0" y="254.0" font-size="13.5" font-weight="700" fill="#111111" text-anchor="middle">local view</text>
<text x="647.0" y="271.0" font-size="11.5" fill="#555555" text-anchor="middle">upsert</text>
<path d="M164,116 L322,116" fill="none" stroke="#555" stroke-width="2" marker-end="url(#a)"/>
<text x="249.0" y="108.0" font-size="11" fill="#ffffff" stroke="#ffffff" stroke-width="3" paint-order="stroke" text-anchor="middle">OrderPlaced { id }</text>
<text x="249.0" y="108.0" font-size="11" fill="#555" text-anchor="middle">OrderPlaced { id }</text>
<path d="M452,116 L578,116" fill="none" stroke="#555" stroke-width="2" stroke-dasharray="5 4" marker-end="url(#a)"/>
<text x="521.0" y="108.0" font-size="11" fill="#ffffff" stroke="#ffffff" stroke-width="3" paint-order="stroke" text-anchor="middle">GET /orders/{id}</text>
<text x="521.0" y="108.0" font-size="11" fill="#555" text-anchor="middle">GET /orders/{id}</text>
<path d="M164,256 L322,256" fill="none" stroke="#555" stroke-width="2" marker-end="url(#a)"/>
<text x="249.0" y="248.0" font-size="11" fill="#ffffff" stroke="#ffffff" stroke-width="3" paint-order="stroke" text-anchor="middle">OrderPlaced { full state }</text>
<text x="249.0" y="248.0" font-size="11" fill="#555" text-anchor="middle">OrderPlaced { full state }</text>
<path d="M452,256 L578,256" fill="none" stroke="#b8650a" stroke-width="2" marker-end="url(#am)"/>
<text x="521.0" y="248.0" font-size="11" fill="#ffffff" stroke="#ffffff" stroke-width="3" paint-order="stroke" text-anchor="middle">fold → upsert</text>
<text x="521.0" y="248.0" font-size="11" fill="#b8650a" text-anchor="middle">fold → upsert</text>
<text x="380" y="326" font-size="10.5" fill="#1d1d1d" text-anchor="middle" font-weight="700">carry enough state and the consumer never calls back — reads go local and the source decouples</text>
</svg>