<svg xmlns="http://www.w3.org/2000/svg" viewBox="0 0 760 300" font-family="'Red Hat Text', system-ui, sans-serif" role="img">
<defs><marker id="a" viewBox="0 0 10 10" refX="8.5" refY="5" markerWidth="9" markerHeight="9" orient="auto-start-reverse"><path d="M0,0 L10,5 L0,10 z" fill="#555"/></marker><marker id="am" viewBox="0 0 10 10" refX="8.5" refY="5" markerWidth="9" markerHeight="9" orient="auto-start-reverse"><path d="M0,0 L10,5 L0,10 z" fill="#b8650a"/></marker></defs>
<rect x="176" y="58" width="412" height="206" rx="12" fill="#fff8ef" stroke="#ddd"/>
<text x="188" y="78" font-size="12" font-weight="700" fill="#1d1d1d">Event-driven microservice</text>
<rect x="18" y="108" width="124" height="58" rx="9" fill="#ffffff" stroke="#111111" stroke-width="2"/>
<text x="80.0" y="135.0" font-size="13.5" font-weight="700" fill="#111111" text-anchor="middle">input stream</text>
<text x="80.0" y="152.0" font-size="11.5" fill="#555555" text-anchor="middle">order.placed</text>
<rect x="194" y="104" width="110" height="50" rx="9" fill="#ffffff" stroke="#111111" stroke-width="2"/>
<text x="249.0" y="127.0" font-size="13.5" font-weight="700" fill="#111111" text-anchor="middle">consume</text>
<text x="249.0" y="144.0" font-size="11.5" fill="#555555" text-anchor="middle">poll · deserialize</text>
<rect x="326" y="104" width="110" height="50" rx="9" fill="#fff8ef" stroke="#e8870c" stroke-width="2"/>
<text x="381.0" y="127.0" font-size="13.5" font-weight="700" fill="#111111" text-anchor="middle">process</text>
<text x="381.0" y="144.0" font-size="11.5" fill="#555555" text-anchor="middle">map · aggregate</text>
<rect x="458" y="104" width="110" height="50" rx="9" fill="#ffffff" stroke="#111111" stroke-width="2"/>
<text x="513.0" y="127.0" font-size="13.5" font-weight="700" fill="#111111" text-anchor="middle">produce</text>
<text x="513.0" y="144.0" font-size="11.5" fill="#555555" text-anchor="middle">serialize · send</text>
<rect x="326" y="188" width="130" height="48" rx="9" fill="#ffffff" stroke="#999999" stroke-width="1.5" stroke-dasharray="6 4"/>
<text x="391.0" y="210.0" font-size="13.5" font-weight="700" fill="#111111" text-anchor="middle">state store</text>
<text x="391.0" y="227.0" font-size="11.5" fill="#555555" text-anchor="middle">stateful only</text>
<rect x="620" y="108" width="124" height="58" rx="9" fill="#ffffff" stroke="#111111" stroke-width="2"/>
<text x="682.0" y="135.0" font-size="13.5" font-weight="700" fill="#111111" text-anchor="middle">output stream</text>
<text x="682.0" y="152.0" font-size="11.5" fill="#555555" text-anchor="middle">order.validated</text>
<path d="M142,137 L194,129" fill="none" stroke="#555" stroke-width="2" marker-end="url(#a)"/>
<text x="174.0" y="127.0" font-size="11" fill="#ffffff" stroke="#ffffff" stroke-width="3" paint-order="stroke" text-anchor="middle">in</text>
<text x="174.0" y="127.0" font-size="11" fill="#555" text-anchor="middle">in</text>
<path d="M304,129 L326,129" fill="none" stroke="#555" stroke-width="2" marker-end="url(#a)"/>
<path d="M436,129 L458,129" fill="none" stroke="#555" stroke-width="2" marker-end="url(#a)"/>
<path d="M568,129 L620,137" fill="none" stroke="#555" stroke-width="2" marker-end="url(#a)"/>
<text x="600.0" y="127.0" font-size="11" fill="#ffffff" stroke="#ffffff" stroke-width="3" paint-order="stroke" text-anchor="middle">out</text>
<text x="600.0" y="127.0" font-size="11" fill="#555" text-anchor="middle">out</text>
<path d="M381,154 L381,188" fill="none" stroke="#555" stroke-width="2" stroke-dasharray="5 4" marker-start="url(#a)" marker-end="url(#a)"/>
<text x="417.0" y="173.0" font-size="11" fill="#ffffff" stroke="#ffffff" stroke-width="3" paint-order="stroke" text-anchor="middle">read/write</text>
<text x="417.0" y="173.0" font-size="11" fill="#555" text-anchor="middle">read/write</text>
<text x="380" y="288" font-size="10.5" fill="#777" text-anchor="middle">consume → process → produce; the broker is the data plane, and the service owns its state</text>
</svg>