<svg xmlns="http://www.w3.org/2000/svg" viewBox="0 0 760 300" font-family="'Red Hat Text', system-ui, sans-serif" role="img">
<defs><marker id="a" viewBox="0 0 10 10" refX="8.5" refY="5" markerWidth="9" markerHeight="9" orient="auto-start-reverse"><path d="M0,0 L10,5 L0,10 z" fill="#555"/></marker><marker id="am" viewBox="0 0 10 10" refX="8.5" refY="5" markerWidth="9" markerHeight="9" orient="auto-start-reverse"><path d="M0,0 L10,5 L0,10 z" fill="#b8650a"/></marker></defs>
<rect x="20" y="58" width="280" height="192" rx="12" fill="#eef4fb" stroke="#ddd"/>
<text x="32" y="78" font-size="12" font-weight="700" fill="#1d1d1d">arrival order (processing time)</text>
<rect x="40" y="92" width="240" height="40" rx="9" fill="#ffffff" stroke="#111111" stroke-width="2"/>
<text x="160.0" y="117.5" font-size="13.5" font-weight="700" fill="#111111" text-anchor="middle">event-time 12</text>
<rect x="40" y="144" width="240" height="40" rx="9" fill="#ffffff" stroke="#111111" stroke-width="2"/>
<text x="160.0" y="169.5" font-size="13.5" font-weight="700" fill="#111111" text-anchor="middle">event-time 10   (out of order)</text>
<rect x="40" y="196" width="240" height="40" rx="9" fill="#ffffff" stroke="#999999" stroke-width="1.5" stroke-dasharray="6 4"/>
<text x="160.0" y="221.5" font-size="13.5" font-weight="700" fill="#111111" text-anchor="middle">event-time 9   (late)</text>
<rect x="352" y="110" width="190" height="86" rx="9" fill="#fff8ef" stroke="#e8870c" stroke-width="2"/>
<text x="447.0" y="151.0" font-size="13.5" font-weight="700" fill="#111111" text-anchor="middle">order by event time</text>
<text x="447.0" y="168.0" font-size="11.5" fill="#555555" text-anchor="middle">watermark  T = 11</text>
<rect x="586" y="86" width="156" height="52" rx="9" fill="#ffffff" stroke="#111111" stroke-width="2"/>
<text x="664.0" y="110.0" font-size="13.5" font-weight="700" fill="#111111" text-anchor="middle">windows ≤ 11</text>
<text x="664.0" y="127.0" font-size="11.5" fill="#555555" text-anchor="middle">deterministic result</text>
<rect x="586" y="162" width="156" height="52" rx="9" fill="#ffffff" stroke="#999999" stroke-width="1.5" stroke-dasharray="6 4"/>
<text x="664.0" y="186.0" font-size="13.5" font-weight="700" fill="#111111" text-anchor="middle">event-time 9 &lt; T</text>
<text x="664.0" y="203.0" font-size="11.5" fill="#555555" text-anchor="middle">late → side-output</text>
<path d="M280,112 L352,140" fill="none" stroke="#555" stroke-width="2" marker-end="url(#a)"/>
<path d="M280,164 L352,154" fill="none" stroke="#555" stroke-width="2" marker-end="url(#a)"/>
<path d="M280,216 L352,170" fill="none" stroke="#555" stroke-width="2" marker-end="url(#a)"/>
<path d="M542,138 L586,120" fill="none" stroke="#555" stroke-width="2" marker-end="url(#a)"/>
<text x="570.0" y="123.0" font-size="11" fill="#ffffff" stroke="#ffffff" stroke-width="3" paint-order="stroke" text-anchor="middle">close</text>
<text x="570.0" y="123.0" font-size="11" fill="#555" text-anchor="middle">close</text>
<path d="M542,170 L586,186" fill="none" stroke="#555" stroke-width="2" stroke-dasharray="5 4" marker-end="url(#a)"/>
<text x="570.0" y="190.0" font-size="11" fill="#ffffff" stroke="#ffffff" stroke-width="3" paint-order="stroke" text-anchor="middle">past T</text>
<text x="570.0" y="190.0" font-size="11" fill="#555" text-anchor="middle">past T</text>
<text x="380" y="284" font-size="10.5" fill="#1d1d1d" text-anchor="middle" font-weight="700">key computation off event time, not the wall clock — replaying the log then yields the same answer</text>
</svg>