<svg xmlns="http://www.w3.org/2000/svg" viewBox="0 0 760 320" font-family="'Red Hat Text', system-ui, sans-serif" role="img">
<defs><marker id="a" viewBox="0 0 10 10" refX="8.5" refY="5" markerWidth="9" markerHeight="9" orient="auto-start-reverse"><path d="M0,0 L10,5 L0,10 z" fill="#555"/></marker><marker id="am" viewBox="0 0 10 10" refX="8.5" refY="5" markerWidth="9" markerHeight="9" orient="auto-start-reverse"><path d="M0,0 L10,5 L0,10 z" fill="#b8650a"/></marker></defs>
<rect x="150" y="58" width="300" height="234" rx="12" fill="#fff8ef" stroke="#ddd"/>
<text x="162" y="78" font-size="12" font-weight="700" fill="#1d1d1d">Kafka cluster — partitioned, replicated log</text>
<rect x="20" y="140" width="110" height="58" rx="9" fill="#eef4fb" stroke="#2f6db5" stroke-width="2"/>
<text x="75.0" y="167.0" font-size="13.5" font-weight="700" fill="#111111" text-anchor="middle">Producers</text>
<text x="75.0" y="184.0" font-size="11.5" fill="#555555" text-anchor="middle">keyed by entity</text>
<rect x="170" y="94" width="260" height="42" rx="9" fill="#ffffff" stroke="#111111" stroke-width="2"/>
<text x="300.0" y="113.0" font-size="13.5" font-weight="700" fill="#111111" text-anchor="middle">Partition 0</text>
<text x="300.0" y="130.0" font-size="11.5" fill="#555555" text-anchor="middle">leader + ISR replicas</text>
<rect x="170" y="148" width="260" height="42" rx="9" fill="#ffffff" stroke="#111111" stroke-width="2"/>
<text x="300.0" y="167.0" font-size="13.5" font-weight="700" fill="#111111" text-anchor="middle">Partition 1</text>
<text x="300.0" y="184.0" font-size="11.5" fill="#555555" text-anchor="middle">leader + ISR replicas</text>
<rect x="170" y="202" width="260" height="42" rx="9" fill="#ffffff" stroke="#111111" stroke-width="2"/>
<text x="300.0" y="221.0" font-size="13.5" font-weight="700" fill="#111111" text-anchor="middle">Partition 2</text>
<text x="300.0" y="238.0" font-size="11.5" fill="#555555" text-anchor="middle">leader + ISR replicas</text>
<rect x="480" y="92" width="260" height="62" rx="9" fill="#ffffff" stroke="#111111" stroke-width="2"/>
<text x="610.0" y="121.0" font-size="13.5" font-weight="700" fill="#111111" text-anchor="middle">consumer group: payment</text>
<text x="610.0" y="138.0" font-size="11.5" fill="#555555" text-anchor="middle">tracks its own offsets</text>
<rect x="480" y="182" width="260" height="62" rx="9" fill="#ffffff" stroke="#111111" stroke-width="2"/>
<text x="610.0" y="211.0" font-size="13.5" font-weight="700" fill="#111111" text-anchor="middle">consumer group: analytics</text>
<text x="610.0" y="228.0" font-size="11.5" fill="#555555" text-anchor="middle">independent offsets · can replay</text>
<path d="M130,169 L170,169" fill="none" stroke="#555" stroke-width="2" marker-end="url(#a)"/>
<text x="156.0" y="162.0" font-size="11" fill="#ffffff" stroke="#ffffff" stroke-width="3" paint-order="stroke" text-anchor="middle">append</text>
<text x="156.0" y="162.0" font-size="11" fill="#555" text-anchor="middle">append</text>
<path d="M430,120 L480,120" fill="none" stroke="#555" stroke-width="2" marker-end="url(#a)"/>
<path d="M430,212 L480,212" fill="none" stroke="#555" stroke-width="2" marker-end="url(#a)"/>
<text x="380" y="308" font-size="10.5" fill="#777" text-anchor="middle">retained by time or size — not deleted on read; partitions = parallelism, replicas = durability, groups = independent reads</text>
</svg>