<svg xmlns="http://www.w3.org/2000/svg" viewBox="0 0 1000 430" font-family="'Red Hat Text', system-ui, sans-serif" role="img">
<defs><marker id="a" viewBox="0 0 10 10" refX="8.5" refY="5" markerWidth="9" markerHeight="9" orient="auto-start-reverse"><path d="M0,0 L10,5 L0,10 z" fill="#555"/></marker><marker id="am" viewBox="0 0 10 10" refX="8.5" refY="5" markerWidth="9" markerHeight="9" orient="auto-start-reverse"><path d="M0,0 L10,5 L0,10 z" fill="#b8650a"/></marker></defs>
<rect x="40" y="120" width="80" height="70" rx="9" fill="#fff8ef" stroke="#e8870c" stroke-width="2"/>
<text x="80.0" y="160.5" font-size="13.5" font-weight="700" fill="#111111" text-anchor="middle">0</text>
<rect x="132" y="120" width="80" height="70" rx="9" fill="#fff8ef" stroke="#e8870c" stroke-width="2"/>
<text x="172.0" y="160.5" font-size="13.5" font-weight="700" fill="#111111" text-anchor="middle">1</text>
<rect x="224" y="120" width="80" height="70" rx="9" fill="#fff8ef" stroke="#e8870c" stroke-width="2"/>
<text x="264.0" y="160.5" font-size="13.5" font-weight="700" fill="#111111" text-anchor="middle">2</text>
<rect x="316" y="120" width="80" height="70" rx="9" fill="#fff8ef" stroke="#e8870c" stroke-width="2"/>
<text x="356.0" y="160.5" font-size="13.5" font-weight="700" fill="#111111" text-anchor="middle">3</text>
<rect x="408" y="120" width="80" height="70" rx="9" fill="#fff8ef" stroke="#e8870c" stroke-width="2"/>
<text x="448.0" y="160.5" font-size="13.5" font-weight="700" fill="#111111" text-anchor="middle">4</text>
<rect x="500" y="120" width="80" height="70" rx="9" fill="#fff8ef" stroke="#e8870c" stroke-width="2"/>
<text x="540.0" y="160.5" font-size="13.5" font-weight="700" fill="#111111" text-anchor="middle">5</text>
<rect x="592" y="120" width="80" height="70" rx="9" fill="#fff8ef" stroke="#e8870c" stroke-width="2"/>
<text x="632.0" y="160.5" font-size="13.5" font-weight="700" fill="#111111" text-anchor="middle">6</text>
<rect x="684" y="120" width="80" height="70" rx="9" fill="#fff8ef" stroke="#e8870c" stroke-width="2"/>
<text x="724.0" y="160.5" font-size="13.5" font-weight="700" fill="#111111" text-anchor="middle">7</text>
<rect x="776" y="120" width="80" height="70" rx="9" fill="#fff8ef" stroke="#e8870c" stroke-width="2"/>
<text x="816.0" y="160.5" font-size="13.5" font-weight="700" fill="#111111" text-anchor="middle">8</text>
<rect x="868" y="120" width="80" height="70" rx="9" fill="#fff8ef" stroke="#e8870c" stroke-width="2"/>
<text x="908.0" y="160.5" font-size="13.5" font-weight="700" fill="#111111" text-anchor="middle">9</text>
<rect x="40" y="300" width="260" height="80" rx="9" fill="#f4f4f4" stroke="#888888" stroke-width="1.5"/>
<text x="170.0" y="338.0" font-size="13.5" font-weight="700" fill="#111111" text-anchor="middle">payment consumer</text>
<text x="170.0" y="355.0" font-size="11.5" fill="#555555" text-anchor="middle">at offset 9 (live)</text>
<rect x="360" y="300" width="260" height="80" rx="9" fill="#fff8ef" stroke="#e8870c" stroke-width="2"/>
<text x="490.0" y="338.0" font-size="13.5" font-weight="700" fill="#111111" text-anchor="middle">analytics replay</text>
<text x="490.0" y="355.0" font-size="11.5" fill="#555555" text-anchor="middle">reset to offset 0</text>
<rect x="680" y="300" width="260" height="80" rx="9" fill="#ffffff" stroke="#999999" stroke-width="1.5"/>
<text x="810.0" y="330.5" font-size="13.5" font-weight="700" fill="#111111" text-anchor="middle">new consumer</text>
<text x="810.0" y="347.5" font-size="11.5" fill="#555555" text-anchor="middle">joins, reads history</text>
<text x="810.0" y="362.5" font-size="11.5" fill="#555555" text-anchor="middle">no producer impact</text>
<path d="M170,300 L868,190" fill="none" stroke="#555" stroke-width="2" stroke-dasharray="5 4" marker-end="url(#a)"/>
<path d="M490,300 L80,190" fill="none" stroke="#555" stroke-width="2" stroke-dasharray="5 4" marker-end="url(#a)"/>
<path d="M810,300 L454,190" fill="none" stroke="#555" stroke-width="2" stroke-dasharray="5 4" marker-end="url(#a)"/>
<text x="80" y="210" font-size="11" fill="#8a8a8a" text-anchor="middle">offset 0</text>
<text x="868" y="210" font-size="11" fill="#8a8a8a" text-anchor="middle">head (latest)</text>
<text x="40" y="95" font-size="12" fill="#8a4b06" text-anchor="start" font-weight="700">Partitioned, append-only log</text>
<text x="500" y="410" font-size="12" fill="#2f6db5" text-anchor="middle">Kafka (Strimzi) and Pulsar give you a durable, replayable, partitioned log — not a queue you drain; each consumer tracks its own offset</text>
</svg>