<svg xmlns="http://www.w3.org/2000/svg" viewBox="0 0 760 320" font-family="'Red Hat Text', system-ui, sans-serif" role="img">
<defs><marker id="a" viewBox="0 0 10 10" refX="8.5" refY="5" markerWidth="9" markerHeight="9" orient="auto-start-reverse"><path d="M0,0 L10,5 L0,10 z" fill="#555"/></marker><marker id="am" viewBox="0 0 10 10" refX="8.5" refY="5" markerWidth="9" markerHeight="9" orient="auto-start-reverse"><path d="M0,0 L10,5 L0,10 z" fill="#b8650a"/></marker></defs>
<rect x="168" y="70" width="300" height="186" rx="12" fill="#fff8ef" stroke="#ddd"/>
<text x="180" y="90" font-size="12" font-weight="700" fill="#1d1d1d">stateful instance</text>
<rect x="18" y="126" width="120" height="54" rx="9" fill="#ffffff" stroke="#111111" stroke-width="2"/>
<text x="78.0" y="158.5" font-size="13.5" font-weight="700" fill="#111111" text-anchor="middle">order.placed</text>
<rect x="192" y="102" width="134" height="52" rx="9" fill="#fff8ef" stroke="#e8870c" stroke-width="2"/>
<text x="259.0" y="126.0" font-size="13.5" font-weight="700" fill="#111111" text-anchor="middle">process</text>
<text x="259.0" y="143.0" font-size="11.5" fill="#555555" text-anchor="middle">read · update · write</text>
<rect x="192" y="184" width="252" height="52" rx="9" fill="#ffffff" stroke="#111111" stroke-width="2"/>
<text x="318.0" y="208.0" font-size="13.5" font-weight="700" fill="#111111" text-anchor="middle">local state store</text>
<text x="318.0" y="225.0" font-size="11.5" fill="#555555" text-anchor="middle">customer-totals</text>
<rect x="524" y="182" width="200" height="56" rx="9" fill="#fff8ef" stroke="#e8870c" stroke-width="2"/>
<text x="624.0" y="208.0" font-size="13.5" font-weight="700" fill="#111111" text-anchor="middle">changelog topic</text>
<text x="624.0" y="225.0" font-size="11.5" fill="#555555" text-anchor="middle">compacted · durable</text>
<rect x="524" y="78" width="200" height="56" rx="9" fill="#ffffff" stroke="#999999" stroke-width="1.5" stroke-dasharray="6 4"/>
<text x="624.0" y="104.0" font-size="13.5" font-weight="700" fill="#111111" text-anchor="middle">new instance (rebalance)</text>
<text x="624.0" y="121.0" font-size="11.5" fill="#555555" text-anchor="middle">restores the store</text>
<path d="M138,153 L192,128" fill="none" stroke="#555" stroke-width="2" marker-end="url(#a)"/>
<text x="171.0" y="133.5" font-size="11" fill="#ffffff" stroke="#ffffff" stroke-width="3" paint-order="stroke" text-anchor="middle">consume</text>
<text x="171.0" y="133.5" font-size="11" fill="#555" text-anchor="middle">consume</text>
<path d="M259,154 L259,184" fill="none" stroke="#555" stroke-width="2" marker-start="url(#a)" marker-end="url(#a)"/>
<text x="289.0" y="171.0" font-size="11" fill="#ffffff" stroke="#ffffff" stroke-width="3" paint-order="stroke" text-anchor="middle">read/write</text>
<text x="289.0" y="171.0" font-size="11" fill="#555" text-anchor="middle">read/write</text>
<path d="M444,210 L524,210" fill="none" stroke="#b8650a" stroke-width="2" marker-start="url(#am)" marker-end="url(#am)"/>
<text x="490.0" y="203.0" font-size="11" fill="#ffffff" stroke="#ffffff" stroke-width="3" paint-order="stroke" text-anchor="middle">mirror</text>
<text x="490.0" y="203.0" font-size="11" fill="#b8650a" text-anchor="middle">mirror</text>
<path d="M624,182 L624,134" fill="none" stroke="#555" stroke-width="2" stroke-dasharray="5 4" marker-end="url(#a)"/>
<text x="648.0" y="160.0" font-size="11" fill="#ffffff" stroke="#ffffff" stroke-width="3" paint-order="stroke" text-anchor="middle">replay</text>
<text x="648.0" y="160.0" font-size="11" fill="#555" text-anchor="middle">replay</text>
<text x="380" y="302" font-size="10.5" fill="#777" text-anchor="middle">every write also goes to the changelog; on failure or rebalance, replay it to rebuild the store — state is never lost</text>
</svg>