<svg xmlns="http://www.w3.org/2000/svg" viewBox="0 0 760 280" font-family="'Red Hat Text', system-ui, sans-serif" role="img">
<defs><marker id="a" viewBox="0 0 10 10" refX="8.5" refY="5" markerWidth="9" markerHeight="9" orient="auto-start-reverse"><path d="M0,0 L10,5 L0,10 z" fill="#555"/></marker><marker id="am" viewBox="0 0 10 10" refX="8.5" refY="5" markerWidth="9" markerHeight="9" orient="auto-start-reverse"><path d="M0,0 L10,5 L0,10 z" fill="#b8650a"/></marker></defs>
<rect x="36" y="68" width="156" height="52" rx="9" fill="#ffffff" stroke="#111111" stroke-width="2"/>
<text x="114.0" y="99.5" font-size="13.5" font-weight="700" fill="#111111" text-anchor="middle">T1 · charge payment</text>
<rect x="300" y="68" width="156" height="52" rx="9" fill="#ffffff" stroke="#111111" stroke-width="2"/>
<text x="378.0" y="99.5" font-size="13.5" font-weight="700" fill="#111111" text-anchor="middle">T2 · reserve stock</text>
<rect x="564" y="68" width="166" height="52" rx="9" fill="#ffffff" stroke="#999999" stroke-width="1.5" stroke-dasharray="6 4"/>
<text x="647.0" y="92.0" font-size="13.5" font-weight="700" fill="#111111" text-anchor="middle">T3 · book shipping</text>
<text x="647.0" y="109.0" font-size="11.5" fill="#555555" text-anchor="middle">✗ fails</text>
<rect x="300" y="176" width="156" height="52" rx="9" fill="#fff8ef" stroke="#e8870c" stroke-width="2"/>
<text x="378.0" y="207.5" font-size="13.5" font-weight="700" fill="#111111" text-anchor="middle">C2 · release stock</text>
<rect x="36" y="176" width="156" height="52" rx="9" fill="#fff8ef" stroke="#e8870c" stroke-width="2"/>
<text x="114.0" y="207.5" font-size="13.5" font-weight="700" fill="#111111" text-anchor="middle">C1 · refund payment</text>
<path d="M192,94 L300,94" fill="none" stroke="#555" stroke-width="2" marker-end="url(#a)"/>
<text x="252.0" y="87.0" font-size="11" fill="#ffffff" stroke="#ffffff" stroke-width="3" paint-order="stroke" text-anchor="middle">ok</text>
<text x="252.0" y="87.0" font-size="11" fill="#555" text-anchor="middle">ok</text>
<path d="M456,94 L564,94" fill="none" stroke="#555" stroke-width="2" marker-end="url(#a)"/>
<text x="516.0" y="87.0" font-size="11" fill="#ffffff" stroke="#ffffff" stroke-width="3" paint-order="stroke" text-anchor="middle">ok</text>
<text x="516.0" y="87.0" font-size="11" fill="#555" text-anchor="middle">ok</text>
<path d="M600,120 L456,176" fill="none" stroke="#b8650a" stroke-width="2" stroke-dasharray="5 4" marker-end="url(#am)"/>
<text x="534.0" y="142.0" font-size="11" fill="#ffffff" stroke="#ffffff" stroke-width="3" paint-order="stroke" text-anchor="middle">compensate</text>
<text x="534.0" y="142.0" font-size="11" fill="#b8650a" text-anchor="middle">compensate</text>
<path d="M300,202 L192,202" fill="none" stroke="#b8650a" stroke-width="2" marker-end="url(#am)"/>
<text x="252.0" y="195.0" font-size="11" fill="#ffffff" stroke="#ffffff" stroke-width="3" paint-order="stroke" text-anchor="middle">then refund</text>
<text x="252.0" y="195.0" font-size="11" fill="#b8650a" text-anchor="middle">then refund</text>
<text x="380" y="262" font-size="10" fill="#777" text-anchor="middle">each step is a local transaction; on a failure, run compensating actions in reverse — atomicity without a distributed lock (full treatment in Appendix D)</text>
</svg>