<svg xmlns="http://www.w3.org/2000/svg" viewBox="0 0 760 320" font-family="'Red Hat Text', system-ui, sans-serif" role="img">
<defs><marker id="a" viewBox="0 0 10 10" refX="8.5" refY="5" markerWidth="9" markerHeight="9" orient="auto-start-reverse"><path d="M0,0 L10,5 L0,10 z" fill="#555"/></marker><marker id="am" viewBox="0 0 10 10" refX="8.5" refY="5" markerWidth="9" markerHeight="9" orient="auto-start-reverse"><path d="M0,0 L10,5 L0,10 z" fill="#b8650a"/></marker></defs>
<rect x="20" y="56" width="330" height="116" rx="12" fill="#eef4fb" stroke="#ddd"/>
<text x="32" y="76" font-size="12" font-weight="700" fill="#1d1d1d">Pod — service A (Go)</text>
<rect x="20" y="192" width="330" height="110" rx="12" fill="#eef4fb" stroke="#ddd"/>
<text x="32" y="212" font-size="12" font-weight="700" fill="#1d1d1d">Pod — service B (Python)</text>
<rect x="40" y="92" width="134" height="58" rx="9" fill="#eef4fb" stroke="#2f6db5" stroke-width="2"/>
<text x="107.0" y="119.0" font-size="13.5" font-weight="700" fill="#111111" text-anchor="middle">business logic</text>
<text x="107.0" y="136.0" font-size="11.5" fill="#555555" text-anchor="middle">no broker client</text>
<rect x="200" y="92" width="120" height="58" rx="9" fill="#fff8ef" stroke="#e8870c" stroke-width="2"/>
<text x="260.0" y="119.0" font-size="13.5" font-weight="700" fill="#111111" text-anchor="middle">sidecar</text>
<text x="260.0" y="136.0" font-size="11.5" fill="#555555" text-anchor="middle">broker I/O</text>
<rect x="40" y="226" width="134" height="54" rx="9" fill="#eef4fb" stroke="#2f6db5" stroke-width="2"/>
<text x="107.0" y="251.0" font-size="13.5" font-weight="700" fill="#111111" text-anchor="middle">business logic</text>
<text x="107.0" y="268.0" font-size="11.5" fill="#555555" text-anchor="middle">no broker client</text>
<rect x="200" y="226" width="120" height="54" rx="9" fill="#fff8ef" stroke="#e8870c" stroke-width="2"/>
<text x="260.0" y="251.0" font-size="13.5" font-weight="700" fill="#111111" text-anchor="middle">sidecar</text>
<text x="260.0" y="268.0" font-size="11.5" fill="#555555" text-anchor="middle">broker I/O</text>
<rect x="540" y="140" width="180" height="110" rx="9" fill="#ffffff" stroke="#111111" stroke-width="2"/>
<text x="630.0" y="193.0" font-size="13.5" font-weight="700" fill="#111111" text-anchor="middle">Kafka</text>
<text x="630.0" y="210.0" font-size="11.5" fill="#555555" text-anchor="middle">topics · offsets · schema</text>
<path d="M174,121 L200,121" fill="none" stroke="#555" stroke-width="2" marker-start="url(#a)" marker-end="url(#a)"/>
<text x="193.0" y="114.0" font-size="11" fill="#ffffff" stroke="#ffffff" stroke-width="3" paint-order="stroke" text-anchor="middle">local gRPC</text>
<text x="193.0" y="114.0" font-size="11" fill="#555" text-anchor="middle">local gRPC</text>
<path d="M174,253 L200,253" fill="none" stroke="#555" stroke-width="2" marker-start="url(#a)" marker-end="url(#a)"/>
<text x="193.0" y="246.0" font-size="11" fill="#ffffff" stroke="#ffffff" stroke-width="3" paint-order="stroke" text-anchor="middle">local gRPC</text>
<text x="193.0" y="246.0" font-size="11" fill="#555" text-anchor="middle">local gRPC</text>
<path d="M320,121 L540,165" fill="none" stroke="#b8650a" stroke-width="2" marker-end="url(#am)"/>
<text x="436.0" y="136.0" font-size="11" fill="#ffffff" stroke="#ffffff" stroke-width="3" paint-order="stroke" text-anchor="middle">consume / produce</text>
<text x="436.0" y="136.0" font-size="11" fill="#b8650a" text-anchor="middle">consume / produce</text>
<path d="M320,253 L540,225" fill="none" stroke="#b8650a" stroke-width="2" marker-end="url(#am)"/>
<text x="436.0" y="253.0" font-size="11" fill="#ffffff" stroke="#ffffff" stroke-width="3" paint-order="stroke" text-anchor="middle">consume / produce</text>
<text x="436.0" y="253.0" font-size="11" fill="#b8650a" text-anchor="middle">consume / produce</text>
<text x="300" y="314" font-size="10.5" fill="#777" text-anchor="middle">the sidecar owns serde, schema, offsets, retries, and tracing — business logic stays pure and polyglot</text>
</svg>