<svg xmlns="http://www.w3.org/2000/svg" viewBox="0 0 1180 340" font-family="'Red Hat Text', system-ui, sans-serif" role="img">
<defs><marker id="a" viewBox="0 0 10 10" refX="8.5" refY="5" markerWidth="9" markerHeight="9" orient="auto-start-reverse"><path d="M0,0 L10,5 L0,10 z" fill="#555"/></marker><marker id="am" viewBox="0 0 10 10" refX="8.5" refY="5" markerWidth="9" markerHeight="9" orient="auto-start-reverse"><path d="M0,0 L10,5 L0,10 z" fill="#b8650a"/></marker></defs>
<rect x="30" y="110" width="150" height="78" rx="9" fill="#fff8ef" stroke="#e8870c" stroke-width="2"/>
<text x="105.0" y="147.0" font-size="13.5" font-weight="700" fill="#111111" text-anchor="middle">orders</text>
<text x="105.0" y="164.0" font-size="11.5" fill="#555555" text-anchor="middle">topic</text>
<rect x="30" y="222" width="150" height="78" rx="9" fill="#fff8ef" stroke="#e8870c" stroke-width="2"/>
<text x="105.0" y="259.0" font-size="13.5" font-weight="700" fill="#111111" text-anchor="middle">payments</text>
<text x="105.0" y="276.0" font-size="11.5" fill="#555555" text-anchor="middle">topic</text>
<rect x="250" y="140" width="240" height="130" rx="9" fill="#f4f4f4" stroke="#888888" stroke-width="1.5"/>
<text x="370.0" y="188.0" font-size="13.5" font-weight="700" fill="#111111" text-anchor="middle">join + window</text>
<text x="370.0" y="205.0" font-size="11.5" fill="#555555" text-anchor="middle">key by orderId</text>
<text x="370.0" y="220.0" font-size="11.5" fill="#555555" text-anchor="middle">5-min tumbling</text>
<text x="370.0" y="235.0" font-size="11.5" fill="#555555" text-anchor="middle">local state store</text>
<rect x="560" y="155" width="230" height="100" rx="9" fill="#ffffff" stroke="#999999" stroke-width="1.5"/>
<text x="675.0" y="195.5" font-size="13.5" font-weight="700" fill="#111111" text-anchor="middle">aggregate</text>
<text x="675.0" y="212.5" font-size="11.5" fill="#555555" text-anchor="middle">count · sum · rate</text>
<text x="675.0" y="227.5" font-size="11.5" fill="#555555" text-anchor="middle">per merchant</text>
<rect x="860" y="165" width="150" height="80" rx="9" fill="#fff8ef" stroke="#e8870c" stroke-width="2"/>
<text x="935.0" y="203.0" font-size="13.5" font-weight="700" fill="#111111" text-anchor="middle">revenue</text>
<text x="935.0" y="220.0" font-size="11.5" fill="#555555" text-anchor="middle">derived topic</text>
<rect x="1050" y="165" width="110" height="80" rx="9" fill="#ffffff" stroke="#111111" stroke-width="2"/>
<text x="1105.0" y="203.0" font-size="13.5" font-weight="700" fill="#111111" text-anchor="middle">dashboard</text>
<text x="1105.0" y="220.0" font-size="11.5" fill="#555555" text-anchor="middle">Grafana</text>
<path d="M180,149 L250,180" fill="none" stroke="#b8650a" stroke-width="2" marker-end="url(#am)"/>
<path d="M180,261 L250,230" fill="none" stroke="#b8650a" stroke-width="2" marker-end="url(#am)"/>
<path d="M490,205 L560,205" fill="none" stroke="#555" stroke-width="2" marker-end="url(#a)"/>
<path d="M790,205 L860,205" fill="none" stroke="#b8650a" stroke-width="2" marker-end="url(#am)"/>
<path d="M1010,205 L1050,205" fill="none" stroke="#555" stroke-width="2" marker-end="url(#a)"/>
<text x="590" y="322" font-size="12" fill="#2f6db5" text-anchor="middle">a streaming app is a topology of sources, processors, and sinks — stateful operators consume topics, keep local state, and emit derived streams</text>
</svg>