<svg xmlns="http://www.w3.org/2000/svg" viewBox="0 0 800 270" font-family="'Red Hat Text', system-ui, sans-serif" role="img">
<defs><marker id="a" viewBox="0 0 10 10" refX="8.5" refY="5" markerWidth="9" markerHeight="9" orient="auto-start-reverse"><path d="M0,0 L10,5 L0,10 z" fill="#555"/></marker><marker id="am" viewBox="0 0 10 10" refX="8.5" refY="5" markerWidth="9" markerHeight="9" orient="auto-start-reverse"><path d="M0,0 L10,5 L0,10 z" fill="#b8650a"/></marker></defs>
<rect x="40" y="98" width="180" height="64" rx="9" fill="#eef4fb" stroke="#2f6db5" stroke-width="2"/>
<text x="130.0" y="128.0" font-size="13.5" font-weight="700" fill="#111111" text-anchor="middle">Kafka · order.placed</text>
<text x="130.0" y="145.0" font-size="11.5" fill="#555555" text-anchor="middle">consumer lag = N</text>
<rect x="290" y="104" width="150" height="54" rx="9" fill="#fff8ef" stroke="#e8870c" stroke-width="2"/>
<text x="365.0" y="129.0" font-size="13.5" font-weight="700" fill="#111111" text-anchor="middle">KEDA</text>
<text x="365.0" y="146.0" font-size="11.5" fill="#555555" text-anchor="middle">scales on lag</text>
<rect x="510" y="50" width="180" height="48" rx="9" fill="#ffffff" stroke="#111111" stroke-width="2"/>
<text x="600.0" y="79.5" font-size="13.5" font-weight="700" fill="#111111" text-anchor="middle">payment-consumer ×N</text>
<rect x="510" y="150" width="180" height="48" rx="9" fill="#ffffff" stroke="#999999" stroke-width="1.5" stroke-dasharray="6 4"/>
<text x="600.0" y="179.5" font-size="13.5" font-weight="700" fill="#111111" text-anchor="middle">scale to 0 when idle</text>
<path d="M220,130 L290,130" fill="none" stroke="#b8650a" stroke-width="2" marker-end="url(#am)"/>
<text x="261.0" y="124.0" font-size="11" fill="#ffffff" stroke="#ffffff" stroke-width="3" paint-order="stroke" text-anchor="middle">lag</text>
<text x="261.0" y="124.0" font-size="11" fill="#b8650a" text-anchor="middle">lag</text>
<path d="M440,126 L510,76" fill="none" stroke="#b8650a" stroke-width="2" marker-end="url(#am)"/>
<text x="481.0" y="95.0" font-size="11" fill="#ffffff" stroke="#ffffff" stroke-width="3" paint-order="stroke" text-anchor="middle">scale up</text>
<text x="481.0" y="95.0" font-size="11" fill="#b8650a" text-anchor="middle">scale up</text>
<path d="M440,140 L510,172" fill="none" stroke="#555" stroke-width="2" marker-end="url(#a)"/>
<text x="481.0" y="150.0" font-size="11" fill="#ffffff" stroke="#ffffff" stroke-width="3" paint-order="stroke" text-anchor="middle">→ 0 when quiet</text>
<text x="481.0" y="150.0" font-size="11" fill="#555" text-anchor="middle">→ 0 when quiet</text>
<text x="330" y="238" font-size="11" fill="#1d1d1d" text-anchor="middle">the right signal is consumer lag, not CPU — and it scales to zero</text>
</svg>