<svg xmlns="http://www.w3.org/2000/svg" viewBox="0 0 880 340" font-family="'Red Hat Text', system-ui, sans-serif" role="img">
<defs><marker id="a" viewBox="0 0 10 10" refX="8.5" refY="5" markerWidth="9" markerHeight="9" orient="auto-start-reverse"><path d="M0,0 L10,5 L0,10 z" fill="#555"/></marker><marker id="am" viewBox="0 0 10 10" refX="8.5" refY="5" markerWidth="9" markerHeight="9" orient="auto-start-reverse"><path d="M0,0 L10,5 L0,10 z" fill="#b8650a"/></marker></defs>
<rect x="10" y="10" width="860" height="100" rx="12" fill="#eef4fb" stroke="#ddd"/>
<text x="22" y="30" font-size="12" font-weight="700" fill="#1d1d1d">Tumbling — fixed, no overlap</text>
<rect x="10" y="120" width="860" height="100" rx="12" fill="#fff8ef" stroke="#ddd"/>
<text x="22" y="140" font-size="12" font-weight="700" fill="#1d1d1d">Hopping (sliding) — fixed, overlapping</text>
<rect x="10" y="230" width="860" height="100" rx="12" fill="#fafafa" stroke="#ddd"/>
<text x="22" y="250" font-size="12" font-weight="700" fill="#1d1d1d">Session — variable, gap-based</text>
<rect x="30" y="45" width="160" height="50" rx="9" fill="#eef4fb" stroke="#2f6db5" stroke-width="2"/>
<text x="110.0" y="68.0" font-size="13.5" font-weight="700" fill="#111111" text-anchor="middle">Window 1</text>
<text x="110.0" y="85.0" font-size="11.5" fill="#555555" text-anchor="middle">00:00 – 05:00</text>
<rect x="210" y="45" width="160" height="50" rx="9" fill="#eef4fb" stroke="#2f6db5" stroke-width="2"/>
<text x="290.0" y="68.0" font-size="13.5" font-weight="700" fill="#111111" text-anchor="middle">Window 2</text>
<text x="290.0" y="85.0" font-size="11.5" fill="#555555" text-anchor="middle">05:00 – 10:00</text>
<rect x="390" y="45" width="160" height="50" rx="9" fill="#eef4fb" stroke="#2f6db5" stroke-width="2"/>
<text x="470.0" y="68.0" font-size="13.5" font-weight="700" fill="#111111" text-anchor="middle">Window 3</text>
<text x="470.0" y="85.0" font-size="11.5" fill="#555555" text-anchor="middle">10:00 – 15:00</text>
<rect x="570" y="45" width="160" height="50" rx="9" fill="#eef4fb" stroke="#2f6db5" stroke-width="2"/>
<text x="650.0" y="68.0" font-size="13.5" font-weight="700" fill="#111111" text-anchor="middle">Window 4</text>
<text x="650.0" y="85.0" font-size="11.5" fill="#555555" text-anchor="middle">15:00 – 20:00</text>
<rect x="750" y="50" width="100" height="40" rx="9" fill="#ffffff" stroke="#999999" stroke-width="1.5" stroke-dasharray="6 4"/>
<text x="800.0" y="75.5" font-size="13.5" font-weight="700" fill="#111111" text-anchor="middle">no overlap</text>
<rect x="30" y="155" width="200" height="50" rx="9" fill="#fff8ef" stroke="#e8870c" stroke-width="2"/>
<text x="130.0" y="178.0" font-size="13.5" font-weight="700" fill="#111111" text-anchor="middle">Window A</text>
<text x="130.0" y="195.0" font-size="11.5" fill="#555555" text-anchor="middle">00:00 – 05:00</text>
<rect x="110" y="155" width="200" height="50" rx="9" fill="#fff8ef" stroke="#e8870c" stroke-width="2"/>
<text x="210.0" y="178.0" font-size="13.5" font-weight="700" fill="#111111" text-anchor="middle">Window B</text>
<text x="210.0" y="195.0" font-size="11.5" fill="#555555" text-anchor="middle">01:00 – 06:00</text>
<rect x="190" y="155" width="200" height="50" rx="9" fill="#fff8ef" stroke="#e8870c" stroke-width="2"/>
<text x="290.0" y="178.0" font-size="13.5" font-weight="700" fill="#111111" text-anchor="middle">Window C</text>
<text x="290.0" y="195.0" font-size="11.5" fill="#555555" text-anchor="middle">02:00 – 07:00</text>
<rect x="750" y="160" width="100" height="40" rx="9" fill="#ffffff" stroke="#999999" stroke-width="1.5" stroke-dasharray="6 4"/>
<text x="800.0" y="185.5" font-size="13.5" font-weight="700" fill="#111111" text-anchor="middle">smoothed view</text>
<rect x="30" y="265" width="120" height="50" rx="9" fill="#ffffff" stroke="#111111" stroke-width="2"/>
<text x="90.0" y="288.0" font-size="13.5" font-weight="700" fill="#111111" text-anchor="middle">Session 1</text>
<text x="90.0" y="305.0" font-size="11.5" fill="#555555" text-anchor="middle">3 events</text>
<rect x="250" y="265" width="80" height="50" rx="9" fill="#f4f4f4" stroke="#888888" stroke-width="1.5"/>
<text x="290.0" y="288.0" font-size="13.5" font-weight="700" fill="#111111" text-anchor="middle">gap</text>
<text x="290.0" y="305.0" font-size="11.5" fill="#555555" text-anchor="middle">&gt; 10 min</text>
<rect x="410" y="265" width="200" height="50" rx="9" fill="#ffffff" stroke="#111111" stroke-width="2"/>
<text x="510.0" y="288.0" font-size="13.5" font-weight="700" fill="#111111" text-anchor="middle">Session 2</text>
<text x="510.0" y="305.0" font-size="11.5" fill="#555555" text-anchor="middle">7 events</text>
<rect x="700" y="265" width="80" height="50" rx="9" fill="#f4f4f4" stroke="#888888" stroke-width="1.5"/>
<text x="740.0" y="288.0" font-size="13.5" font-weight="700" fill="#111111" text-anchor="middle">gap</text>
<text x="740.0" y="305.0" font-size="11.5" fill="#555555" text-anchor="middle">&gt; 10 min</text>
<path d="M190,70 L210,70" fill="none" stroke="#555" stroke-width="2" marker-end="url(#a)"/>
<path d="M370,70 L390,70" fill="none" stroke="#555" stroke-width="2" marker-end="url(#a)"/>
<path d="M550,70 L570,70" fill="none" stroke="#555" stroke-width="2" marker-end="url(#a)"/>
<path d="M150,290 L250,290" fill="none" stroke="#555" stroke-width="2" stroke-dasharray="5 4" marker-end="url(#a)"/>
<path d="M330,290 L410,290" fill="none" stroke="#555" stroke-width="2" stroke-dasharray="5 4" marker-end="url(#a)"/>
<path d="M610,290 L700,290" fill="none" stroke="#555" stroke-width="2" stroke-dasharray="5 4" marker-end="url(#a)"/>
<text x="30" y="330" font-size="11" fill="#888888" text-anchor="start">Tumbling: one event → one window. Hopping: one event → multiple windows. Session: variable length, closed by inactivity.</text>
</svg>