<svg xmlns="http://www.w3.org/2000/svg" viewBox="0 0 800 340" font-family="'Red Hat Text', system-ui, sans-serif" role="img">
<defs><marker id="a" viewBox="0 0 10 10" refX="8.5" refY="5" markerWidth="9" markerHeight="9" orient="auto-start-reverse"><path d="M0,0 L10,5 L0,10 z" fill="#555"/></marker><marker id="am" viewBox="0 0 10 10" refX="8.5" refY="5" markerWidth="9" markerHeight="9" orient="auto-start-reverse"><path d="M0,0 L10,5 L0,10 z" fill="#b8650a"/></marker></defs>
<rect x="20" y="34" width="760" height="150" rx="12" fill="#eef3fb" stroke="#ddd"/>
<text x="32" y="54" font-size="12" font-weight="700" fill="#1d1d1d">orchestration — a central coordinator commands each step</text>
<rect x="20" y="196" width="760" height="126" rx="12" fill="#eef7ee" stroke="#ddd"/>
<text x="32" y="216" font-size="12" font-weight="700" fill="#1d1d1d">choreography — each service reacts to the prior event (no central brain)</text>
<rect x="60" y="78" width="150" height="60" rx="9" fill="#fff8ef" stroke="#e8870c" stroke-width="2"/>
<text x="135.0" y="106.0" font-size="13.5" font-weight="700" fill="#111111" text-anchor="middle">saga</text>
<text x="135.0" y="123.0" font-size="11.5" fill="#555555" text-anchor="middle">orchestrator</text>
<rect x="330" y="52" width="130" height="36" rx="9" fill="#ffffff" stroke="#111111" stroke-width="2"/>
<text x="395.0" y="75.5" font-size="13.5" font-weight="700" fill="#111111" text-anchor="middle">payment</text>
<rect x="330" y="96" width="130" height="36" rx="9" fill="#ffffff" stroke="#111111" stroke-width="2"/>
<text x="395.0" y="119.5" font-size="13.5" font-weight="700" fill="#111111" text-anchor="middle">shipping</text>
<rect x="330" y="140" width="130" height="36" rx="9" fill="#ffffff" stroke="#111111" stroke-width="2"/>
<text x="395.0" y="163.5" font-size="13.5" font-weight="700" fill="#111111" text-anchor="middle">notification</text>
<rect x="60" y="236" width="130" height="40" rx="9" fill="#ffffff" stroke="#111111" stroke-width="2"/>
<text x="125.0" y="261.5" font-size="13.5" font-weight="700" fill="#111111" text-anchor="middle">payment</text>
<rect x="300" y="236" width="130" height="40" rx="9" fill="#ffffff" stroke="#111111" stroke-width="2"/>
<text x="365.0" y="261.5" font-size="13.5" font-weight="700" fill="#111111" text-anchor="middle">shipping</text>
<rect x="540" y="236" width="150" height="40" rx="9" fill="#ffffff" stroke="#111111" stroke-width="2"/>
<text x="615.0" y="261.5" font-size="13.5" font-weight="700" fill="#111111" text-anchor="middle">notification</text>
<path d="M210,98 L330,70" fill="none" stroke="#b8650a" stroke-width="2" marker-end="url(#am)"/>
<text x="276.0" y="78.0" font-size="11" fill="#ffffff" stroke="#ffffff" stroke-width="3" paint-order="stroke" text-anchor="middle">commands</text>
<text x="276.0" y="78.0" font-size="11" fill="#b8650a" text-anchor="middle">commands</text>
<path d="M210,108 L330,114" fill="none" stroke="#b8650a" stroke-width="2" marker-end="url(#am)"/>
<path d="M210,118 L330,158" fill="none" stroke="#b8650a" stroke-width="2" marker-end="url(#am)"/>
<path d="M190,256 L300,256" fill="none" stroke="#b8650a" stroke-width="2" marker-end="url(#am)"/>
<text x="251.0" y="250.0" font-size="11" fill="#ffffff" stroke="#ffffff" stroke-width="3" paint-order="stroke" text-anchor="middle">event</text>
<text x="251.0" y="250.0" font-size="11" fill="#b8650a" text-anchor="middle">event</text>
<path d="M430,256 L540,256" fill="none" stroke="#b8650a" stroke-width="2" marker-end="url(#am)"/>
<text x="491.0" y="250.0" font-size="11" fill="#ffffff" stroke="#ffffff" stroke-width="3" paint-order="stroke" text-anchor="middle">event</text>
<text x="491.0" y="250.0" font-size="11" fill="#b8650a" text-anchor="middle">event</text>
</svg>