<svg xmlns="http://www.w3.org/2000/svg" viewBox="0 0 820 220" font-family="'Red Hat Text', system-ui, sans-serif" role="img">
<defs><marker id="a" viewBox="0 0 10 10" refX="8.5" refY="5" markerWidth="9" markerHeight="9" orient="auto-start-reverse"><path d="M0,0 L10,5 L0,10 z" fill="#555"/></marker><marker id="am" viewBox="0 0 10 10" refX="8.5" refY="5" markerWidth="9" markerHeight="9" orient="auto-start-reverse"><path d="M0,0 L10,5 L0,10 z" fill="#b8650a"/></marker></defs>
<rect x="20" y="24" width="780" height="156" rx="12" fill="#faf7f0" stroke="#ddd"/>
<text x="32" y="44" font-size="12" font-weight="700" fill="#1d1d1d">API management — distinct responsibilities, not one monolithic gateway product</text>
<rect x="44" y="66" width="176" height="98" rx="9" fill="#fff8ef" stroke="#e8870c" stroke-width="2"/>
<text x="132.0" y="98.0" font-size="13.5" font-weight="700" fill="#111111" text-anchor="middle">Runtime plane</text>
<text x="132.0" y="115.0" font-size="11.5" fill="#555555" text-anchor="middle">gateway + mesh</text>
<text x="132.0" y="130.0" font-size="11.5" fill="#555555" text-anchor="middle">traffic · auth</text>
<text x="132.0" y="145.0" font-size="11.5" fill="#555555" text-anchor="middle">rate-limit · resilience</text>
<rect x="236" y="66" width="176" height="98" rx="9" fill="#ffffff" stroke="#111111" stroke-width="2"/>
<text x="324.0" y="98.0" font-size="13.5" font-weight="700" fill="#111111" text-anchor="middle">Contract plane</text>
<text x="324.0" y="115.0" font-size="11.5" fill="#555555" text-anchor="middle">registry · §9</text>
<text x="324.0" y="130.0" font-size="11.5" fill="#555555" text-anchor="middle">every schema,</text>
<text x="324.0" y="145.0" font-size="11.5" fill="#555555" text-anchor="middle">versioned + gated</text>
<rect x="428" y="66" width="176" height="98" rx="9" fill="#ffffff" stroke="#111111" stroke-width="2"/>
<text x="516.0" y="98.0" font-size="13.5" font-weight="700" fill="#111111" text-anchor="middle">Discovery plane</text>
<text x="516.0" y="115.0" font-size="11.5" fill="#555555" text-anchor="middle">metadata · §10</text>
<text x="516.0" y="130.0" font-size="11.5" fill="#555555" text-anchor="middle">find and trust</text>
<text x="516.0" y="145.0" font-size="11.5" fill="#555555" text-anchor="middle">an API</text>
<rect x="620" y="66" width="160" height="98" rx="9" fill="#ffffff" stroke="#111111" stroke-width="2"/>
<text x="700.0" y="98.0" font-size="13.5" font-weight="700" fill="#111111" text-anchor="middle">Signal plane</text>
<text x="700.0" y="115.0" font-size="11.5" fill="#555555" text-anchor="middle">observability · §11</text>
<text x="700.0" y="130.0" font-size="11.5" fill="#555555" text-anchor="middle">what is actually</text>
<text x="700.0" y="145.0" font-size="11.5" fill="#555555" text-anchor="middle">happening</text>
</svg>