<svg xmlns="http://www.w3.org/2000/svg" viewBox="0 0 1220 520" font-family="'Red Hat Text', system-ui, sans-serif" role="img">
<defs><marker id="a" viewBox="0 0 10 10" refX="8.5" refY="5" markerWidth="9" markerHeight="9" orient="auto-start-reverse"><path d="M0,0 L10,5 L0,10 z" fill="#555"/></marker><marker id="am" viewBox="0 0 10 10" refX="8.5" refY="5" markerWidth="9" markerHeight="9" orient="auto-start-reverse"><path d="M0,0 L10,5 L0,10 z" fill="#b8650a"/></marker></defs>
<rect x="40" y="95" width="290" height="82" rx="9" fill="#ffffff" stroke="#111111" stroke-width="2"/>
<text x="185.0" y="141.5" font-size="13.5" font-weight="700" fill="#111111" text-anchor="middle">REST design (OpenAPI)</text>
<rect x="40" y="235" width="290" height="82" rx="9" fill="#f4f4f4" stroke="#888888" stroke-width="1.5"/>
<text x="185.0" y="281.5" font-size="13.5" font-weight="700" fill="#111111" text-anchor="middle">gRPC (.proto)</text>
<rect x="40" y="375" width="290" height="82" rx="9" fill="#eef4fb" stroke="#2f6db5" stroke-width="2"/>
<text x="185.0" y="421.5" font-size="13.5" font-weight="700" fill="#111111" text-anchor="middle">events (AsyncAPI)</text>
<rect x="560" y="165" width="300" height="130" rx="9" fill="#fff8ef" stroke="#e8870c" stroke-width="2"/>
<text x="710.0" y="213.0" font-size="13.5" font-weight="700" fill="#111111" text-anchor="middle">Apicurio Registry</text>
<text x="710.0" y="230.0" font-size="11.5" fill="#555555" text-anchor="middle">OpenAPI · AsyncAPI</text>
<text x="710.0" y="245.0" font-size="11.5" fill="#555555" text-anchor="middle">proto · Avro · JSON Schema</text>
<text x="710.0" y="260.0" font-size="11.5" fill="#555555" text-anchor="middle">versions + compatibility</text>
<rect x="900" y="110" width="280" height="80" rx="9" fill="#ffffff" stroke="#111111" stroke-width="2"/>
<text x="1040.0" y="148.0" font-size="13.5" font-weight="700" fill="#111111" text-anchor="middle">CI gate</text>
<text x="1040.0" y="165.0" font-size="11.5" fill="#555555" text-anchor="middle">block breaking change</text>
<rect x="900" y="235" width="280" height="80" rx="9" fill="#ffffff" stroke="#999999" stroke-width="1.5"/>
<text x="1040.0" y="273.0" font-size="13.5" font-weight="700" fill="#111111" text-anchor="middle">client codegen</text>
<text x="1040.0" y="290.0" font-size="11.5" fill="#555555" text-anchor="middle">typed stubs</text>
<rect x="900" y="375" width="280" height="80" rx="9" fill="#f4f4f4" stroke="#888888" stroke-width="1.5"/>
<text x="1040.0" y="413.0" font-size="13.5" font-weight="700" fill="#111111" text-anchor="middle">runtime resolve</text>
<text x="1040.0" y="430.0" font-size="11.5" fill="#555555" text-anchor="middle">serde by schema-id</text>
<path d="M330,136 L560,205" fill="none" stroke="#555" stroke-width="2" stroke-dasharray="5 4" marker-end="url(#a)"/>
<path d="M330,276 L560,235" fill="none" stroke="#555" stroke-width="2" stroke-dasharray="5 4" marker-end="url(#a)"/>
<path d="M330,416 L560,270" fill="none" stroke="#555" stroke-width="2" stroke-dasharray="5 4" marker-end="url(#a)"/>
<path d="M860,210 L900,150" fill="none" stroke="#555" stroke-width="2" stroke-dasharray="5 4" marker-end="url(#a)"/>
<path d="M860,235 L900,270" fill="none" stroke="#555" stroke-width="2" stroke-dasharray="5 4" marker-end="url(#a)"/>
<path d="M860,265 L900,410" fill="none" stroke="#555" stroke-width="2" stroke-dasharray="5 4" marker-end="url(#a)"/>
<text x="610" y="500" font-size="12" fill="#2f6db5" text-anchor="middle">design-first: the contract is registered and gated in CI before any code depends on it</text>
</svg>