<svg xmlns="http://www.w3.org/2000/svg" viewBox="0 0 770 300" font-family="'Red Hat Text', system-ui, sans-serif" role="img">
<defs><marker id="a" viewBox="0 0 10 10" refX="8.5" refY="5" markerWidth="9" markerHeight="9" orient="auto-start-reverse"><path d="M0,0 L10,5 L0,10 z" fill="#555"/></marker><marker id="am" viewBox="0 0 10 10" refX="8.5" refY="5" markerWidth="9" markerHeight="9" orient="auto-start-reverse"><path d="M0,0 L10,5 L0,10 z" fill="#b8650a"/></marker></defs>
<rect x="34" y="116" width="150" height="54" rx="9" fill="#ffffff" stroke="#111111" stroke-width="2"/>
<text x="109.0" y="148.5" font-size="13.5" font-weight="700" fill="#111111" text-anchor="middle">PR: schema change</text>
<rect x="236" y="108" width="190" height="70" rx="9" fill="#fff8ef" stroke="#e8870c" stroke-width="2"/>
<text x="331.0" y="141.0" font-size="13.5" font-weight="700" fill="#111111" text-anchor="middle">Apicurio registry</text>
<text x="331.0" y="158.0" font-size="11.5" fill="#555555" text-anchor="middle">compat: BACKWARD / FWD / FULL</text>
<rect x="540" y="54" width="180" height="48" rx="9" fill="#ffffff" stroke="#111111" stroke-width="2"/>
<text x="630.0" y="83.5" font-size="13.5" font-weight="700" fill="#111111" text-anchor="middle">merge &amp; publish</text>
<rect x="540" y="140" width="196" height="48" rx="9" fill="#ffffff" stroke="#999999" stroke-width="1.5" stroke-dasharray="6 4"/>
<text x="638.0" y="169.5" font-size="13.5" font-weight="700" fill="#111111" text-anchor="middle">409 → block the merge</text>
<rect x="236" y="236" width="190" height="48" rx="9" fill="#ffffff" stroke="#111111" stroke-width="2"/>
<text x="331.0" y="265.5" font-size="13.5" font-weight="700" fill="#111111" text-anchor="middle">consumers fetch + gen stubs</text>
<path d="M184,143 L236,143" fill="none" stroke="#b8650a" stroke-width="2" marker-end="url(#am)"/>
<text x="216.0" y="137.0" font-size="11" fill="#ffffff" stroke="#ffffff" stroke-width="3" paint-order="stroke" text-anchor="middle">POST version</text>
<text x="216.0" y="137.0" font-size="11" fill="#b8650a" text-anchor="middle">POST version</text>
<path d="M426,130 L540,78" fill="none" stroke="#b8650a" stroke-width="2" marker-end="url(#am)"/>
<text x="489.0" y="98.0" font-size="11" fill="#ffffff" stroke="#ffffff" stroke-width="3" paint-order="stroke" text-anchor="middle">compatible</text>
<text x="489.0" y="98.0" font-size="11" fill="#b8650a" text-anchor="middle">compatible</text>
<path d="M426,152 L540,164" fill="none" stroke="#555" stroke-width="2" marker-end="url(#a)"/>
<text x="489.0" y="152.0" font-size="11" fill="#ffffff" stroke="#ffffff" stroke-width="3" paint-order="stroke" text-anchor="middle">incompatible</text>
<text x="489.0" y="152.0" font-size="11" fill="#555" text-anchor="middle">incompatible</text>
<path d="M331,178 L331,236" fill="none" stroke="#b8650a" stroke-width="2" marker-end="url(#am)"/>
<text x="337.0" y="201.0" font-size="11" fill="#ffffff" stroke="#ffffff" stroke-width="3" paint-order="stroke" text-anchor="middle">publish</text>
<text x="337.0" y="201.0" font-size="11" fill="#b8650a" text-anchor="middle">publish</text>
</svg>