<svg xmlns="http://www.w3.org/2000/svg" viewBox="0 0 800 300" font-family="'Red Hat Text', system-ui, sans-serif" role="img">
<defs><marker id="a" viewBox="0 0 10 10" refX="8.5" refY="5" markerWidth="9" markerHeight="9" orient="auto-start-reverse"><path d="M0,0 L10,5 L0,10 z" fill="#555"/></marker><marker id="am" viewBox="0 0 10 10" refX="8.5" refY="5" markerWidth="9" markerHeight="9" orient="auto-start-reverse"><path d="M0,0 L10,5 L0,10 z" fill="#b8650a"/></marker></defs>
<rect x="34" y="112" width="190" height="82" rx="9" fill="#ffffff" stroke="#111111" stroke-width="2"/>
<text x="129.0" y="136.0" font-size="13.5" font-weight="700" fill="#111111" text-anchor="middle">sources</text>
<text x="129.0" y="153.0" font-size="11.5" fill="#555555" text-anchor="middle">OpenAPI · Apicurio</text>
<text x="129.0" y="168.0" font-size="11.5" fill="#555555" text-anchor="middle">Kafka · Postgres</text>
<text x="129.0" y="183.0" font-size="11.5" fill="#555555" text-anchor="middle">(scheduled connectors)</text>
<rect x="286" y="108" width="184" height="90" rx="9" fill="#fff8ef" stroke="#e8870c" stroke-width="2"/>
<text x="378.0" y="143.5" font-size="13.5" font-weight="700" fill="#111111" text-anchor="middle">OpenMetadata</text>
<text x="378.0" y="160.5" font-size="11.5" fill="#555555" text-anchor="middle">one searchable catalog</text>
<text x="378.0" y="175.5" font-size="11.5" fill="#555555" text-anchor="middle">+ automated lineage</text>
<rect x="548" y="40" width="216" height="40" rx="9" fill="#ffffff" stroke="#111111" stroke-width="2"/>
<text x="656.0" y="65.5" font-size="13.5" font-weight="700" fill="#111111" text-anchor="middle">Discovery — search + owner</text>
<rect x="548" y="92" width="216" height="40" rx="9" fill="#ffffff" stroke="#111111" stroke-width="2"/>
<text x="656.0" y="117.5" font-size="13.5" font-weight="700" fill="#111111" text-anchor="middle">Trust — SLOs · quality · tier</text>
<rect x="548" y="144" width="216" height="40" rx="9" fill="#ffffff" stroke="#111111" stroke-width="2"/>
<text x="656.0" y="169.5" font-size="13.5" font-weight="700" fill="#111111" text-anchor="middle">Lineage — impact analysis</text>
<rect x="548" y="196" width="216" height="40" rx="9" fill="#ffffff" stroke="#111111" stroke-width="2"/>
<text x="656.0" y="221.5" font-size="13.5" font-weight="700" fill="#111111" text-anchor="middle">Ownership — PII · owners</text>
<path d="M224,153 L286,153" fill="none" stroke="#b8650a" stroke-width="2" marker-end="url(#am)"/>
<text x="261.0" y="147.0" font-size="11" fill="#ffffff" stroke="#ffffff" stroke-width="3" paint-order="stroke" text-anchor="middle">ingest</text>
<text x="261.0" y="147.0" font-size="11" fill="#b8650a" text-anchor="middle">ingest</text>
<path d="M470,140 L548,60" fill="none" stroke="#b8650a" stroke-width="2" marker-end="url(#am)"/>
<path d="M470,150 L548,112" fill="none" stroke="#b8650a" stroke-width="2" marker-end="url(#am)"/>
<path d="M470,158 L548,164" fill="none" stroke="#b8650a" stroke-width="2" marker-end="url(#am)"/>
<path d="M470,168 L548,216" fill="none" stroke="#b8650a" stroke-width="2" marker-end="url(#am)"/>
<text x="360" y="268" font-size="11" fill="#1d1d1d" text-anchor="middle">the question it answers — if I change this field, who breaks? — before you change it</text>
</svg>