<svg xmlns="http://www.w3.org/2000/svg" viewBox="0 0 1200 470" font-family="'Red Hat Text', system-ui, sans-serif" role="img">
<defs><marker id="a" viewBox="0 0 10 10" refX="8.5" refY="5" markerWidth="9" markerHeight="9" orient="auto-start-reverse"><path d="M0,0 L10,5 L0,10 z" fill="#555"/></marker><marker id="am" viewBox="0 0 10 10" refX="8.5" refY="5" markerWidth="9" markerHeight="9" orient="auto-start-reverse"><path d="M0,0 L10,5 L0,10 z" fill="#b8650a"/></marker></defs>
<rect x="40" y="110" width="200" height="74" rx="9" fill="#eef4fb" stroke="#2f6db5" stroke-width="2"/>
<text x="140.0" y="152.5" font-size="13.5" font-weight="700" fill="#111111" text-anchor="middle">Request in</text>
<rect x="290" y="105" width="250" height="84" rx="9" fill="#ffffff" stroke="#111111" stroke-width="2"/>
<text x="415.0" y="145.0" font-size="13.5" font-weight="700" fill="#111111" text-anchor="middle">SDK decides NOW</text>
<text x="415.0" y="162.0" font-size="11.5" fill="#555555" text-anchor="middle">keep 1 in N (prob.)</text>
<rect x="590" y="110" width="230" height="74" rx="9" fill="#fff8ef" stroke="#e8870c" stroke-width="2"/>
<text x="705.0" y="145.0" font-size="13.5" font-weight="700" fill="#111111" text-anchor="middle">Collector</text>
<text x="705.0" y="162.0" font-size="11.5" fill="#555555" text-anchor="middle">only sampled</text>
<rect x="870" y="110" width="210" height="74" rx="9" fill="#ffffff" stroke="#999999" stroke-width="1.5" stroke-dasharray="6 4"/>
<text x="975.0" y="152.5" font-size="13.5" font-weight="700" fill="#111111" text-anchor="middle">Backend</text>
<rect x="40" y="320" width="200" height="74" rx="9" fill="#eef4fb" stroke="#2f6db5" stroke-width="2"/>
<text x="140.0" y="362.5" font-size="13.5" font-weight="700" fill="#111111" text-anchor="middle">Request in</text>
<rect x="290" y="315" width="250" height="84" rx="9" fill="#ffffff" stroke="#111111" stroke-width="2"/>
<text x="415.0" y="355.0" font-size="13.5" font-weight="700" fill="#111111" text-anchor="middle">SDK sends ALL</text>
<text x="415.0" y="372.0" font-size="11.5" fill="#555555" text-anchor="middle">no decision yet</text>
<rect x="590" y="305" width="250" height="104" rx="9" fill="#ffffff" stroke="#999999" stroke-width="1.5"/>
<text x="715.0" y="340.0" font-size="13.5" font-weight="700" fill="#111111" text-anchor="middle">Collector BUFFERS</text>
<text x="715.0" y="357.0" font-size="11.5" fill="#555555" text-anchor="middle">waits for full trace,</text>
<text x="715.0" y="372.0" font-size="11.5" fill="#555555" text-anchor="middle">then keeps errors / slow /</text>
<text x="715.0" y="387.0" font-size="11.5" fill="#555555" text-anchor="middle">rare routes</text>
<rect x="890" y="320" width="190" height="74" rx="9" fill="#ffffff" stroke="#999999" stroke-width="1.5" stroke-dasharray="6 4"/>
<text x="985.0" y="355.0" font-size="13.5" font-weight="700" fill="#111111" text-anchor="middle">Backend</text>
<text x="985.0" y="372.0" font-size="11.5" fill="#555555" text-anchor="middle">kept subset</text>
<path d="M240,147 L290,147" fill="none" stroke="#555" stroke-width="2" marker-end="url(#a)"/>
<path d="M540,147 L590,147" fill="none" stroke="#555" stroke-width="2" marker-end="url(#a)"/>
<path d="M820,147 L870,147" fill="none" stroke="#555" stroke-width="2" marker-end="url(#a)"/>
<path d="M240,357 L290,357" fill="none" stroke="#555" stroke-width="2" marker-end="url(#a)"/>
<path d="M540,357 L590,357" fill="none" stroke="#b8650a" stroke-width="2" marker-end="url(#am)"/>
<text x="571.0" y="349.0" font-size="11" fill="#ffffff" stroke="#ffffff" stroke-width="3" paint-order="stroke" text-anchor="middle">all spans</text>
<text x="571.0" y="349.0" font-size="11" fill="#b8650a" text-anchor="middle">all spans</text>
<path d="M840,357 L890,357" fill="none" stroke="#b8650a" stroke-width="2" marker-end="url(#am)"/>
<text x="871.0" y="349.0" font-size="11" fill="#ffffff" stroke="#ffffff" stroke-width="3" paint-order="stroke" text-anchor="middle">kept</text>
<text x="871.0" y="349.0" font-size="11" fill="#b8650a" text-anchor="middle">kept</text>
<text x="600" y="86" font-size="12" fill="#2f6db5" text-anchor="middle" font-weight="700">HEAD sampling — decide at the START, in the SDK, before the trace completes</text>
<text x="600" y="290" font-size="12" fill="#006e6e" text-anchor="middle" font-weight="700">TAIL sampling — decide at the END, in the Collector, after the whole trace is seen</text>
<text x="600" y="440" font-size="12" fill="#8a4b06" text-anchor="middle">common production: parent-based head baseline + tail sampling to keep every error and slow trace — always sample by trace, never by span</text>
</svg>