<svg xmlns="http://www.w3.org/2000/svg" viewBox="0 0 1180 450" font-family="'Red Hat Text', system-ui, sans-serif" role="img">
<defs><marker id="a" viewBox="0 0 10 10" refX="8.5" refY="5" markerWidth="9" markerHeight="9" orient="auto-start-reverse"><path d="M0,0 L10,5 L0,10 z" fill="#555"/></marker><marker id="am" viewBox="0 0 10 10" refX="8.5" refY="5" markerWidth="9" markerHeight="9" orient="auto-start-reverse"><path d="M0,0 L10,5 L0,10 z" fill="#b8650a"/></marker></defs>
<rect x="420" y="40" width="340" height="74" rx="9" fill="#ffffff" stroke="#999999" stroke-width="1.5"/>
<text x="590.0" y="75.0" font-size="13.5" font-weight="700" fill="#111111" text-anchor="middle">OpenTelemetry SDK + Collector</text>
<text x="590.0" y="92.0" font-size="11.5" fill="#555555" text-anchor="middle">one instrumentation layer</text>
<rect x="60" y="170" width="320" height="150" rx="9" fill="#ffffff" stroke="#111111" stroke-width="2"/>
<text x="220.0" y="228.0" font-size="13.5" font-weight="700" fill="#111111" text-anchor="middle">Traces</text>
<text x="220.0" y="245.0" font-size="11.5" fill="#555555" text-anchor="middle">request across services</text>
<text x="220.0" y="260.0" font-size="11.5" fill="#555555" text-anchor="middle">Tempo</text>
<text x="220.0" y="275.0" font-size="11.5" fill="#555555" text-anchor="middle">viewed in Grafana</text>
<rect x="430" y="170" width="320" height="150" rx="9" fill="#f4f4f4" stroke="#888888" stroke-width="1.5"/>
<text x="590.0" y="228.0" font-size="13.5" font-weight="700" fill="#111111" text-anchor="middle">Metrics</text>
<text x="590.0" y="245.0" font-size="11.5" fill="#555555" text-anchor="middle">RED / USE, histograms</text>
<text x="590.0" y="260.0" font-size="11.5" fill="#555555" text-anchor="middle">Prometheus → Mimir</text>
<text x="590.0" y="275.0" font-size="11.5" fill="#555555" text-anchor="middle">alerts + SLOs</text>
<rect x="800" y="170" width="320" height="150" rx="9" fill="#fff8ef" stroke="#e8870c" stroke-width="2"/>
<text x="960.0" y="228.0" font-size="13.5" font-weight="700" fill="#111111" text-anchor="middle">Logs</text>
<text x="960.0" y="245.0" font-size="11.5" fill="#555555" text-anchor="middle">structured, trace-linked</text>
<text x="960.0" y="260.0" font-size="11.5" fill="#555555" text-anchor="middle">Loki</text>
<text x="960.0" y="275.0" font-size="11.5" fill="#555555" text-anchor="middle">filter by trace_id</text>
<rect x="60" y="360" width="1060" height="50" rx="9" fill="#fff8ef" stroke="#e8870c" stroke-width="2"/>
<text x="590.0" y="390.5" font-size="13.5" font-weight="700" fill="#111111" text-anchor="middle">Grafana — one pane · Kiali — the service-mesh topology view</text>
<path d="M520,114 L230,170" fill="none" stroke="#555" stroke-width="2" stroke-dasharray="5 4" marker-end="url(#a)"/>
<path d="M590,114 L590,170" fill="none" stroke="#555" stroke-width="2" stroke-dasharray="5 4" marker-end="url(#a)"/>
<path d="M660,114 L955,170" fill="none" stroke="#555" stroke-width="2" stroke-dasharray="5 4" marker-end="url(#a)"/>
<text x="590" y="435" font-size="12" fill="#2f6db5" text-anchor="middle">instrument once with OTel; correlate traces, metrics, and logs by trace_id to answer &#x27;why is it slow?&#x27;</text>
</svg>