<svg xmlns="http://www.w3.org/2000/svg" viewBox="0 0 760 260" font-family="'Red Hat Text', system-ui, sans-serif" role="img">
<defs><marker id="a" viewBox="0 0 10 10" refX="8.5" refY="5" markerWidth="9" markerHeight="9" orient="auto-start-reverse"><path d="M0,0 L10,5 L0,10 z" fill="#555"/></marker><marker id="am" viewBox="0 0 10 10" refX="8.5" refY="5" markerWidth="9" markerHeight="9" orient="auto-start-reverse"><path d="M0,0 L10,5 L0,10 z" fill="#b8650a"/></marker></defs>
<rect x="20" y="22" width="720" height="120" rx="12" fill="#fff4f0" stroke="#ddd"/>
<text x="32" y="42" font-size="12" font-weight="700" fill="#1d1d1d">REST — several round trips, fixed payloads (over/under-fetch)</text>
<rect x="20" y="158" width="720" height="86" rx="12" fill="#eef7ee" stroke="#ddd"/>
<text x="32" y="178" font-size="12" font-weight="700" fill="#1d1d1d">GraphQL — one query, the client names the fields</text>
<rect x="46" y="62" width="104" height="46" rx="9" fill="#fff8ef" stroke="#e8870c" stroke-width="2"/>
<text x="98.0" y="90.5" font-size="13.5" font-weight="700" fill="#111111" text-anchor="middle">client</text>
<rect x="250" y="34" width="140" height="28" rx="9" fill="#ffffff" stroke="#111111" stroke-width="2"/>
<text x="320.0" y="53.5" font-size="13.5" font-weight="700" fill="#111111" text-anchor="middle">order</text>
<rect x="250" y="70" width="140" height="28" rx="9" fill="#ffffff" stroke="#111111" stroke-width="2"/>
<text x="320.0" y="89.5" font-size="13.5" font-weight="700" fill="#111111" text-anchor="middle">items</text>
<rect x="250" y="106" width="140" height="28" rx="9" fill="#ffffff" stroke="#111111" stroke-width="2"/>
<text x="320.0" y="125.5" font-size="13.5" font-weight="700" fill="#111111" text-anchor="middle">stock / shipping</text>
<rect x="46" y="182" width="104" height="46" rx="9" fill="#fff8ef" stroke="#e8870c" stroke-width="2"/>
<text x="98.0" y="210.5" font-size="13.5" font-weight="700" fill="#111111" text-anchor="middle">client</text>
<rect x="250" y="182" width="200" height="46" rx="9" fill="#ffffff" stroke="#111111" stroke-width="2"/>
<text x="350.0" y="203.0" font-size="13.5" font-weight="700" fill="#111111" text-anchor="middle">graphql-gateway</text>
<text x="350.0" y="220.0" font-size="11.5" fill="#555555" text-anchor="middle">one query</text>
<path d="M150,78 L250,48" fill="none" stroke="#b8650a" stroke-width="2" marker-end="url(#am)"/>
<path d="M150,85 L250,84" fill="none" stroke="#b8650a" stroke-width="2" marker-end="url(#am)"/>
<text x="206.0" y="78.5" font-size="11" fill="#ffffff" stroke="#ffffff" stroke-width="3" paint-order="stroke" text-anchor="middle">round trips</text>
<text x="206.0" y="78.5" font-size="11" fill="#b8650a" text-anchor="middle">round trips</text>
<path d="M150,92 L250,120" fill="none" stroke="#b8650a" stroke-width="2" marker-end="url(#am)"/>
<path d="M150,205 L250,205" fill="none" stroke="#b8650a" stroke-width="2" marker-end="url(#am)"/>
<text x="206.0" y="199.0" font-size="11" fill="#ffffff" stroke="#ffffff" stroke-width="3" paint-order="stroke" text-anchor="middle">1 round trip</text>
<text x="206.0" y="199.0" font-size="11" fill="#b8650a" text-anchor="middle">1 round trip</text>
</svg>