<svg xmlns="http://www.w3.org/2000/svg" viewBox="0 0 760 360" font-family="'Red Hat Text', system-ui, sans-serif" role="img">
<defs><marker id="a" viewBox="0 0 10 10" refX="8.5" refY="5" markerWidth="9" markerHeight="9" orient="auto-start-reverse"><path d="M0,0 L10,5 L0,10 z" fill="#555"/></marker><marker id="am" viewBox="0 0 10 10" refX="8.5" refY="5" markerWidth="9" markerHeight="9" orient="auto-start-reverse"><path d="M0,0 L10,5 L0,10 z" fill="#b8650a"/></marker></defs>
<rect x="20" y="50" width="350" height="140" rx="12" fill="#fafafa" stroke="#ddd"/>
<text x="32" y="70" font-size="12" font-weight="700" fill="#1d1d1d">Unary — one request, one response</text>
<rect x="390" y="50" width="350" height="140" rx="12" fill="#fafafa" stroke="#ddd"/>
<text x="402" y="70" font-size="12" font-weight="700" fill="#1d1d1d">Server-streaming — one request, N responses</text>
<rect x="20" y="210" width="350" height="140" rx="12" fill="#fafafa" stroke="#ddd"/>
<text x="32" y="230" font-size="12" font-weight="700" fill="#1d1d1d">Client-streaming — N requests, one response</text>
<rect x="390" y="210" width="350" height="140" rx="12" fill="#fff8ef" stroke="#ddd"/>
<text x="402" y="230" font-size="12" font-weight="700" fill="#1d1d1d">Bidirectional — both stream independently</text>
<rect x="40" y="95" width="90" height="44" rx="9" fill="#eef4fb" stroke="#2f6db5" stroke-width="2"/>
<text x="85.0" y="122.5" font-size="13.5" font-weight="700" fill="#111111" text-anchor="middle">Client</text>
<rect x="250" y="95" width="90" height="44" rx="9" fill="#ffffff" stroke="#111111" stroke-width="2"/>
<text x="295.0" y="122.5" font-size="13.5" font-weight="700" fill="#111111" text-anchor="middle">Server</text>
<rect x="410" y="95" width="90" height="44" rx="9" fill="#eef4fb" stroke="#2f6db5" stroke-width="2"/>
<text x="455.0" y="122.5" font-size="13.5" font-weight="700" fill="#111111" text-anchor="middle">Client</text>
<rect x="620" y="95" width="90" height="44" rx="9" fill="#ffffff" stroke="#111111" stroke-width="2"/>
<text x="665.0" y="122.5" font-size="13.5" font-weight="700" fill="#111111" text-anchor="middle">Server</text>
<rect x="40" y="255" width="90" height="44" rx="9" fill="#eef4fb" stroke="#2f6db5" stroke-width="2"/>
<text x="85.0" y="282.5" font-size="13.5" font-weight="700" fill="#111111" text-anchor="middle">Client</text>
<rect x="250" y="255" width="90" height="44" rx="9" fill="#ffffff" stroke="#111111" stroke-width="2"/>
<text x="295.0" y="282.5" font-size="13.5" font-weight="700" fill="#111111" text-anchor="middle">Server</text>
<rect x="410" y="255" width="90" height="44" rx="9" fill="#eef4fb" stroke="#2f6db5" stroke-width="2"/>
<text x="455.0" y="282.5" font-size="13.5" font-weight="700" fill="#111111" text-anchor="middle">Client</text>
<rect x="620" y="255" width="90" height="44" rx="9" fill="#ffffff" stroke="#111111" stroke-width="2"/>
<text x="665.0" y="282.5" font-size="13.5" font-weight="700" fill="#111111" text-anchor="middle">Server</text>
<path d="M130,108 L250,108" fill="none" stroke="#555" stroke-width="2" marker-end="url(#a)"/>
<text x="196.0" y="101.0" font-size="11" fill="#ffffff" stroke="#ffffff" stroke-width="3" paint-order="stroke" text-anchor="middle">1 request</text>
<text x="196.0" y="101.0" font-size="11" fill="#555" text-anchor="middle">1 request</text>
<path d="M250,130 L130,130" fill="none" stroke="#555" stroke-width="2" marker-end="url(#a)"/>
<text x="196.0" y="143.0" font-size="11" fill="#ffffff" stroke="#ffffff" stroke-width="3" paint-order="stroke" text-anchor="middle">1 response</text>
<text x="196.0" y="143.0" font-size="11" fill="#555" text-anchor="middle">1 response</text>
<path d="M500,108 L620,108" fill="none" stroke="#555" stroke-width="2" marker-end="url(#a)"/>
<text x="566.0" y="101.0" font-size="11" fill="#ffffff" stroke="#ffffff" stroke-width="3" paint-order="stroke" text-anchor="middle">1 request</text>
<text x="566.0" y="101.0" font-size="11" fill="#555" text-anchor="middle">1 request</text>
<path d="M620,130 L500,130" fill="none" stroke="#b8650a" stroke-width="2" marker-end="url(#am)"/>
<text x="566.0" y="143.0" font-size="11" fill="#ffffff" stroke="#ffffff" stroke-width="3" paint-order="stroke" text-anchor="middle">N responses</text>
<text x="566.0" y="143.0" font-size="11" fill="#b8650a" text-anchor="middle">N responses</text>
<path d="M130,268 L250,268" fill="none" stroke="#b8650a" stroke-width="2" marker-end="url(#am)"/>
<text x="196.0" y="261.0" font-size="11" fill="#ffffff" stroke="#ffffff" stroke-width="3" paint-order="stroke" text-anchor="middle">N requests</text>
<text x="196.0" y="261.0" font-size="11" fill="#b8650a" text-anchor="middle">N requests</text>
<path d="M250,290 L130,290" fill="none" stroke="#555" stroke-width="2" marker-end="url(#a)"/>
<text x="196.0" y="303.0" font-size="11" fill="#ffffff" stroke="#ffffff" stroke-width="3" paint-order="stroke" text-anchor="middle">1 response</text>
<text x="196.0" y="303.0" font-size="11" fill="#555" text-anchor="middle">1 response</text>
<path d="M500,277 L620,277" fill="none" stroke="#b8650a" stroke-width="2" marker-start="url(#am)" marker-end="url(#am)"/>
<text x="566.0" y="269.0" font-size="11" fill="#ffffff" stroke="#ffffff" stroke-width="3" paint-order="stroke" text-anchor="middle">N ⇄ N</text>
<text x="566.0" y="269.0" font-size="11" fill="#b8650a" text-anchor="middle">N ⇄ N</text>
</svg>