<svg xmlns="http://www.w3.org/2000/svg" viewBox="0 0 840 180" font-family="'Red Hat Text', system-ui, sans-serif" role="img">
<defs><marker id="a" viewBox="0 0 10 10" refX="8.5" refY="5" markerWidth="9" markerHeight="9" orient="auto-start-reverse"><path d="M0,0 L10,5 L0,10 z" fill="#555"/></marker><marker id="am" viewBox="0 0 10 10" refX="8.5" refY="5" markerWidth="9" markerHeight="9" orient="auto-start-reverse"><path d="M0,0 L10,5 L0,10 z" fill="#b8650a"/></marker></defs>
<rect x="40" y="64" width="170" height="58" rx="9" fill="#fff8ef" stroke="#e8870c" stroke-width="2"/>
<text x="125.0" y="91.0" font-size="13.5" font-weight="700" fill="#111111" text-anchor="middle">ADD</text>
<text x="125.0" y="108.0" font-size="11.5" fill="#555555" text-anchor="middle">additive — always safe</text>
<rect x="252" y="64" width="190" height="58" rx="9" fill="#ffffff" stroke="#111111" stroke-width="2"/>
<text x="347.0" y="91.0" font-size="13.5" font-weight="700" fill="#111111" text-anchor="middle">DEPRECATE</text>
<text x="347.0" y="108.0" font-size="11.5" fill="#555555" text-anchor="middle">reason · replacement · sunset</text>
<rect x="484" y="64" width="160" height="58" rx="9" fill="#ffffff" stroke="#111111" stroke-width="2"/>
<text x="564.0" y="91.0" font-size="13.5" font-weight="700" fill="#111111" text-anchor="middle">MEASURE</text>
<text x="564.0" y="108.0" font-size="11.5" fill="#555555" text-anchor="middle">who is still on it?</text>
<rect x="686" y="64" width="120" height="58" rx="9" fill="#ffffff" stroke="#111111" stroke-width="2"/>
<text x="746.0" y="91.0" font-size="13.5" font-weight="700" fill="#111111" text-anchor="middle">RETIRE</text>
<text x="746.0" y="108.0" font-size="11.5" fill="#555555" text-anchor="middle">after migration</text>
<path d="M210,93 L252,93" fill="none" stroke="#b8650a" stroke-width="2" marker-end="url(#am)"/>
<path d="M442,93 L484,93" fill="none" stroke="#b8650a" stroke-width="2" marker-end="url(#am)"/>
<path d="M644,93 L686,93" fill="none" stroke="#b8650a" stroke-width="2" marker-end="url(#am)"/>
<text x="420" y="150" font-size="11" fill="#1d1d1d" text-anchor="middle">additive change is safe; removal and mutation are where you break people</text>
</svg>