<svg xmlns="http://www.w3.org/2000/svg" viewBox="0 0 770 300" font-family="'Red Hat Text', system-ui, sans-serif" role="img">
<defs><marker id="a" viewBox="0 0 10 10" refX="8.5" refY="5" markerWidth="9" markerHeight="9" orient="auto-start-reverse"><path d="M0,0 L10,5 L0,10 z" fill="#555"/></marker><marker id="am" viewBox="0 0 10 10" refX="8.5" refY="5" markerWidth="9" markerHeight="9" orient="auto-start-reverse"><path d="M0,0 L10,5 L0,10 z" fill="#b8650a"/></marker></defs>
<rect x="40" y="40" width="160" height="52" rx="9" fill="#ffffff" stroke="#111111" stroke-width="2"/>
<text x="120.0" y="71.5" font-size="13.5" font-weight="700" fill="#111111" text-anchor="middle">ws-pod-1</text>
<rect x="40" y="124" width="160" height="52" rx="9" fill="#ffffff" stroke="#111111" stroke-width="2"/>
<text x="120.0" y="155.5" font-size="13.5" font-weight="700" fill="#111111" text-anchor="middle">ws-pod-2 · holds X</text>
<rect x="40" y="208" width="160" height="52" rx="9" fill="#ffffff" stroke="#111111" stroke-width="2"/>
<text x="120.0" y="239.5" font-size="13.5" font-weight="700" fill="#111111" text-anchor="middle">ws-pod-3</text>
<rect x="372" y="112" width="214" height="76" rx="9" fill="#fff8ef" stroke="#e8870c" stroke-width="2"/>
<text x="479.0" y="148.0" font-size="13.5" font-weight="700" fill="#111111" text-anchor="middle">Redis / Kafka backplane</text>
<text x="479.0" y="165.0" font-size="11.5" fill="#555555" text-anchor="middle">every pod sub + pub</text>
<path d="M200,66 L372,140" fill="none" stroke="#b8650a" stroke-width="2" marker-end="url(#am)"/>
<text x="292.0" y="97.0" font-size="11" fill="#ffffff" stroke="#ffffff" stroke-width="3" paint-order="stroke" text-anchor="middle">publish (msg for X)</text>
<text x="292.0" y="97.0" font-size="11" fill="#b8650a" text-anchor="middle">publish (msg for X)</text>
<path d="M372,160 L200,150" fill="none" stroke="#b8650a" stroke-width="2" marker-end="url(#am)"/>
<text x="292.0" y="149.0" font-size="11" fill="#ffffff" stroke="#ffffff" stroke-width="3" paint-order="stroke" text-anchor="middle">deliver to X&#x27;s pod</text>
<text x="292.0" y="149.0" font-size="11" fill="#b8650a" text-anchor="middle">deliver to X&#x27;s pod</text>
<path d="M200,234 L372,172" fill="none" stroke="#555" stroke-width="2" marker-end="url(#a)"/>
<text x="292.0" y="197.0" font-size="11" fill="#ffffff" stroke="#ffffff" stroke-width="3" paint-order="stroke" text-anchor="middle">sub</text>
<text x="292.0" y="197.0" font-size="11" fill="#555" text-anchor="middle">sub</text>
<text x="400" y="274" font-size="11" fill="#1d1d1d" text-anchor="middle">no pod is special — the backplane fans each message to whichever pod holds the client</text>
</svg>