<svg xmlns="http://www.w3.org/2000/svg" viewBox="0 0 760 270" font-family="'Red Hat Text', system-ui, sans-serif" role="img">
<defs><marker id="a" viewBox="0 0 10 10" refX="8.5" refY="5" markerWidth="9" markerHeight="9" orient="auto-start-reverse"><path d="M0,0 L10,5 L0,10 z" fill="#555"/></marker><marker id="am" viewBox="0 0 10 10" refX="8.5" refY="5" markerWidth="9" markerHeight="9" orient="auto-start-reverse"><path d="M0,0 L10,5 L0,10 z" fill="#b8650a"/></marker></defs>
<rect x="20" y="24" width="720" height="92" rx="12" fill="#eef7ee" stroke="#ddd"/>
<text x="32" y="44" font-size="12" font-weight="700" fill="#1d1d1d">forward — each step commits in its own service</text>
<rect x="20" y="150" width="720" height="96" rx="12" fill="#fff4f0" stroke="#ddd"/>
<text x="32" y="170" font-size="12" font-weight="700" fill="#1d1d1d">compensate — semantic inverse, reverse order, only completed steps</text>
<rect x="50" y="56" width="150" height="40" rx="9" fill="#ffffff" stroke="#111111" stroke-width="2"/>
<text x="125.0" y="81.5" font-size="13.5" font-weight="700" fill="#111111" text-anchor="middle">charge_payment</text>
<rect x="250" y="56" width="150" height="40" rx="9" fill="#ffffff" stroke="#111111" stroke-width="2"/>
<text x="325.0" y="81.5" font-size="13.5" font-weight="700" fill="#111111" text-anchor="middle">reserve_stock</text>
<rect x="450" y="56" width="160" height="40" rx="9" fill="#ffffff" stroke="#999999" stroke-width="1.5" stroke-dasharray="6 4"/>
<text x="530.0" y="81.5" font-size="13.5" font-weight="700" fill="#111111" text-anchor="middle">book_shipping  ✗</text>
<rect x="250" y="184" width="150" height="40" rx="9" fill="#ffffff" stroke="#111111" stroke-width="2"/>
<text x="325.0" y="209.5" font-size="13.5" font-weight="700" fill="#111111" text-anchor="middle">release_stock</text>
<rect x="50" y="184" width="150" height="40" rx="9" fill="#ffffff" stroke="#111111" stroke-width="2"/>
<text x="125.0" y="209.5" font-size="13.5" font-weight="700" fill="#111111" text-anchor="middle">refund_payment</text>
<path d="M200,76 L250,76" fill="none" stroke="#b8650a" stroke-width="2" marker-end="url(#am)"/>
<path d="M400,76 L450,76" fill="none" stroke="#b8650a" stroke-width="2" marker-end="url(#am)"/>
<path d="M520,96 L325,184" fill="none" stroke="#b8650a" stroke-width="2" marker-end="url(#am)"/>
<text x="428.5" y="134.0" font-size="11" fill="#ffffff" stroke="#ffffff" stroke-width="3" paint-order="stroke" text-anchor="middle">fails → unwind</text>
<text x="428.5" y="134.0" font-size="11" fill="#b8650a" text-anchor="middle">fails → unwind</text>
<path d="M250,204 L200,204" fill="none" stroke="#b8650a" stroke-width="2" marker-end="url(#am)"/>
<text x="231.0" y="198.0" font-size="11" fill="#ffffff" stroke="#ffffff" stroke-width="3" paint-order="stroke" text-anchor="middle">reverse order</text>
<text x="231.0" y="198.0" font-size="11" fill="#b8650a" text-anchor="middle">reverse order</text>
<text x="400" y="260" font-size="11" fill="#1d1d1d" text-anchor="middle">no cross-service rollback exists — you run defined inverses, newest first</text>
</svg>