<svg xmlns="http://www.w3.org/2000/svg" viewBox="0 0 760 400" font-family="'Red Hat Text', system-ui, sans-serif" role="img">
<defs><marker id="a" viewBox="0 0 10 10" refX="8.5" refY="5" markerWidth="9" markerHeight="9" orient="auto-start-reverse"><path d="M0,0 L10,5 L0,10 z" fill="#555"/></marker><marker id="am" viewBox="0 0 10 10" refX="8.5" refY="5" markerWidth="9" markerHeight="9" orient="auto-start-reverse"><path d="M0,0 L10,5 L0,10 z" fill="#b8650a"/></marker></defs>
<rect x="36" y="56" width="340" height="150" rx="12" fill="#fafafa" stroke="#ddd"/>
<text x="48" y="76" font-size="12" font-weight="700" fill="#1d1d1d">Complex — probe · sense · respond</text>
<rect x="388" y="56" width="340" height="150" rx="12" fill="#fafafa" stroke="#ddd"/>
<text x="400" y="76" font-size="12" font-weight="700" fill="#1d1d1d">Complicated — sense · analyse · respond</text>
<rect x="36" y="222" width="340" height="150" rx="12" fill="#fff8ef" stroke="#ddd"/>
<text x="48" y="242" font-size="12" font-weight="700" fill="#1d1d1d">Chaotic — act · sense · respond</text>
<rect x="388" y="222" width="340" height="150" rx="12" fill="#fafafa" stroke="#ddd"/>
<text x="400" y="242" font-size="12" font-weight="700" fill="#1d1d1d">Clear — sense · categorise · respond</text>
<rect x="56" y="98" width="300" height="92" rx="9" fill="#ffffff" stroke="#111111" stroke-width="2"/>
<text x="206.0" y="134.5" font-size="13.5" font-weight="700" fill="#111111" text-anchor="middle">Loose &amp; reversible</text>
<text x="206.0" y="151.5" font-size="11.5" fill="#555555" text-anchor="middle">favour events / contracts;</text>
<text x="206.0" y="166.5" font-size="11.5" fill="#555555" text-anchor="middle">don&#x27;t split prematurely</text>
<rect x="408" y="98" width="300" height="92" rx="9" fill="#ffffff" stroke="#111111" stroke-width="2"/>
<text x="558.0" y="134.5" font-size="13.5" font-weight="700" fill="#111111" text-anchor="middle">Design boundaries deliberately</text>
<text x="558.0" y="151.5" font-size="11.5" fill="#555555" text-anchor="middle">DDD context mapping;</text>
<text x="558.0" y="166.5" font-size="11.5" fill="#555555" text-anchor="middle">invest in the right contracts</text>
<rect x="56" y="264" width="300" height="92" rx="9" fill="#fff8ef" stroke="#e8870c" stroke-width="2"/>
<text x="206.0" y="300.5" font-size="13.5" font-weight="700" fill="#111111" text-anchor="middle">Stabilise first</text>
<text x="206.0" y="317.5" font-size="11.5" fill="#555555" text-anchor="middle">strong &amp; local (even a monolith),</text>
<text x="206.0" y="332.5" font-size="11.5" fill="#555555" text-anchor="middle">then refactor as it clarifies</text>
<rect x="408" y="264" width="300" height="92" rx="9" fill="#ffffff" stroke="#111111" stroke-width="2"/>
<text x="558.0" y="300.5" font-size="13.5" font-weight="700" fill="#111111" text-anchor="middle">Standardise on contract coupling</text>
<text x="558.0" y="317.5" font-size="11.5" fill="#555555" text-anchor="middle">codify the known-good;</text>
<text x="558.0" y="332.5" font-size="11.5" fill="#555555" text-anchor="middle">registry-checked schemas</text>
</svg>