<svg xmlns="http://www.w3.org/2000/svg" viewBox="0 0 1180 540" font-family="'Red Hat Text', system-ui, sans-serif" role="img">
<defs><marker id="a" viewBox="0 0 10 10" refX="8.5" refY="5" markerWidth="9" markerHeight="9" orient="auto-start-reverse"><path d="M0,0 L10,5 L0,10 z" fill="#555"/></marker><marker id="am" viewBox="0 0 10 10" refX="8.5" refY="5" markerWidth="9" markerHeight="9" orient="auto-start-reverse"><path d="M0,0 L10,5 L0,10 z" fill="#b8650a"/></marker></defs>
<rect x="40" y="66" width="600" height="44" rx="9" fill="#ffffff" stroke="#111111" stroke-width="2"/>
<text x="340.0" y="93.5" font-size="13.5" font-weight="700" fill="#111111" text-anchor="middle">TLS termination</text>
<rect x="660" y="66" width="200" height="44" rx="9" fill="#ffffff" stroke="#999999" stroke-width="1.5" stroke-dasharray="6 4"/>
<text x="760.0" y="93.5" font-size="13.5" font-weight="700" fill="#111111" text-anchor="middle">0.5 – 2 ms</text>
<rect x="40" y="118" width="600" height="44" rx="9" fill="#ffffff" stroke="#111111" stroke-width="2"/>
<text x="340.0" y="145.5" font-size="13.5" font-weight="700" fill="#111111" text-anchor="middle">L7 path / header routing</text>
<rect x="660" y="118" width="200" height="44" rx="9" fill="#ffffff" stroke="#999999" stroke-width="1.5" stroke-dasharray="6 4"/>
<text x="760.0" y="145.5" font-size="13.5" font-weight="700" fill="#111111" text-anchor="middle">&lt; 1 ms</text>
<rect x="40" y="170" width="600" height="44" rx="9" fill="#ffffff" stroke="#999999" stroke-width="1.5"/>
<text x="340.0" y="197.5" font-size="13.5" font-weight="700" fill="#111111" text-anchor="middle">Auth / JWT validation</text>
<rect x="660" y="170" width="200" height="44" rx="9" fill="#ffffff" stroke="#999999" stroke-width="1.5" stroke-dasharray="6 4"/>
<text x="760.0" y="197.5" font-size="13.5" font-weight="700" fill="#111111" text-anchor="middle">1 – 5 ms</text>
<rect x="40" y="222" width="600" height="44" rx="9" fill="#ffffff" stroke="#999999" stroke-width="1.5"/>
<text x="340.0" y="249.5" font-size="13.5" font-weight="700" fill="#111111" text-anchor="middle">WAF inspection</text>
<rect x="660" y="222" width="200" height="44" rx="9" fill="#ffffff" stroke="#999999" stroke-width="1.5" stroke-dasharray="6 4"/>
<text x="760.0" y="249.5" font-size="13.5" font-weight="700" fill="#111111" text-anchor="middle">2 – 5 ms</text>
<rect x="40" y="274" width="600" height="44" rx="9" fill="#f4f4f4" stroke="#888888" stroke-width="1.5"/>
<text x="340.0" y="301.5" font-size="13.5" font-weight="700" fill="#111111" text-anchor="middle">Mesh sidecar (mTLS + retry)</text>
<rect x="660" y="274" width="200" height="44" rx="9" fill="#ffffff" stroke="#999999" stroke-width="1.5" stroke-dasharray="6 4"/>
<text x="760.0" y="301.5" font-size="13.5" font-weight="700" fill="#111111" text-anchor="middle">0.5 – 2 ms / hop</text>
<rect x="40" y="326" width="600" height="44" rx="9" fill="#fff8ef" stroke="#e8870c" stroke-width="2"/>
<text x="340.0" y="353.5" font-size="13.5" font-weight="700" fill="#111111" text-anchor="middle">Rate-limit lookup (Redis)</text>
<rect x="660" y="326" width="200" height="44" rx="9" fill="#ffffff" stroke="#999999" stroke-width="1.5" stroke-dasharray="6 4"/>
<text x="760.0" y="353.5" font-size="13.5" font-weight="700" fill="#111111" text-anchor="middle">1 – 3 ms</text>
<rect x="40" y="378" width="600" height="44" rx="9" fill="#fff8ef" stroke="#e8870c" stroke-width="2"/>
<text x="340.0" y="405.5" font-size="13.5" font-weight="700" fill="#111111" text-anchor="middle">Body / payload inspection</text>
<rect x="660" y="378" width="200" height="44" rx="9" fill="#ffffff" stroke="#999999" stroke-width="1.5" stroke-dasharray="6 4"/>
<text x="760.0" y="405.5" font-size="13.5" font-weight="700" fill="#111111" text-anchor="middle">5 – 50 ms</text>
<rect x="40" y="430" width="600" height="44" rx="9" fill="#fff8ef" stroke="#e8870c" stroke-width="2"/>
<text x="340.0" y="457.5" font-size="13.5" font-weight="700" fill="#111111" text-anchor="middle">In-app rule eval (durable-rules)</text>
<rect x="660" y="430" width="200" height="44" rx="9" fill="#ffffff" stroke="#999999" stroke-width="1.5" stroke-dasharray="6 4"/>
<text x="760.0" y="457.5" font-size="13.5" font-weight="700" fill="#111111" text-anchor="middle">&lt; 1 ms (cached)</text>
<rect x="890" y="150" width="250" height="190" rx="9" fill="#fff8ef" stroke="#e8870c" stroke-width="2"/>
<text x="1015.0" y="205.5" font-size="13.5" font-weight="700" fill="#111111" text-anchor="middle">rule of thumb</text>
<text x="1015.0" y="222.5" font-size="11.5" fill="#555555" text-anchor="middle"></text>
<text x="1015.0" y="237.5" font-size="11.5" fill="#555555" text-anchor="middle">stay under ~10 ms total</text>
<text x="1015.0" y="252.5" font-size="11.5" fill="#555555" text-anchor="middle">L7 on hot paths</text>
<text x="1015.0" y="267.5" font-size="11.5" fill="#555555" text-anchor="middle"></text>
<text x="1015.0" y="282.5" font-size="11.5" fill="#555555" text-anchor="middle">every hop must</text>
<text x="1015.0" y="297.5" font-size="11.5" fill="#555555" text-anchor="middle">earn its place</text>
<text x="450" y="510" font-size="12" fill="#2f6db5" text-anchor="middle">the budget is finite — two layers can be cheap; four layers of overlap is where p99 goes to die</text>
</svg>