<svg xmlns="http://www.w3.org/2000/svg" viewBox="0 0 1180 240" font-family="'Red Hat Text', system-ui, sans-serif" role="img">
<defs><marker id="a" viewBox="0 0 10 10" refX="8.5" refY="5" markerWidth="9" markerHeight="9" orient="auto-start-reverse"><path d="M0,0 L10,5 L0,10 z" fill="#555"/></marker><marker id="am" viewBox="0 0 10 10" refX="8.5" refY="5" markerWidth="9" markerHeight="9" orient="auto-start-reverse"><path d="M0,0 L10,5 L0,10 z" fill="#b8650a"/></marker></defs>
<rect x="20" y="60" width="210" height="92" rx="9" fill="#fff8ef" stroke="#e8870c" stroke-width="2"/>
<text x="125.0" y="104.0" font-size="13.5" font-weight="700" fill="#111111" text-anchor="middle">Client</text>
<text x="125.0" y="121.0" font-size="11.5" fill="#555555" text-anchor="middle">request</text>
<rect x="250" y="60" width="210" height="92" rx="9" fill="#ffffff" stroke="#111111" stroke-width="2"/>
<text x="355.0" y="104.0" font-size="13.5" font-weight="700" fill="#111111" text-anchor="middle">Edge LB</text>
<text x="355.0" y="121.0" font-size="11.5" fill="#555555" text-anchor="middle">TLS, host / path</text>
<rect x="480" y="60" width="210" height="92" rx="9" fill="#ffffff" stroke="#999999" stroke-width="1.5"/>
<text x="585.0" y="104.0" font-size="13.5" font-weight="700" fill="#111111" text-anchor="middle">API Gateway</text>
<text x="585.0" y="121.0" font-size="11.5" fill="#555555" text-anchor="middle">auth, rate-limit</text>
<rect x="710" y="60" width="210" height="92" rx="9" fill="#f4f4f4" stroke="#888888" stroke-width="1.5"/>
<text x="815.0" y="104.0" font-size="13.5" font-weight="700" fill="#111111" text-anchor="middle">Mesh sidecar</text>
<text x="815.0" y="121.0" font-size="11.5" fill="#555555" text-anchor="middle">mTLS, retry, locality</text>
<rect x="940" y="60" width="210" height="92" rx="9" fill="#fff8ef" stroke="#e8870c" stroke-width="2"/>
<text x="1045.0" y="104.0" font-size="13.5" font-weight="700" fill="#111111" text-anchor="middle">Service</text>
<text x="1045.0" y="121.0" font-size="11.5" fill="#555555" text-anchor="middle">in-app routing</text>
<path d="M230,106 L250,106" fill="none" stroke="#555" stroke-width="2" marker-end="url(#a)"/>
<path d="M460,106 L480,106" fill="none" stroke="#555" stroke-width="2" marker-end="url(#a)"/>
<path d="M690,106 L710,106" fill="none" stroke="#555" stroke-width="2" marker-end="url(#a)"/>
<path d="M920,106 L940,106" fill="none" stroke="#555" stroke-width="2" marker-end="url(#a)"/>
<text x="590" y="205" font-size="12" fill="#2f6db5" text-anchor="middle">each box can refuse, transform, or branch the request — what looks like one HTTP request is a chain of L7 decisions by independent components</text>
</svg>