<svg xmlns="http://www.w3.org/2000/svg" viewBox="0 0 1180 470" font-family="'Red Hat Text', system-ui, sans-serif" role="img">
<defs><marker id="a" viewBox="0 0 10 10" refX="8.5" refY="5" markerWidth="9" markerHeight="9" orient="auto-start-reverse"><path d="M0,0 L10,5 L0,10 z" fill="#555"/></marker><marker id="am" viewBox="0 0 10 10" refX="8.5" refY="5" markerWidth="9" markerHeight="9" orient="auto-start-reverse"><path d="M0,0 L10,5 L0,10 z" fill="#b8650a"/></marker></defs>
<rect x="240" y="68" width="900" height="228" rx="12" fill="#fdf3e3" stroke="#ddd"/>
<text x="252" y="88" font-size="12" font-weight="700" fill="#1d1d1d">The monolith — a single deployable</text>
<rect x="258" y="112" width="186" height="46" rx="9" fill="#ffffff" stroke="#999999" stroke-width="1.5"/>
<text x="351.0" y="140.5" font-size="13.5" font-weight="700" fill="#111111" text-anchor="middle">Auth</text>
<rect x="470" y="112" width="186" height="46" rx="9" fill="#ffffff" stroke="#999999" stroke-width="1.5"/>
<text x="563.0" y="140.5" font-size="13.5" font-weight="700" fill="#111111" text-anchor="middle">Orders</text>
<rect x="682" y="112" width="186" height="46" rx="9" fill="#ffffff" stroke="#999999" stroke-width="1.5"/>
<text x="775.0" y="140.5" font-size="13.5" font-weight="700" fill="#111111" text-anchor="middle">Inventory</text>
<rect x="894" y="112" width="186" height="46" rx="9" fill="#ffffff" stroke="#999999" stroke-width="1.5"/>
<text x="987.0" y="140.5" font-size="13.5" font-weight="700" fill="#111111" text-anchor="middle">Catalog</text>
<rect x="258" y="170" width="186" height="46" rx="9" fill="#ffffff" stroke="#999999" stroke-width="1.5"/>
<text x="351.0" y="198.5" font-size="13.5" font-weight="700" fill="#111111" text-anchor="middle">Payments</text>
<rect x="470" y="170" width="186" height="46" rx="9" fill="#ffffff" stroke="#999999" stroke-width="1.5"/>
<text x="563.0" y="198.5" font-size="13.5" font-weight="700" fill="#111111" text-anchor="middle">Shipping</text>
<rect x="682" y="170" width="186" height="46" rx="9" fill="#ffffff" stroke="#999999" stroke-width="1.5"/>
<text x="775.0" y="198.5" font-size="13.5" font-weight="700" fill="#111111" text-anchor="middle">Reporting</text>
<rect x="894" y="170" width="186" height="46" rx="9" fill="#ffffff" stroke="#999999" stroke-width="1.5"/>
<text x="987.0" y="198.5" font-size="13.5" font-weight="700" fill="#111111" text-anchor="middle">Notifications</text>
<rect x="258" y="228" width="186" height="46" rx="9" fill="#ffffff" stroke="#999999" stroke-width="1.5"/>
<text x="351.0" y="256.5" font-size="13.5" font-weight="700" fill="#111111" text-anchor="middle">Admin</text>
<rect x="470" y="228" width="186" height="46" rx="9" fill="#ffffff" stroke="#999999" stroke-width="1.5"/>
<text x="563.0" y="256.5" font-size="13.5" font-weight="700" fill="#111111" text-anchor="middle">Pricing</text>
<rect x="682" y="228" width="186" height="46" rx="9" fill="#ffffff" stroke="#999999" stroke-width="1.5"/>
<text x="775.0" y="256.5" font-size="13.5" font-weight="700" fill="#111111" text-anchor="middle">Returns</text>
<rect x="894" y="228" width="186" height="46" rx="9" fill="#ffffff" stroke="#999999" stroke-width="1.5"/>
<text x="987.0" y="256.5" font-size="13.5" font-weight="700" fill="#111111" text-anchor="middle">Search</text>
<rect x="40" y="138" width="170" height="58" rx="9" fill="#ffffff" stroke="#111111" stroke-width="2"/>
<text x="125.0" y="172.5" font-size="13.5" font-weight="700" fill="#111111" text-anchor="middle">Web / mobile</text>
<rect x="40" y="210" width="170" height="58" rx="9" fill="#ffffff" stroke="#111111" stroke-width="2"/>
<text x="125.0" y="244.5" font-size="13.5" font-weight="700" fill="#111111" text-anchor="middle">Other systems</text>
<rect x="440" y="330" width="480" height="74" rx="9" fill="#ffffff" stroke="#999999" stroke-width="1.5" stroke-dasharray="6 4"/>
<text x="680.0" y="365.0" font-size="13.5" font-weight="700" fill="#111111" text-anchor="middle">One shared database</text>
<text x="680.0" y="382.0" font-size="11.5" fill="#555555" text-anchor="middle">tables read / written by every module · schema-level coupling everywhere</text>
<path d="M210,167 L240,167" fill="none" stroke="#555" stroke-width="2" marker-end="url(#a)"/>
<path d="M210,239 L240,210" fill="none" stroke="#555" stroke-width="2" marker-end="url(#a)"/>
<path d="M690,296 L685,330" fill="none" stroke="#555" stroke-width="2" marker-start="url(#a)" marker-end="url(#a)"/>
<text x="590" y="420" font-size="12" fill="#a23" text-anchor="middle">change anywhere → redeploy everything · a bug in Reporting can take down Payments · one scaling unit for very different workloads</text>
<text x="590" y="450" font-size="12" fill="#555" text-anchor="middle">not always wrong — often the simplest, fastest path to value when the system fits in one team&#x27;s head</text>
</svg>