<svg xmlns="http://www.w3.org/2000/svg" viewBox="0 0 760 312" font-family="'Red Hat Text', system-ui, sans-serif" role="img">
<defs><marker id="a" viewBox="0 0 10 10" refX="8.5" refY="5" markerWidth="9" markerHeight="9" orient="auto-start-reverse"><path d="M0,0 L10,5 L0,10 z" fill="#555"/></marker><marker id="am" viewBox="0 0 10 10" refX="8.5" refY="5" markerWidth="9" markerHeight="9" orient="auto-start-reverse"><path d="M0,0 L10,5 L0,10 z" fill="#b8650a"/></marker></defs>
<rect x="40" y="118" width="130" height="64" rx="9" fill="#fff8ef" stroke="#e8870c" stroke-width="2"/>
<text x="105.0" y="155.5" font-size="13.5" font-weight="700" fill="#111111" text-anchor="middle">Client</text>
<rect x="250" y="104" width="200" height="92" rx="9" fill="#eef4fb" stroke="#2f6db5" stroke-width="2"/>
<text x="350.0" y="133.0" font-size="13.5" font-weight="700" fill="#111111" text-anchor="middle">Application</text>
<text x="350.0" y="150.0" font-size="11.5" fill="#555555" text-anchor="middle">write request</text>
<text x="350.0" y="165.0" font-size="11.5" fill="#555555" text-anchor="middle">→ cache, ack now</text>
<text x="350.0" y="180.0" font-size="11.5" fill="#555555" text-anchor="middle">durability is later</text>
<rect x="548" y="66" width="176" height="58" rx="9" fill="#ffffff" stroke="#111111" stroke-width="2"/>
<text x="636.0" y="100.5" font-size="13.5" font-weight="700" fill="#111111" text-anchor="middle">Cache (Redis)</text>
<rect x="548" y="176" width="176" height="58" rx="9" fill="#ffffff" stroke="#111111" stroke-width="2"/>
<text x="636.0" y="210.5" font-size="13.5" font-weight="700" fill="#111111" text-anchor="middle">Database</text>
<rect x="300" y="248" width="210" height="40" rx="9" fill="#ffffff" stroke="#999999" stroke-width="1.5"/>
<text x="405.0" y="273.5" font-size="13.5" font-weight="700" fill="#111111" text-anchor="middle">Background flusher (batched)</text>
<path d="M170,150 L250,150" fill="none" stroke="#555" stroke-width="2" marker-end="url(#a)"/>
<text x="216.0" y="142.0" font-size="11" fill="#ffffff" stroke="#ffffff" stroke-width="3" paint-order="stroke" text-anchor="middle">write</text>
<text x="216.0" y="142.0" font-size="11" fill="#555" text-anchor="middle">write</text>
<path d="M450,116 L548,96" fill="none" stroke="#b8650a" stroke-width="2" marker-end="url(#am)"/>
<text x="505.0" y="98.0" font-size="11" fill="#ffffff" stroke="#ffffff" stroke-width="3" paint-order="stroke" text-anchor="middle">1 write + ack</text>
<text x="505.0" y="98.0" font-size="11" fill="#b8650a" text-anchor="middle">1 write + ack</text>
<path d="M560,124 L440,246" fill="none" stroke="#555" stroke-width="2" stroke-dasharray="5 4" marker-end="url(#a)"/>
<text x="474.0" y="179.0" font-size="11" fill="#ffffff" stroke="#ffffff" stroke-width="3" paint-order="stroke" text-anchor="middle">drain dirty</text>
<text x="474.0" y="179.0" font-size="11" fill="#555" text-anchor="middle">drain dirty</text>
<path d="M512,246 L556,210" fill="none" stroke="#555" stroke-width="2" marker-end="url(#a)"/>
<text x="540.0" y="246.0" font-size="11" fill="#ffffff" stroke="#ffffff" stroke-width="3" paint-order="stroke" text-anchor="middle">2 flush (async)</text>
<text x="540.0" y="246.0" font-size="11" fill="#555" text-anchor="middle">2 flush (async)</text>
<text x="400" y="300" font-size="11" fill="#8a4b06" text-anchor="middle">write latency = cache latency; a background flusher drains to the DB — a crash before flush loses unpersisted writes</text>
</svg>