<svg xmlns="http://www.w3.org/2000/svg" viewBox="0 0 900 300" font-family="'Red Hat Text', system-ui, sans-serif" role="img">
<defs><marker id="a" viewBox="0 0 10 10" refX="8.5" refY="5" markerWidth="9" markerHeight="9" orient="auto-start-reverse"><path d="M0,0 L10,5 L0,10 z" fill="#555"/></marker><marker id="am" viewBox="0 0 10 10" refX="8.5" refY="5" markerWidth="9" markerHeight="9" orient="auto-start-reverse"><path d="M0,0 L10,5 L0,10 z" fill="#b8650a"/></marker></defs>
<rect x="40" y="70" width="360" height="150" rx="12" fill="#eef3fb" stroke="#ddd"/>
<text x="52" y="90" font-size="12" font-weight="700" fill="#1d1d1d">Partition A (3 nodes — majority)</text>
<rect x="500" y="70" width="360" height="150" rx="12" fill="#eef3fb" stroke="#ddd"/>
<text x="512" y="90" font-size="12" font-weight="700" fill="#1d1d1d">Partition B (2 nodes — minority)</text>
<rect x="60" y="120" width="100" height="54" rx="9" fill="#ffffff" stroke="#111111" stroke-width="2"/>
<text x="110.0" y="152.5" font-size="13.5" font-weight="700" fill="#111111" text-anchor="middle">node-1</text>
<rect x="172" y="120" width="100" height="54" rx="9" fill="#ffffff" stroke="#111111" stroke-width="2"/>
<text x="222.0" y="152.5" font-size="13.5" font-weight="700" fill="#111111" text-anchor="middle">node-2</text>
<rect x="284" y="120" width="100" height="54" rx="9" fill="#ffffff" stroke="#111111" stroke-width="2"/>
<text x="334.0" y="152.5" font-size="13.5" font-weight="700" fill="#111111" text-anchor="middle">node-3</text>
<rect x="540" y="120" width="100" height="54" rx="9" fill="#ffffff" stroke="#111111" stroke-width="2"/>
<text x="590.0" y="152.5" font-size="13.5" font-weight="700" fill="#111111" text-anchor="middle">node-4</text>
<rect x="652" y="120" width="100" height="54" rx="9" fill="#ffffff" stroke="#111111" stroke-width="2"/>
<text x="702.0" y="152.5" font-size="13.5" font-weight="700" fill="#111111" text-anchor="middle">node-5</text>
<path d="M400,147 L500,147" fill="none" stroke="#b8650a" stroke-width="2" marker-end="url(#am)"/>
<text x="456.0" y="137.0" font-size="11" fill="#ffffff" stroke="#ffffff" stroke-width="3" paint-order="stroke" text-anchor="middle">✕ link down</text>
<text x="456.0" y="137.0" font-size="11" fill="#b8650a" text-anchor="middle">✕ link down</text>
<text x="450" y="250" font-size="11" fill="#333333" text-anchor="middle" font-weight="700">every node is healthy — the network between them failed</text>
<text x="450" y="272" font-size="11" fill="#8a4b06" text-anchor="middle">CAP: stay consistent (minority refuses writes) or available (both accept, reconcile later) — not both</text>
</svg>