<svg xmlns="http://www.w3.org/2000/svg" viewBox="0 0 900 330" font-family="'Red Hat Text', system-ui, sans-serif" role="img">
<defs><marker id="a" viewBox="0 0 10 10" refX="8.5" refY="5" markerWidth="9" markerHeight="9" orient="auto-start-reverse"><path d="M0,0 L10,5 L0,10 z" fill="#555"/></marker><marker id="am" viewBox="0 0 10 10" refX="8.5" refY="5" markerWidth="9" markerHeight="9" orient="auto-start-reverse"><path d="M0,0 L10,5 L0,10 z" fill="#b8650a"/></marker></defs>
<rect x="350" y="138" width="200" height="64" rx="9" fill="#fff8ef" stroke="#e8870c" stroke-width="2"/>
<text x="450.0" y="168.0" font-size="13.5" font-weight="700" fill="#111111" text-anchor="middle">Flag control plane</text>
<text x="450.0" y="185.0" font-size="11.5" fill="#555555" text-anchor="middle">flagd · runtime config</text>
<rect x="40" y="56" width="230" height="54" rx="9" fill="#ffffff" stroke="#111111" stroke-width="2"/>
<text x="155.0" y="81.0" font-size="13.5" font-weight="700" fill="#111111" text-anchor="middle">Kill-switch → disable a dep</text>
<text x="155.0" y="98.0" font-size="11.5" fill="#555555" text-anchor="middle">(pairs with the circuit breaker)</text>
<rect x="630" y="56" width="230" height="54" rx="9" fill="#ffffff" stroke="#111111" stroke-width="2"/>
<text x="745.0" y="81.0" font-size="13.5" font-weight="700" fill="#111111" text-anchor="middle">Canary → flag + L7 routing</text>
<text x="745.0" y="98.0" font-size="11.5" fill="#555555" text-anchor="middle">(the routing appendix)</text>
<rect x="40" y="228" width="230" height="54" rx="9" fill="#ffffff" stroke="#111111" stroke-width="2"/>
<text x="155.0" y="253.0" font-size="13.5" font-weight="700" fill="#111111" text-anchor="middle">Strangler cutover → route %</text>
<text x="155.0" y="270.0" font-size="11.5" fill="#555555" text-anchor="middle">(monolith → microservices)</text>
<rect x="630" y="228" width="230" height="54" rx="9" fill="#ffffff" stroke="#111111" stroke-width="2"/>
<text x="745.0" y="253.0" font-size="13.5" font-weight="700" fill="#111111" text-anchor="middle">Experiment → pick a variant</text>
<text x="745.0" y="270.0" font-size="11.5" fill="#555555" text-anchor="middle">(sticky-bucketed)</text>
<path d="M350,160 L270,92" fill="none" stroke="#b8650a" stroke-width="2" marker-end="url(#am)"/>
<path d="M550,160 L630,92" fill="none" stroke="#b8650a" stroke-width="2" marker-end="url(#am)"/>
<path d="M350,182 L270,248" fill="none" stroke="#b8650a" stroke-width="2" marker-end="url(#am)"/>
<path d="M550,182 L630,248" fill="none" stroke="#b8650a" stroke-width="2" marker-end="url(#am)"/>
<text x="450" y="312" font-size="11" fill="#2f6db5" text-anchor="middle">a flag is a runtime control surface — the same decoupling that powers canaries, cutovers, kill-switches, and experiments</text>
</svg>