<svg xmlns="http://www.w3.org/2000/svg" viewBox="0 0 920 320" font-family="'Red Hat Text', system-ui, sans-serif" role="img">
<defs><marker id="a" viewBox="0 0 10 10" refX="8.5" refY="5" markerWidth="9" markerHeight="9" orient="auto-start-reverse"><path d="M0,0 L10,5 L0,10 z" fill="#555"/></marker><marker id="am" viewBox="0 0 10 10" refX="8.5" refY="5" markerWidth="9" markerHeight="9" orient="auto-start-reverse"><path d="M0,0 L10,5 L0,10 z" fill="#b8650a"/></marker></defs>
<rect x="40" y="120" width="200" height="80" rx="9" fill="#fff8ef" stroke="#e8870c" stroke-width="2"/>
<text x="140.0" y="150.5" font-size="13.5" font-weight="700" fill="#111111" text-anchor="middle">One collection</text>
<text x="140.0" y="167.5" font-size="11.5" fill="#555555" text-anchor="middle">newman run</text>
<text x="140.0" y="182.5" font-size="11.5" fill="#555555" text-anchor="middle">tests the HTTP contract</text>
<rect x="640" y="40" width="240" height="44" rx="9" fill="#ffffff" stroke="#111111" stroke-width="2"/>
<text x="760.0" y="67.5" font-size="13.5" font-weight="700" fill="#111111" text-anchor="middle">order-service · Spring Boot</text>
<rect x="640" y="96" width="240" height="44" rx="9" fill="#ffffff" stroke="#111111" stroke-width="2"/>
<text x="760.0" y="123.5" font-size="13.5" font-weight="700" fill="#111111" text-anchor="middle">order-service · Quarkus</text>
<rect x="640" y="152" width="240" height="44" rx="9" fill="#ffffff" stroke="#111111" stroke-width="2"/>
<text x="760.0" y="179.5" font-size="13.5" font-weight="700" fill="#111111" text-anchor="middle">order-service · .NET</text>
<rect x="640" y="208" width="240" height="44" rx="9" fill="#ffffff" stroke="#111111" stroke-width="2"/>
<text x="760.0" y="235.5" font-size="13.5" font-weight="700" fill="#111111" text-anchor="middle">order-service · Python</text>
<rect x="640" y="264" width="240" height="44" rx="9" fill="#ffffff" stroke="#111111" stroke-width="2"/>
<text x="760.0" y="291.5" font-size="13.5" font-weight="700" fill="#111111" text-anchor="middle">order-service · C++</text>
<rect x="340" y="140" width="200" height="44" rx="9" fill="#eef4fb" stroke="#2f6db5" stroke-width="2"/>
<text x="440.0" y="160.0" font-size="13.5" font-weight="700" fill="#111111" text-anchor="middle">same HTTP API</text>
<text x="440.0" y="177.0" font-size="11.5" fill="#555555" text-anchor="middle">/orders, /payments …</text>
<path d="M240,160 L340,162" fill="none" stroke="#555" stroke-width="2" marker-end="url(#a)"/>
<path d="M540,150 L640,62" fill="none" stroke="#555" stroke-width="2" stroke-dasharray="5 4" marker-end="url(#a)"/>
<path d="M540,158 L640,118" fill="none" stroke="#555" stroke-width="2" marker-end="url(#a)"/>
<path d="M540,162 L640,174" fill="none" stroke="#555" stroke-width="2" marker-end="url(#a)"/>
<path d="M540,166 L640,230" fill="none" stroke="#555" stroke-width="2" marker-end="url(#a)"/>
<path d="M540,174 L640,286" fill="none" stroke="#555" stroke-width="2" stroke-dasharray="5 4" marker-end="url(#a)"/>
<text x="460" y="304" font-size="11" fill="#333" text-anchor="middle" font-weight="700">because Newman tests the API as a black box, one collection validates every implementation — the contract is the spec, not the code</text>
</svg>