<svg xmlns="http://www.w3.org/2000/svg" viewBox="0 0 920 320" font-family="'Red Hat Text', system-ui, sans-serif" role="img">
<defs><marker id="a" viewBox="0 0 10 10" refX="8.5" refY="5" markerWidth="9" markerHeight="9" orient="auto-start-reverse"><path d="M0,0 L10,5 L0,10 z" fill="#555"/></marker><marker id="am" viewBox="0 0 10 10" refX="8.5" refY="5" markerWidth="9" markerHeight="9" orient="auto-start-reverse"><path d="M0,0 L10,5 L0,10 z" fill="#b8650a"/></marker></defs>
<rect x="40" y="90" width="160" height="60" rx="9" fill="#ffffff" stroke="#111111" stroke-width="2"/>
<text x="120.0" y="118.0" font-size="13.5" font-weight="700" fill="#111111" text-anchor="middle">Collection</text>
<text x="120.0" y="135.0" font-size="11.5" fill="#555555" text-anchor="middle">the suite</text>
<rect x="250" y="90" width="160" height="60" rx="9" fill="#ffffff" stroke="#999999" stroke-width="1.5"/>
<text x="330.0" y="118.0" font-size="13.5" font-weight="700" fill="#111111" text-anchor="middle">Folders</text>
<text x="330.0" y="135.0" font-size="11.5" fill="#555555" text-anchor="middle">group by resource</text>
<rect x="460" y="70" width="180" height="100" rx="9" fill="#fff8ef" stroke="#e8870c" stroke-width="2"/>
<text x="550.0" y="103.0" font-size="13.5" font-weight="700" fill="#111111" text-anchor="middle">Request</text>
<text x="550.0" y="120.0" font-size="11.5" fill="#555555" text-anchor="middle">pre-request script</text>
<text x="550.0" y="135.0" font-size="11.5" fill="#555555" text-anchor="middle">the HTTP call</text>
<text x="550.0" y="150.0" font-size="11.5" fill="#555555" text-anchor="middle">tests (assertions)</text>
<rect x="700" y="70" width="190" height="100" rx="9" fill="#ffffff" stroke="#111111" stroke-width="2"/>
<text x="795.0" y="103.0" font-size="13.5" font-weight="700" fill="#111111" text-anchor="middle">Tests (JS)</text>
<text x="795.0" y="120.0" font-size="11.5" fill="#555555" text-anchor="middle">pm.test(...)</text>
<text x="795.0" y="135.0" font-size="11.5" fill="#555555" text-anchor="middle">pm.expect(...)</text>
<text x="795.0" y="150.0" font-size="11.5" fill="#555555" text-anchor="middle">status · schema · time</text>
<rect x="460" y="210" width="180" height="56" rx="9" fill="#ffffff" stroke="#999999" stroke-width="1.5" stroke-dasharray="6 4"/>
<text x="550.0" y="236.0" font-size="13.5" font-weight="700" fill="#111111" text-anchor="middle">Environment vars</text>
<text x="550.0" y="253.0" font-size="11.5" fill="#555555" text-anchor="middle">{{base_url}}, {{token}}</text>
<path d="M200,120 L250,120" fill="none" stroke="#555" stroke-width="2" marker-end="url(#a)"/>
<path d="M410,120 L460,120" fill="none" stroke="#555" stroke-width="2" marker-end="url(#a)"/>
<path d="M640,120 L700,120" fill="none" stroke="#b8650a" stroke-width="2" marker-end="url(#am)"/>
<path d="M550,210 L550,170" fill="none" stroke="#555" stroke-width="2" marker-end="url(#a)"/>
<text x="556.0" y="184.0" font-size="11" fill="#ffffff" stroke="#ffffff" stroke-width="3" paint-order="stroke" text-anchor="middle">resolved at run</text>
<text x="556.0" y="184.0" font-size="11" fill="#555" text-anchor="middle">resolved at run</text>
<text x="460" y="300" font-size="11" fill="#8a4b06" text-anchor="middle">tests are JavaScript assertions that run after each response — a collection is an executable contract, not just a request log</text>
</svg>