<svg xmlns="http://www.w3.org/2000/svg" viewBox="0 0 900 280" font-family="'Red Hat Text', system-ui, sans-serif" role="img">
<defs><marker id="a" viewBox="0 0 10 10" refX="8.5" refY="5" markerWidth="9" markerHeight="9" orient="auto-start-reverse"><path d="M0,0 L10,5 L0,10 z" fill="#555"/></marker><marker id="am" viewBox="0 0 10 10" refX="8.5" refY="5" markerWidth="9" markerHeight="9" orient="auto-start-reverse"><path d="M0,0 L10,5 L0,10 z" fill="#b8650a"/></marker></defs>
<rect x="40" y="100" width="180" height="70" rx="9" fill="#ffffff" stroke="#111111" stroke-width="2"/>
<text x="130.0" y="133.0" font-size="13.5" font-weight="700" fill="#111111" text-anchor="middle">Collection</text>
<text x="130.0" y="150.0" font-size="11.5" fill="#555555" text-anchor="middle">one request set</text>
<rect x="300" y="70" width="180" height="130" rx="9" fill="#ffffff" stroke="#999999" stroke-width="1.5"/>
<text x="390.0" y="118.0" font-size="13.5" font-weight="700" fill="#111111" text-anchor="middle">iteration-data.csv</text>
<text x="390.0" y="135.0" font-size="11.5" fill="#555555" text-anchor="middle">row 1: id=1, qty=2</text>
<text x="390.0" y="150.0" font-size="11.5" fill="#555555" text-anchor="middle">row 2: id=2, qty=0</text>
<text x="390.0" y="165.0" font-size="11.5" fill="#555555" text-anchor="middle">row 3: id=3, qty=999</text>
<rect x="560" y="100" width="170" height="70" rx="9" fill="#fff8ef" stroke="#e8870c" stroke-width="2"/>
<text x="645.0" y="133.0" font-size="13.5" font-weight="700" fill="#111111" text-anchor="middle">newman run</text>
<text x="645.0" y="150.0" font-size="11.5" fill="#555555" text-anchor="middle">once per row</text>
<rect x="770" y="100" width="110" height="70" rx="9" fill="#eef4fb" stroke="#2f6db5" stroke-width="2"/>
<text x="825.0" y="133.0" font-size="13.5" font-weight="700" fill="#111111" text-anchor="middle">N results</text>
<text x="825.0" y="150.0" font-size="11.5" fill="#555555" text-anchor="middle">one per case</text>
<path d="M220,135 L300,135" fill="none" stroke="#555" stroke-width="2" marker-end="url(#a)"/>
<path d="M480,135 L560,135" fill="none" stroke="#b8650a" stroke-width="2" marker-end="url(#am)"/>
<text x="526.0" y="127.0" font-size="11" fill="#ffffff" stroke="#ffffff" stroke-width="3" paint-order="stroke" text-anchor="middle">× rows</text>
<text x="526.0" y="127.0" font-size="11" fill="#b8650a" text-anchor="middle">× rows</text>
<path d="M730,135 L770,135" fill="none" stroke="#555" stroke-width="2" marker-end="url(#a)"/>
<text x="450" y="250" font-size="11" fill="#2f6db5" text-anchor="middle">--iteration-data feeds many inputs through the same requests: boundary values, bad input, and edge cases without copy-pasting requests</text>
</svg>