<svg xmlns="http://www.w3.org/2000/svg" viewBox="0 0 920 300" font-family="'Red Hat Text', system-ui, sans-serif" role="img">
<defs><marker id="a" viewBox="0 0 10 10" refX="8.5" refY="5" markerWidth="9" markerHeight="9" orient="auto-start-reverse"><path d="M0,0 L10,5 L0,10 z" fill="#555"/></marker><marker id="am" viewBox="0 0 10 10" refX="8.5" refY="5" markerWidth="9" markerHeight="9" orient="auto-start-reverse"><path d="M0,0 L10,5 L0,10 z" fill="#b8650a"/></marker></defs>
<rect x="40" y="70" width="190" height="60" rx="9" fill="#ffffff" stroke="#111111" stroke-width="2"/>
<text x="135.0" y="98.0" font-size="13.5" font-weight="700" fill="#111111" text-anchor="middle">Collection .json</text>
<text x="135.0" y="115.0" font-size="11.5" fill="#555555" text-anchor="middle">requests + tests</text>
<rect x="40" y="160" width="190" height="60" rx="9" fill="#ffffff" stroke="#111111" stroke-width="2"/>
<text x="135.0" y="188.0" font-size="13.5" font-weight="700" fill="#111111" text-anchor="middle">Environment .json</text>
<text x="135.0" y="205.0" font-size="11.5" fill="#555555" text-anchor="middle">base_url, tokens</text>
<rect x="300" y="110" width="180" height="80" rx="9" fill="#fff8ef" stroke="#e8870c" stroke-width="2"/>
<text x="390.0" y="148.0" font-size="13.5" font-weight="700" fill="#111111" text-anchor="middle">newman run</text>
<text x="390.0" y="165.0" font-size="11.5" fill="#555555" text-anchor="middle">headless CLI</text>
<rect x="560" y="70" width="200" height="150" rx="9" fill="#ffffff" stroke="#999999" stroke-width="1.5"/>
<text x="660.0" y="128.0" font-size="13.5" font-weight="700" fill="#111111" text-anchor="middle">Reporters</text>
<text x="660.0" y="145.0" font-size="11.5" fill="#555555" text-anchor="middle">cli (humans)</text>
<text x="660.0" y="160.0" font-size="11.5" fill="#555555" text-anchor="middle">junit.xml (CI)</text>
<text x="660.0" y="175.0" font-size="11.5" fill="#555555" text-anchor="middle">html (share)</text>
<rect x="800" y="110" width="90" height="80" rx="9" fill="#eef4fb" stroke="#2f6db5" stroke-width="2"/>
<text x="845.0" y="140.5" font-size="13.5" font-weight="700" fill="#111111" text-anchor="middle">CI gate</text>
<text x="845.0" y="157.5" font-size="11.5" fill="#555555" text-anchor="middle">pass /</text>
<text x="845.0" y="172.5" font-size="11.5" fill="#555555" text-anchor="middle">fail</text>
<path d="M230,100 L300,140" fill="none" stroke="#555" stroke-width="2" marker-end="url(#a)"/>
<path d="M230,190 L300,160" fill="none" stroke="#555" stroke-width="2" marker-end="url(#a)"/>
<path d="M480,150 L560,145" fill="none" stroke="#b8650a" stroke-width="2" marker-end="url(#am)"/>
<text x="526.0" y="139.5" font-size="11" fill="#ffffff" stroke="#ffffff" stroke-width="3" paint-order="stroke" text-anchor="middle">results</text>
<text x="526.0" y="139.5" font-size="11" fill="#b8650a" text-anchor="middle">results</text>
<path d="M760,145 L800,150" fill="none" stroke="#555" stroke-width="2" marker-end="url(#a)"/>
<text x="460" y="268" font-size="11" fill="#2f6db5" text-anchor="middle">the same Postman collection your team runs by hand becomes an automated gate — no new test framework to learn</text>
</svg>