<svg xmlns="http://www.w3.org/2000/svg" viewBox="0 0 520 280" font-family="'Red Hat Text', system-ui, sans-serif" role="img">
<defs><marker id="a" viewBox="0 0 10 10" refX="8.5" refY="5" markerWidth="9" markerHeight="9" orient="auto-start-reverse"><path d="M0,0 L10,5 L0,10 z" fill="#555"/></marker><marker id="am" viewBox="0 0 10 10" refX="8.5" refY="5" markerWidth="9" markerHeight="9" orient="auto-start-reverse"><path d="M0,0 L10,5 L0,10 z" fill="#b8650a"/></marker></defs>
<rect x="130" y="20" width="260" height="100" rx="12" fill="#eef4fb" stroke="#ddd"/>
<text x="142" y="40" font-size="12" font-weight="700" fill="#1d1d1d">domain/ (pure, no framework imports)</text>
<rect x="160" y="45" width="90" height="40" rx="9" fill="#eef4fb" stroke="#2f6db5" stroke-width="2"/>
<text x="205.0" y="70.5" font-size="13.5" font-weight="700" fill="#111111" text-anchor="middle">models</text>
<rect x="260" y="45" width="100" height="40" rx="9" fill="#eef4fb" stroke="#2f6db5" stroke-width="2"/>
<text x="310.0" y="63.0" font-size="13.5" font-weight="700" fill="#111111" text-anchor="middle">ports</text>
<text x="310.0" y="80.0" font-size="11.5" fill="#555555" text-anchor="middle">(Protocol)</text>
<rect x="30" y="160" width="140" height="50" rx="9" fill="#ffffff" stroke="#111111" stroke-width="2"/>
<text x="100.0" y="183.0" font-size="13.5" font-weight="700" fill="#111111" text-anchor="middle">REST adapter</text>
<text x="100.0" y="200.0" font-size="11.5" fill="#555555" text-anchor="middle">driving (HTTP)</text>
<rect x="30" y="230" width="140" height="40" rx="9" fill="#ffffff" stroke="#111111" stroke-width="2"/>
<text x="100.0" y="248.0" font-size="13.5" font-weight="700" fill="#111111" text-anchor="middle">CLI adapter</text>
<text x="100.0" y="265.0" font-size="11.5" fill="#555555" text-anchor="middle">driving (CLI)</text>
<rect x="340" y="160" width="150" height="50" rx="9" fill="#f4f4f4" stroke="#888888" stroke-width="1.5"/>
<text x="415.0" y="183.0" font-size="13.5" font-weight="700" fill="#111111" text-anchor="middle">postgres_repo</text>
<text x="415.0" y="200.0" font-size="11.5" fill="#555555" text-anchor="middle">driven (outbound)</text>
<rect x="340" y="230" width="150" height="40" rx="9" fill="#f4f4f4" stroke="#888888" stroke-width="1.5"/>
<text x="415.0" y="248.0" font-size="13.5" font-weight="700" fill="#111111" text-anchor="middle">log_publisher</text>
<text x="415.0" y="265.0" font-size="11.5" fill="#555555" text-anchor="middle">driven (outbound)</text>
<rect x="190" y="140" width="130" height="40" rx="9" fill="#fff8ef" stroke="#e8870c" stroke-width="2"/>
<text x="255.0" y="158.0" font-size="13.5" font-weight="700" fill="#111111" text-anchor="middle">PlaceOrder</text>
<text x="255.0" y="175.0" font-size="11.5" fill="#555555" text-anchor="middle">use case</text>
<path d="M170,185 L190,165" fill="none" stroke="#555" stroke-width="2" marker-end="url(#a)"/>
<path d="M170,250 L190,175" fill="none" stroke="#555" stroke-width="2" marker-end="url(#a)"/>
<path d="M320,160 L340,175" fill="none" stroke="#555" stroke-width="2" marker-end="url(#a)"/>
<path d="M320,165 L340,245" fill="none" stroke="#555" stroke-width="2" stroke-dasharray="5 4" marker-end="url(#a)"/>
</svg>